<svg version="1.2" xmlns="http://www.w3.org/2000/svg" viewBox="0 0 906 743" width="906" height="743">
	<style>
		.s0 { fill: #70ac8b } 
	</style>
	<path id="Path 0" fill-rule="evenodd" class="s0" d="m156.71 28.94c0.2 1.45 1.03 2.06 2.79 2.06 1.81 0 2.43-0.48 2.24-1.75-0.15-1.03-1.29-1.88-2.79-2.06-2.06-0.25-2.48 0.07-2.24 1.75zm-128.71 100.06c0 1.65 0.45 3 1 3 0.55 0 1.68-0.22 2.5-0.5 0.83-0.28 1.5-1.62 1.5-3 0-2-0.5-2.5-2.5-2.5-2.11 0-2.5 0.47-2.5 3zm0 288.5c0 1.5 0.57 2.5 1.43 2.5 0.78 0 2.17-0.79 3.08-1.75 1.33-1.41 1.39-1.89 0.32-2.48-0.73-0.41-2.12-0.75-3.08-0.75-1.2-0.02-1.75 0.76-1.75 2.48zm0.11 27.18c-0.04 1 0.34 2.5 0.84 3.32 0.8 1.29 1.21 1.23 3.01-0.5 1.15-1.1 1.74-2.29 1.31-2.64-0.42-0.35-1.74-0.94-2.93-1.31-1.65-0.53-2.17-0.26-2.23 1.13zm743.92 250.32q-1.04 2-0.03 4c0.55 1.1 1.68 2 2.5 2 0.83 0 2.63-0.45 4-1 1.89-0.76 2.5-1.73 2.5-4 0-2.83-0.23-3-3.97-3-2.96 0-4.23 0.51-5 2zm28.7 0.45c-1.01 2.02-0.97 2.73 0.27 4.04 0.83 0.88 2.18 1.56 3 1.52 0.83-0.04 2.63-0.68 4-1.42l2.5-1.33c-4.26-4.08-6.18-5.26-7.02-5.26-0.83 0-2.07 1.1-2.75 2.45zm-684.23-656.8c-1.1 0.24-3.02 0.64-4.26 0.91-1.9 0.4-2.26 1.13-2.25 4.46 0.01 3.85 0.15 4.01 4.26 5.03 2.34 0.58 4.81 1.25 5.5 1.5 0.8 0.29 1.25 2.5 1.25 6.2l-0.01 5.75c-9.21-0.97-9.64-1.28-11.99-5.73-2.35-4.44-2.84-4.8-8-5.82-3.02-0.6-6.29-1.28-7.25-1.52-1.56-0.38-1.73 0.37-1.58 6.82l0.17 7.25c-12.34 0.5-12.34 0.5-13.34-2.75-0.55-1.79-2.02-4.55-3.25-6.15l-2.25-2.89c-6.42 5.66-6.82 6.48-5.9 7.98 0.61 1 3.42 2.49 6.25 3.31l5.16 1.5-0.01 13.5c-13.45 0-14.04-0.18-14.49-2.25-0.26-1.24-0.49-3.71-0.5-5.5-0.01-3.23-0.04-3.25-5.01-3.25-4.78 0-5.02 0.13-5.5 3-0.27 1.65-0.1 3.56 0.4 4.25 0.49 0.69 2.97 2.26 5.5 3.5l4.6 2.25v12h-13l-6.5-12.07c-4.93 4.94-4.95 5.08-3.25 7.54 0.96 1.39 3.1 3.21 4.75 4.03 2.13 1.07 3.27 2.58 3.94 5.25 0.52 2.06 1.3 5.26 1.75 7.11 0.67 2.8 1.56 3.64 5.31 5.02 4.33 1.6 4.51 1.84 4.81 6.14 0.31 4.47 0.3 4.48-3.5 5.22-2.09 0.41-4.6 0.74-5.56 0.75-1.31 0.01-1.75-0.8-1.74-3.24 0-1.79-0.67-4.26-1.5-5.5-1.15-1.71-2.48-2.25-5.51-2.25q-4 0-4.5 1.5c-0.27 0.83-0.5 2.63-0.5 4 0 1.78 0.87 2.93 3 4 1.65 0.83 3.9 1.5 5 1.5 1.2 0 2.4 1 3 2.5 0.55 1.38 1 4.3 1 6.5 0 3.8 0.25 4.13 5 6.5 3.5 1.75 5 3.1 5 4.5 0 1.1-1.24 3.31-2.75 4.92-1.51 1.61-3.76 3.18-5 3.5-1.96 0.51-2.25 0.2-2.25-2.42 0-1.65-0.45-4.12-1-5.5-0.89-2.23-1.51-2.47-5.75-2.25-4.73 0.25-4.75 0.27-5 4-0.22 3.28 0.13 3.94 2.75 5.25 1.65 0.83 4.13 1.5 5.5 1.5 1.79 0 2.63 0.64 2.94 2.25 0.25 1.24 0.81 4.62 1.25 7.51 0.79 5.13 0.92 5.3 5.52 7 4.13 1.53 4.78 2.17 5.3 5.24 0.33 1.93 0.8 4.29 1.04 5.25 0.39 1.53-0.36 1.75-6.05 1.75h-6.5l-2.5-12.02-8.5 0.02c0 8.93 0.37 10.09 1.75 10.43 0.96 0.23 3.21 0.68 5 1 2.51 0.44 3.4 1.2 3.89 3.32 0.35 1.51 1.42 4.33 2.37 6.25 0.96 1.93 3.25 4.66 5.11 6.08 2.38 1.81 3.75 3.96 4.63 7.25 0.69 2.57 1.25 5.01 1.25 5.42 0 0.41-3.15 0.64-7 0.5-5.06-0.18-7 0.1-7.01 1 0 0.69 0.56 3.82 1.25 6.96 1.23 5.57 1.38 5.75 5.63 7 2.41 0.71 4.72 1.74 5.13 2.29 0.42 0.55 0.92 3.58 1.13 6.74l0.37 5.75c-5.42 0.03-7.5 0.37-8.1 0.78-0.61 0.4-1.62 1.74-2.25 2.98-0.63 1.24-1.15 3.83-1.15 5.75 0 3.45 0.08 3.52 5.75 4.75l5.75 1.25 1 12.85c9.75 3.07 10.01 3.34 10.25 6.9 0.24 3.56 0.09 3.75-2.75 3.75-1.87 0-3.94-0.94-5.5-2.5-1.37-1.37-2.5-3.17-2.5-4 0-1.07-1.08-1.5-3.75-1.49-2.06 0.01-4.8 0.35-6.07 0.75-2.05 0.65-2.29 1.27-2 5.18 0.32 4.42 0.35 4.45 5.32 5.74 2.75 0.72 5.35 1.64 5.77 2.06 0.43 0.42 0.65 3.44 0.5 6.72l-0.27 5.96-11 3.16c-0.41 7.79-0.07 9.56 0.75 9.82 0.69 0.22 3.4 1.01 6.03 1.75l4.78 1.35-0.06 12.5c-5.81 0.02-8.54 0.36-9.82 0.76-2.13 0.68-2.29 1.21-2 6.64l0.32 5.9c7.36 2.09 9.69 3.26 9.92 3.95 0.24 0.69 0.58 3.61 0.75 6.49l0.33 5.24-14-0.03c1.23 5.08 2.36 8.09 3.3 9.96 0.93 1.88 3.15 4.13 4.92 5 2.76 1.36 3.41 2.42 4.5 7.36 0.7 3.17 1.09 5.98 0.86 6.25-0.23 0.26-3.04 0.48-6.25 0.48h-5.83c-1.72-8.91-2.4-11.84-2.61-12.25-0.21-0.41-2.22 0.26-4.45 1.5-2.23 1.24-4.31 3.15-4.62 4.25-0.31 1.1-0.28 2.56 0.06 3.25 0.34 0.69 2.31 1.5 4.37 1.82 2.06 0.31 4.34 0.87 5.06 1.25 0.72 0.37 1.84 3.82 2.5 7.66l1.19 6.97c8.8 3.23 9.01 3.5 9.32 7.68 0.29 3.83 0.04 4.46-2 5.11-1.27 0.4-3.78 0.74-5.57 0.75-3 0.01-3.25-0.24-3.24-3.24 0-1.79-0.67-4.26-1.5-5.5-1.15-1.71-2.48-2.25-5.51-2.25q-4 0-4.5 1.5c-0.27 0.83-0.5 2.85-0.5 4.5 0 2.76 0.44 3.14 5.52 4.75 4.85 1.54 5.58 2.11 5.99 4.75 0.25 1.65 0.58 4.35 0.73 5.99 0.22 2.49 1.06 3.38 5.01 5.25 3.94 1.88 4.92 2.9 5.74 6.01 0.55 2.06 1 4.54 1 5.5 0.01 1.47-0.94 1.75-5.99 1.75h-6c-0.77-5.42-1.9-7.9-3-9-1.1-1.1-3.12-2-4.5-2-1.5 0-2.9 0.8-3.5 2q-1 2 0 4c0.55 1.1 2.35 2.68 4 3.5 1.65 0.83 3.68 1.5 4.5 1.5 0.95 0 1.73 1.37 2.13 3.75 0.35 2.06 1.25 5.33 1.99 7.25 1.12 2.91 2.05 3.67 5.56 4.5 3.98 0.94 4.27 1.26 5.27 5.71 0.91 4.07 2.11 5.68 8.8 11.75 4.26 3.87 7.98 7.94 8.25 9.04 0.39 1.54 1.69 2.17 5.68 2.75l5.17 0.75 4.15 11.39c9.3 1.67 12.03 2.26 12.07 2.38 0.04 0.13 1.28 2.82 2.75 5.98 2.6 5.58 2.78 5.73 5.93 5.14 1.79-0.33 3.6-0.89 4.03-1.25 0.43-0.35 0.66-2.42 0.5-4.6-0.28-3.95-0.29-3.96-6.03-5.25l-5.75-1.29v-12.5l12.5 0.6c2.42 10.09 2.71 10.44 6.25 11.14 2.06 0.41 4.99 0.74 6.5 0.75 2.63 0.01 2.75-0.2 2.75-4.99 0-2.75 0.23-5.67 0.5-6.5 0.37-1.11 2.06-1.5 6.5-1.5 5.93 0 6.04 0.05 9.25 4.39 1.79 2.42 3.76 5.23 4.38 6.25 1.03 1.7 1.29 1.53 3-1.83 1.67-3.29 1.71-3.87 0.37-5.39-0.82-0.94-3.41-2.55-5.75-3.57l-4.25-1.85 0.5-13.5h13.68c2.92 8.76 3.99 10.22 6.07 10.99 2.12 0.78 3.11 0.67 4.33-0.49 0.98-0.93 1.36-2.36 1-3.75-0.33-1.3-2.48-3.31-5.08-4.75l-4.5-2.5v-13c12.6 0 13-0.14 12.92-2.25-0.04-1.24-0.6-3.72-1.25-5.52-0.64-1.81-2.74-4.86-4.67-6.79-1.92-1.93-4.06-3.5-4.75-3.48-0.85 0.03-1.17-1.33-1-4.21 0.25-4.2 0.3-4.26 4.95-5.25 2.58-0.55 4.95-0.77 5.25-0.5 0.3 0.27 1.15 2.75 1.89 5.5l1.34 5c6.83-0.39 8.95-0.62 9.1-0.75 0.16-0.14 0.61-2.35 1-4.92l0.72-4.66-12.54-2.67 0.04-13.5 14.5 0.05c-1.2-5.08-1.97-8.12-2.47-10.05-0.58-2.2-1.87-3.96-3.48-4.75-1.4-0.69-3.22-2.82-4.05-4.75-0.82-1.92-1.5-4.17-1.5-5 0-0.83 1.23-1.75 2.75-2.07 1.51-0.31 3.65-0.94 4.75-1.4 1.8-0.75 2.18-0.18 3.75 5.57l1.75 6.4c7.36-0.99 9.6-1.33 9.71-1.39 0.12-0.06 0.5-2.13 0.86-4.61l0.64-4.5-11.71-3-0.5-12.5c9.69 0.02 12.95 0.36 13.5 0.77 0.55 0.4 2.13 2.88 3.5 5.52 1.38 2.63 2.95 4.79 3.5 4.79 0.55 0.01 1.57-0.57 2.27-1.29 0.69-0.71 1.37-2.86 1.5-4.78 0.22-3.36 0.05-3.54-4.77-5.08l-5-1.59c-0.49-14.1-0.59-14.36-3.25-14.93-1.51-0.33-3.54-0.78-4.5-1-1.31-0.31-1.75-1.42-1.75-4.41q0-4 1.5-4.5c0.83-0.27 2.18-0.5 3-0.5 0.89 0 2.01 1.68 2.75 4.14 0.75 2.48 2.05 4.42 3.25 4.85 1.1 0.4 4.36 1.01 7.25 1.37 2.89 0.35 5.24 0.3 5.24-0.11-0.01-0.41-0.69-3.23-1.52-6.25-1.1-3.99-2.48-6.32-5.04-8.5-2.38-2.03-3.75-4.22-4.22-6.77l-0.71-3.77c10.39 0.04 11.58 0.38 11.93 1.79 0.23 0.96 0.68 3.21 1 5 0.56 3.2 0.65 3.25 6.07 3.25h5.5l-0.5-10.41c-6.53-1.62-8.85-2.54-9.39-3.09-0.53-0.55-1.09-3.48-1.24-6.5l-0.29-5.5 12.42-0.5c1.46 5.04 2.03 7.63 2.19 9 0.17 1.38 0.87 2.5 1.56 2.5 0.69 0 2.71-0.11 4.5-0.23 3.06-0.23 3.29-0.52 3.99-5 0.53-3.41 0.39-4.97-0.5-5.47-0.68-0.39-3.38-0.95-5.99-1.25l-4.75-0.55v-15c-4.65-0.77-7.35-1.23-9-1.5-1.65-0.27-3-0.95-3-1.5 0-0.55 0.68-2.57 1.5-4.5 1.24-2.89 2.02-3.5 4.5-3.5 2.68 0 3.12 0.45 4.17 4.25 0.64 2.34 1.43 4.55 1.75 4.91 0.32 0.37 3.67 1.04 7.44 1.5l6.86 0.84c-1.14-7.75-1.81-10.67-2.23-11.5-0.41-0.82-2.49-1.81-4.62-2.18-2.13-0.38-4.43-1.28-5.12-2-0.68-0.73-1.58-3.91-2-7.08l-0.75-5.76c13.83 0.02 14.5 0.2 14.5 2.02 0 1.1 0.45 4.02 1 6.5 0.94 4.22 1.17 4.46 3.75 3.94 1.51-0.31 3.76-0.76 5-1 1.78-0.35 2.12-0.91 1.64-2.69-0.34-1.24-1.58-3.26-2.75-4.5-1.18-1.23-3.15-2.47-4.39-2.75-1.8-0.4-2.65-1.89-4.25-7.5-1.83-6.42-2.25-7.04-5-7.5-1.65-0.27-4.35-0.72-6-1-2.12-0.35-3.12-1.16-3.4-2.75-0.23-1.24-0.79-4.05-1.25-6.25-0.73-3.44-1.54-4.37-5.85-6.69-4.68-2.52-5.03-2.98-5.5-7.25l-0.5-4.55 12-0.05 2.51 10.54c9.68 1.13 12.56 1.36 12.64 1.23 0.08-0.13-0.26-2.82-0.75-5.98l-0.9-5.75c-8.14-1.11-11.06-2.01-11.75-2.72-0.69-0.7-1.25-2.4-1.25-3.78 0-1.37-0.6-3.96-1.33-5.75-1.12-2.75-2-3.37-5.75-4.01l-4.42-0.76c-1.32-10.51-1.99-12.22-3.5-12.98-1.1-0.55-3.01-0.99-4.25-0.98-1.24 0.01-3.15-0.64-4.25-1.43-1.52-1.1-2-2.59-2-6.27 0-4.79 0.02-4.82 3.5-5.11 1.93-0.17 4.32 0.28 5.32 1 1 0.71 2.4 3.54 3.1 6.29l1.27 5c9.39 2.33 12.5 3.38 12.96 3.84 0.47 0.46 1.08 2.94 1.35 5.5 0.28 2.56 0.84 4.55 1.25 4.41 0.41-0.14 2.55-0.25 4.75-0.25 3.9 0 4-0.08 4-3.5 0-2.17-0.76-4.26-2-5.5-1.1-1.1-3.46-2.24-5.25-2.53-2.2-0.36-3.49-1.25-3.99-2.75-0.4-1.22-0.72-3.57-0.7-5.22 0.02-1.65-0.55-3.5-1.27-4.12-0.71-0.61-3.65-1.63-6.54-2.25l-5.25-1.13v-13c12.97 0 13 0.01 13.94 3.25 0.52 1.79 1.09 4.38 1.25 5.75 0.29 2.31 0.65 2.47 4.81 2.15 2.48-0.19 4.58-0.42 4.67-0.5 0.1-0.08 0.32-2.4 0.5-5.15l0.33-5-11.37-2c-2.46-10.07-3.5-13.11-3.9-13.25-0.4-0.14-2.19-1.16-3.98-2.25-1.79-1.1-3.92-3.57-4.75-5.5-0.82-1.92-1.5-4.17-1.5-5 0-1.18 1.39-1.5 6.5-1.5h6.5l2.56 11.5c11.92 2.86 12.57 3.3 13.46 6.25 0.54 1.79 2.33 4.15 3.98 5.25 1.65 1.1 3.9 2 5 2 1.1 0 2-0.22 2-0.5 0-0.27-0.67-2.07-1.5-4-1.05-2.45-2.53-3.87-4.96-4.75-3.12-1.13-3.67-1.92-5.5-8-1.12-3.71-2.6-6.92-3.29-7.14-0.69-0.21-3.39-0.66-6-1l-4.75-0.61v-14c12.56 0 14 0.31 14 1.5 0 0.83 0.46 3.64 1.02 6.25 1 4.7 1.06 4.76 5.75 5.46 2.6 0.4 5.54 1.52 6.52 2.5 0.99 0.99 2.57 3.72 3.5 6.07 1.56 3.92 2.01 4.29 5.21 4.27 3.41-0.02 3.52-0.14 4.16-4.79 0.36-2.62 0.42-4.98 0.13-5.26-0.29-0.27-3.06-0.97-6.16-1.54l-5.63-1.04c-1.12-8.46-1.57-11.03-1.73-11.18-0.15-0.14-2.74-0.82-5.77-1.52l-5.5-1.26-0.5-12.46h13c1.78 8.14 2.79 10.81 3.4 11.19 0.6 0.37 3.35 0.95 6.1 1.27 4.5 0.53 5.12 0.91 6.21 3.81 0.66 1.78 2.23 4.23 3.5 5.46 1.26 1.22 3.75 2.68 5.54 3.25l3.25 1.02v-11c-8.69-1.94-11.54-2.95-11.93-3.5-0.4-0.55-1.3-3.02-2-5.5-0.7-2.47-1.79-5.06-2.42-5.75-0.63-0.69-3.29-1.48-5.9-1.75l-4.75-0.5-0.5-14.5-12.5-0.5c-1.28-10.41-2.02-12.49-3.25-13.11-0.96-0.49-3.89-0.88-6.5-0.86-3.94 0.02-4.96-0.36-5.96-2.25-0.66-1.26-1.9-3.97-2.75-6.03-0.9-2.19-2.58-4.17-4.04-4.75-1.37-0.55-3.62-1-5-1-2.26 0-2.63-0.6-3.81-6.25l-1.32-6.25c-9.2-1.91-12.09-2.74-12.37-3.07-0.27-0.34-1.19-2.48-2.02-4.77-1.16-3.15-2.13-4.24-4-4.48-1.37-0.18-3.49-0.07-4.73 0.25-1.83 0.46-2.25 1.28-2.27 4.32-0.02 3.62 0.13 3.78 4.25 4.57 2.35 0.45 5.06 1.24 6.02 1.75 1.37 0.73 1.75 2.24 1.75 6.93v6c-7.08 0.05-9.05-0.53-10.15-1.72-0.91-0.98-2.37-3.47-3.25-5.53-1.14-2.67-2.39-3.92-4.35-4.35-1.51-0.33-4.44-1.01-6.5-1.5-3.4-0.82-3.89-1.37-5.25-5.9-0.82-2.75-2.06-5.27-2.75-5.59-0.69-0.32-2.6-0.17-4.25 0.34-2.17 0.67-3.18 1.74-3.63 3.84-0.35 1.6-0.25 3.59 0.21 4.41 0.47 0.83 3 1.95 5.64 2.5l4.78 1.01 0.64 12.99c-5.92-1.15-8.2-1.48-8.89-1.49-0.69-0.01-2.15-2.03-3.25-4.51-1.39-3.14-2.98-4.94-5.25-5.94-1.79-0.8-4.94-1.7-7-2-3.73-0.56-3.75-0.58-4.25-6.06l-0.5-5.5c-6.59 0.02-9.08 0.36-9.78 0.77-0.82 0.46-1.18 2.35-1 5.18l0.28 4.45 10 2.11c0.64 11.2 0.48 11.89-0.91 11.24-0.87-0.41-3.28-0.75-5.34-0.75-3.6 0-3.83-0.21-5.78-5.25-1.62-4.18-2.53-5.3-4.5-5.51-1.36-0.15-4.27-0.49-6.47-0.76-3.87-0.47-4.05-0.66-5.63-5.98-0.9-3.03-1.8-5.45-2-5.38-0.2 0.06-1.27 0.3-2.37 0.53zm-22.14 27.8c-0.59-2.39-0.45-2.51 2.25-1.84 1.59 0.39 3.97 0.98 5.29 1.3 1.33 0.33 2.58 1.04 2.79 1.59 0.21 0.55-0.53 2.24-1.65 3.75-1.12 1.51-2.71 2.75-3.54 2.75-0.82 0-2.17-1.12-3-2.5-0.82-1.37-1.79-3.65-2.14-5.05zm114.99-0.7c-0.48-1.55 0.26-1.75 13.65-1.75l-0.01 4.25c-0.01 2.34 0.33 5.72 0.75 7.52 0.58 2.52 1.28 3.27 3.01 3.25 1.24-0.01 3.83 0.66 5.75 1.48 2.9 1.24 3.6 2.15 4.07 5.25 0.31 2.06 0.65 4.43 0.75 5.25q0.2 1.5 4.19 1.77c2.19 0.14 5 0.48 6.24 0.75 1.71 0.36 2.38 1.38 2.79 4.23 0.3 2.06 0.75 4.99 1 6.5 0.45 2.69 0.36 2.75-9.54 2.75l-1.93-5.25c-1.06-2.89-2.19-6.26-2.5-7.5-0.46-1.81-1.49-2.37-5.32-2.86-2.61-0.34-5.31-0.79-6-1-0.69-0.22-1.47-2.64-1.75-5.39-0.46-4.58-0.8-5.13-4-6.5-1.92-0.82-4.85-1.5-6.5-1.5-2.83 0-3.03-0.26-3.56-4.75-0.3-2.61-0.8-5.54-1.09-6.5zm-28.35-0.25c0-0.27 0.23-0.5 0.5-0.5 0.28 0 2.8 0.49 5.62 1.08 4.99 1.06 5.12 1.17 5 4.5-0.11 3.22-0.33 3.42-3.62 3.42-3.08 0-3.74-0.48-5.5-4-1.1-2.2-2-4.22-2-4.5zm-115.49 29.1c-0.26-1.46 0.05-1.73 1.33-1.14 0.91 0.42 2.45 0.94 3.41 1.15 1.31 0.29 1.75 1.39 1.75 4.39 0 3.6-0.25 4-2.5 4-2.04 0-2.61-0.6-3.07-3.25-0.32-1.79-0.73-4.11-0.92-5.15zm150.58 4.83c0.07-2.74 0.47-3.5 1.71-3.25 0.93 0.18 1.84 1.68 2.16 3.55 0.47 2.83 0.27 3.23-1.71 3.25-1.93 0.02-2.24-0.48-2.16-3.55zm9.91 10.57h4.5c3.45 0 4.6 0.41 4.95 1.75 0.24 0.96 0.69 3.44 1 5.5 0.53 3.62 0.45 3.75-2.45 3.75-1.65 0-4.14-0.56-5.53-1.25-2.12-1.05-2.52-1.94-2.5-5.5zm-11.06 15.93c0.64-1.1 2.2-1.93 3.64-1.93 2.38 0 2.54 0.34 2.73 5.5 0.1 3.03-0.03 5.5-0.31 5.5-0.27-0.01-1.96-0.91-3.75-2-1.79-1.1-3.29-2.7-3.34-3.57-0.05-0.86 0.42-2.43 1.03-3.5zm-3.95 32.08c0-4.65 0.16-4.97 2.25-4.58 1.25 0.23 3.27 0.45 4.51 0.5 1.24 0.04 2.64 0.86 3.12 1.82 0.48 0.96 1.15 3.44 1.5 5.5 0.59 3.5 0.47 3.75-1.87 3.75-1.37 0-2.72-0.45-3-1-0.27-0.55-1.85-1-3.5-1-2.93 0-3-0.11-3.01-4.99zm-7.99 14.49c0-1.83 0.53-2.5 2-2.5 1.47 0 2 0.67 2 2.5 0 1.83-0.53 2.5-2 2.5-1.47 0-2-0.67-2-2.5zm-137.71 38.23c-0.6-2.61-0.51-2.71 1.79-1.74 1.33 0.56 2.98 2.14 3.67 3.51 0.69 1.38 1.25 3.85 1.25 5.5 0 2.53-0.39 3-2.5 3-2.13 0-2.58-0.56-3.03-3.75-0.3-2.06-0.83-4.99-1.18-6.52zm147.71 2.22c0.83-0.51 3.19-0.93 5.25-0.93 3.74-0.02 3.75 0 4.29 4.73 0.29 2.61 0.41 4.88 0.25 5.04-0.16 0.16-2.29-0.06-4.75-0.5-3.89-0.69-4.59-1.21-5.5-4.11-0.84-2.67-0.75-3.49 0.46-4.23zm-147.65 29.3c-0.38-2.97-0.27-5.24 0.24-5.23 0.5 0.01 2.71 1.03 4.91 2.27 3.23 1.82 4.05 2.88 4.25 5.48 0.23 3.02 0.01 3.27-3.5 3.82-2.06 0.32-4.08 0.21-4.49-0.25-0.41-0.46-1.05-3.2-1.41-6.09zm164.67 10.92c2.47-0.53 5.04-1 5.73-1.06 0.88-0.08 1.25 1.8 1.25 12.89h-3c-1.65 0-4.12-0.67-5.5-1.5-1.9-1.14-2.55-2.44-2.73-5.44-0.22-3.91-0.19-3.95 4.25-4.89zm-164.67 47.08c-0.53-4.15-0.37-5.26 0.74-5.28 0.78-0.01 2.99 1.01 4.91 2.28 2.47 1.64 3.59 3.19 3.81 5.28 0.29 2.73 0 3.03-3.5 3.69-2.09 0.39-4.14 0.39-4.55 0-0.41-0.4-1.05-3.08-1.41-5.97zm0.22 26.6c-0.37-2.66-0.18-3.03 1.25-2.39 0.92 0.42 2.47 0.94 3.43 1.15 1.38 0.31 1.75 1.44 1.75 5.39 0 4.67-0.17 5-2.5 5-2 0-2.6-0.6-3-3-0.27-1.65-0.69-4.42-0.93-6.15zm1.43 33.65c0-1.37 0.45-2.5 1-2.5 0.55 0 1.45 0.9 2 2 0.55 1.1 1 2.23 1 2.5 0 0.28-0.9 0.5-2 0.5-1.47 0-2-0.67-2-2.5zm122.65-0.75c0.47-0.9 1.03-0.69 2.02 0.75 0.75 1.1 1.37 2.9 1.38 4 0.02 1.75-0.23 1.66-2.01-0.75-1.12-1.51-1.75-3.31-1.39-4zm-15.19 40.48c1.58-0.52 3.29-0.76 3.81-0.53 0.51 0.23 0.89 2.64 0.83 5.36-0.06 3.23-0.53 4.94-1.35 4.95-0.69 0-2.26-0.67-3.5-1.5-1.35-0.91-2.33-2.67-2.45-4.43-0.16-2.4 0.3-3.08 2.66-3.85zm-16.76 42.48c0.39-1.3 1.13-1.61 2.67-1.14 1.17 0.36 2.43 0.94 2.8 1.29 0.37 0.35 0.93 2.78 1.25 5.39 0.52 4.28 0.38 4.75-1.42 4.75-1.1 0-3.12-0.45-4.5-1-2.15-0.86-2.42-1.45-1.92-4.25 0.31-1.79 0.82-4.06 1.12-5.04zm-90.62 5.22c0.07-2.56 0.44-3.02 2.25-2.75 1.55 0.23 2.24 1.11 2.42 3.07 0.21 2.33-0.13 2.75-2.25 2.75-2.14 0-2.49-0.44-2.42-3.07zm79.42 10.79c1.1-0.27 2.34-0.54 2.75-0.6 0.41-0.07 0.75 1.91 0.75 4.38 0 3.62-0.34 4.5-1.75 4.49-0.96-0.01-2.76-0.24-4-0.5q-2.25-0.49-2.29-2.74c-0.03-1.24 0.53-2.76 1.25-3.39 0.71-0.63 2.19-1.37 3.29-1.64zm-17.75 12.93c1.51-0.19 3.09-0.42 3.5-0.5 0.41-0.08 1.44 1.54 2.28 3.6 0.83 2.06 1.51 4.54 1.5 5.5-0.02 1.33-0.87 1.75-3.53 1.75-3.05 0-3.69-0.45-5-3.5-0.82-1.92-1.5-4.17-1.5-5 0-0.88 1.13-1.64 2.75-1.85zm-32.25 1.02c0.46-0.37 2.67-0.68 4.92-0.69 4.03-0.01 4.09 0.04 5.08 4.53 0.55 2.51 0.81 4.76 0.58 5.02-0.22 0.26-1.46 0.47-2.75 0.47-1.28 0-2.33-0.45-2.33-1 0-0.55-1.35-1-3-1-2.7 0-3.02-0.33-3.17-3.33-0.09-1.84 0.21-3.64 0.67-4zm131.3-431.92c-2.2 2.35-2.41 3.08-1.44 5.03 0.92 1.85 1.95 2.28 5.39 2.25l4.25-0.03c-0.91-5.81-1.7-8.08-2.34-8.79-0.64-0.72-1.64-1.28-2.23-1.25-0.58 0.02-2.22 1.28-3.63 2.79zm116.67-0.92c-1.12 1.11-1.76 3.06-1.65 5 0.18 3.06 0.33 3.17 4.68 3.17h4.5c-1.66-6.59-2.67-8.83-3.32-9.23-0.65-0.41-1.45-0.75-1.78-0.75-0.33-0.01-1.43 0.8-2.43 1.81zm27.67 0.64c-2.64 2.13-2.94 2.78-1.89 4.11 0.69 0.87 3.05 2.01 5.25 2.53 3.79 0.9 4.13 1.31 6.5 7.64 1.38 3.68 3.06 7.26 3.75 7.97 0.69 0.7 3.28 1.28 5.75 1.28h4.5l0.05 14.5c-5.08-1.18-7.79-1.52-9.3-1.51-2.42 0.01-2.81-0.44-3.28-3.74-0.3-2.06-0.75-4.99-1-6.5-0.46-2.68-0.63-2.75-7.22-2.73l-6.75 0.01-3.09-12.53c-6.9 0.39-8.99 0.62-9.08 0.75-0.09 0.14-0.32 2.5-0.5 5.25l-0.33 5c5.43 0.42 8.01 0.76 9.25 1.02 2.07 0.44 2.25 1.03 2.25 7.48v7c-4.26-0.83-6.8-1.62-8.38-2.28-1.59-0.67-3.5-2.46-4.25-3.97-0.76-1.51-1.37-3.42-1.37-4.25 0-1.04-1.78-1.83-5.75-2.56-3.16-0.59-6.2-1.19-6.75-1.33-0.55-0.15-1.69-2.93-2.53-6.19l-1.53-5.92c-6.15 0.3-8.24 0.75-8.61 1.19-0.37 0.45-0.82 2.84-1 5.31l-0.33 4.5c7.75 0.5 10.58 1.17 11.3 1.82 0.71 0.65 1.28 3.21 1.26 5.68-0.02 2.48 0.3 5.04 0.71 5.7 0.4 0.65 2.98 1.66 5.73 2.24 3.8 0.8 5.18 1.59 5.74 3.31 0.4 1.24 0.74 4.16 0.75 6.5l0.01 4.25c-8.08 0-9.29-0.46-10.42-2.25-0.79-1.24-1.75-4.05-2.15-6.25-0.39-2.2-1.21-4.33-1.82-4.73-0.61-0.41-3.92-0.75-7.36-0.75l-6.25-0.02c-0.11-5.04-0.5-7.4-0.94-8.5-0.44-1.1-3.67-3.35-7.18-5-6.36-2.99-6.38-3.02-7.38-8.36l-1-5.35c-6.2 0.92-8.22 1.46-8.5 1.8-0.27 0.34-0.72 2.62-1 5.07-0.27 2.45-0.27 4.66 0 4.92 0.28 0.26 2.53 0.47 5 0.46 2.48 0 4.99 0.32 5.58 0.73 0.6 0.4 1.72 3.54 2.5 6.97l1.42 6.23c7.36 1.57 9.84 2.59 10.25 3.28 0.41 0.69 1.2 3.47 1.75 6.19 0.97 4.79 1.14 4.98 5.5 6.07 2.48 0.61 5.06 1.42 5.75 1.8 0.69 0.38 1.81 3 2.5 5.82 0.69 2.83 1.7 5.28 2.25 5.45 0.55 0.16 3.48 0.78 6.5 1.37l5.5 1.06c1.08 7.35 1.98 10.07 2.7 10.78 0.72 0.71 3.55 1.74 6.3 2.29 2.75 0.55 5.12 1.09 5.27 1.21 0.14 0.12 0.82 2.89 1.5 6.17l1.23 5.96c10.74 2.52 11.11 2.82 13.25 7.58l2.25 5h10c-1.01-6.59-1.8-8.82-2.4-9.2-0.6-0.39-3.24-0.95-5.85-1.25l-4.75-0.55c0-12.56 0.31-14 1.5-14 0.83 0 3.19 0.84 5.25 1.86 2.06 1.03 5.02 3.39 6.57 5.25 1.55 1.87 3.35 4.09 4 4.95 0.65 0.86 3.21 1.87 5.68 2.25 4.5 0.7 4.5 0.7 5.75 6.19 0.98 4.33 1.79 5.71 3.75 6.5 1.38 0.55 4.3 1 6.5 1 2.2 0 4.01-0.11 4.01-0.25 0.01-0.14-0.72-2.72-1.61-5.75-0.89-3.02-2.13-5.81-2.76-6.19-0.63-0.38-3.05-0.94-5.39-1.25l-4.25-0.56c0-11 0.43-14 1-14 0.55 0 2.24 0.48 3.75 1.06 1.51 0.59 3.99 2.28 5.51 3.75 1.52 1.48 3.22 3.82 3.77 5.19 0.8 2 2.24 2.8 7.24 4l6.23 1.5 3 11.47c6.2-0.95 8.28-1.51 8.62-1.85 0.35-0.34 0.91-2.53 1.25-4.87 0.44-2.98 0.26-4.37-0.62-4.64-0.69-0.21-3.39-0.66-6-1l-4.75-0.61v-14c13.97 0 14 0.01 14.01 2.75 0 1.51 0.45 4.44 1 6.5l0.99 3.75h11v-11c-8.91-1.81-11.72-2.52-12-2.75-0.27-0.23-0.72-3.41-1-7.06l-0.5-6.66c-8.08-1.57-10.84-2.48-11.36-3.03-0.51-0.55-1.21-3.36-1.54-6.25l-0.6-5.25h14c-0.02 5.04 0.23 7.85 0.54 9.5 0.52 2.73 1.14 3.14 6.74 4.5l6.16 1.5c3.03 11.6 3.12 11.69 6.06 11.09 1.65-0.34 3.56-0.61 4.25-0.6 0.84 0.01 1.17-1.35 1-4.13-0.24-4-0.44-4.23-5.47-6.25l-5.23-2.11-1.05-11.5c-9.53-1.94-12.4-2.95-12.53-3.5-0.13-0.55-0.74-2.91-1.35-5.25-0.83-3.14-1.9-4.64-4.12-5.75-1.65-0.82-4.01-1.49-5.25-1.48-1.24 0.01-2.82-0.56-3.52-1.25-0.69-0.7-1.24-2.84-1.21-4.77 0.03-2.11-0.66-4.17-1.74-5.18-0.98-0.93-3.96-2.26-6.63-2.97-4.37-1.15-4.93-1.63-5.65-4.81-0.44-1.95-1.07-4.78-1.4-6.29-0.56-2.59-0.91-2.75-6.1-2.75-3.75 0-5.49 0.4-5.47 1.25 0.01 0.69 0.49 3.28 1.06 5.75 0.58 2.48 1.58 4.83 2.23 5.23 0.65 0.41 3.09 0.75 5.43 0.75l4.25 0.02v14c-8.91-0.99-11.6-1.33-11.72-1.39-0.13-0.06-0.69-2.92-1.25-6.36l-1.03-6.25c-13.83 0-14.01-0.06-14.55-2.75-0.31-1.51-0.98-4.44-1.5-6.5-0.74-2.94-1.44-3.75-3.2-3.76-1.24 0-3.94-0.45-6-1-3.08-0.81-4.08-1.75-5.59-5.24-1.01-2.34-2.52-4.83-3.35-5.53-1.27-1.06-2.05-0.86-4.67 1.25zm-3.64 39.45l5 0.65c2.75 0.36 5.23 0.88 5.5 1.14 0.28 0.27 0.73 2.7 1 5.4 0.4 3.93 0.2 4.91-1 4.88-0.82-0.01-3.07-0.5-5-1.08-3.16-0.95-3.59-1.52-4.5-6.02zm28.97 1.73c-0.39-1.7 0.03-1.8 4.8-1.14 2.88 0.39 5.28 0.78 5.34 0.86 0.06 0.07 0.4 2.27 1.39 9.63h-10l-0.55-3.75c-0.31-2.06-0.75-4.58-0.98-5.6zm28.86 0.1c-0.45-1.53 0.24-1.75 11.67-1.75v6c0 5.74-0.11 6-2.5 6-1.37 0-3.63-0.56-5.01-1.25-1.55-0.77-2.72-2.39-3.07-4.25-0.31-1.65-0.8-3.78-1.09-4.75zm-72.72 14c-0.36-1.51-0.31-2.74 0.12-2.73 0.42 0.01 2.97 0.58 5.65 1.25 2.68 0.68 5.25 1.91 5.69 2.73 0.45 0.83 1.4 3.49 2.12 5.91 1.2 4.02 1.71 4.52 5.81 5.68 2.48 0.69 5.03 1.86 5.69 2.59 0.65 0.73 1.55 3.24 2.81 9.86h-6c-5.96 0.01-6-0.01-6.76-3.26-0.42-1.8-0.76-4.51-0.75-6.03 0.01-1.92-0.67-3.02-2.24-3.66-1.24-0.5-3.79-1.51-5.68-2.25-2.21-0.86-3.85-2.4-4.61-4.34-0.66-1.65-1.49-4.23-1.85-5.75zm30.39 0.25h10l0.56 5.25c0.3 2.89 0.42 5.37 0.25 5.52-0.17 0.14-1.55-0.19-3.06-0.75-1.51-0.56-3.87-1.02-5.25-1.02-2.3 0-2.5-0.36-2.5-4.5zm31.5 1.57c0.9-0.86 2.96-1.57 4.57-1.57 2.81 0 2.93 0.19 2.93 4.5 0 4.37 0.13 4.56 4.5 6.5 2.48 1.1 5.51 2.23 6.75 2.51 1.24 0.28 2.58 1.52 2.99 2.75 0.4 1.24 0.74 3.71 0.75 5.49 0.01 3.2-0.06 3.25-4.22 3-4.02-0.23-4.41-0.55-7.84-6.25-2.52-4.2-4.85-6.67-7.77-8.25-3.06-1.65-4.18-2.89-4.23-4.68-0.04-1.33 0.67-3.13 1.57-4zm-16.5 12.43l4.25-0.02c4.12-0.01 4.27 0.1 4.99 3.75 0.41 2.08 0.74 4.56 0.75 5.52 0.01 1.21-0.77 1.75-2.49 1.75-1.37 0-3.64-0.56-5.03-1.25-2.12-1.05-2.52-1.93-2.5-5.5zm1.8-69.25c-2.2 2.35-2.41 3.09-1.44 5.03 0.93 1.85 1.95 2.28 5.39 2.25l4.25-0.03c-0.87-5.81-1.88-8.07-2.81-8.76-0.93-0.7-1.94-1.26-2.25-1.25-0.32 0.01-1.73 1.25-3.14 2.76zm29.7-1.08c-0.46 0.37-0.76 2.17-0.66 4 0.09 1.83 0.5 3.53 0.91 3.77 0.41 0.24 1.27 0.12 1.91-0.25 0.64-0.38 1.33-2.37 1.55-4.44 0.31-2.96 0.05-3.75-1.24-3.75-0.9 0-2.01 0.3-2.47 0.67zm-346.5 3.83c0 1.93 0.45 3.73 1 4 0.55 0.28 2.13 0.28 3.5 0 1.38-0.27 2.5-1.17 2.5-2 0-0.82-0.9-2.4-2-3.5-1.1-1.1-2.67-2-3.5-2-1.05 0-1.5 1.06-1.5 3.5zm173.19-1.04c-0.65 1.4-1.19 3.22-1.19 4.04 0 1.17 0.82 1.37 3.75 0.91 2.06-0.32 3.9-0.66 4.08-0.75 0.18-0.08-0.08-1.51-0.58-3.16-0.55-1.82-1.68-3.11-2.89-3.29q-1.98-0.29-3.17 2.25zm28.81 1.54c0 2.2 0.45 4 1 4 0.55 0 2.13-0.45 3.5-1 1.8-0.72 2.32-1.49 1.86-2.75-0.35-0.96-1.36-2.32-2.25-3.01-0.88-0.7-2.17-1.26-2.86-1.25-0.79 0.01-1.25 1.49-1.25 4.01zm28.94-2.06c-0.61 1.06-1.08 2.86-1.03 4 0.07 1.6 0.6 1.95 2.34 1.58 1.24-0.27 2.81-0.5 3.5-0.5 0.69-0.01 1.26-1.03 1.27-2.27 0.01-1.23-0.55-2.82-1.25-3.51-0.7-0.7-1.82-1.26-2.49-1.25-0.67 0.01-1.72 0.88-2.34 1.95zm-73.43 9.75c-1.73 0.4-1.96 1.18-1.75 5.89l0.24 5.42c7.36 0.03 10.03 0.36 10.68 0.77 0.65 0.4 1.68 3.66 2.28 7.23 0.61 3.58 1.32 6.84 1.57 7.25 0.26 0.42 2.38 0.76 4.72 0.77 2.34 0.01 4.76 0.34 5.38 0.75 0.62 0.4 1.41 2.65 1.75 4.98 0.45 3.04 1.4 4.83 3.37 6.29 1.78 1.31 4.25 2.02 7 2l4.25-0.04c0.89 9.8 1.5 11.31 3.25 12.42 1.24 0.78 4.05 1.89 6.25 2.45 3.83 0.99 4.06 1.28 5.25 6.59 1.01 4.45 1.7 5.63 3.5 5.99 1.24 0.24 4 0.8 6.13 1.25 3.63 0.75 4.01 1.18 6 6.8l2.12 6 9.5 0.5v-11c-7.36-0.92-10.17-1.54-11-1.97-0.82-0.43-2.06-3.54-2.75-6.9-1.12-5.51-1.53-6.17-4-6.59-1.51-0.26-4.32-0.73-6.25-1.05-3.26-0.53-3.55-0.89-4.33-5.28-0.45-2.59-1.46-5.72-2.25-6.96-0.85-1.35-2.41-2.25-3.92-2.25-1.37 0-3.62-0.45-5-1-1.5-0.6-2.5-1.8-2.5-3 0-1.1-0.67-3.57-1.5-5.5-1.35-3.15-2.04-3.6-7-4.5-3.02-0.55-5.69-1.56-5.92-2.25-0.24-0.68-0.69-3.27-1-5.75l-0.58-4.5c-11.16-2.76-12.21-3.39-12.66-5.5-0.3-1.37-0.94-4.18-1.44-6.25-0.82-3.41-1.19-3.74-4.15-3.63-1.79 0.06-4.14 0.32-5.24 0.57zm29.26-0.02c-1.24 0.31-1.84 1.74-2.15 5.13-0.24 2.59-0.25 5.04-0.02 5.45 0.22 0.42 2.43 0.75 4.9 0.75 2.48 0 5.18 0.23 6 0.5 0.85 0.29 1.5 1.7 1.51 3.25 0 1.52 0.43 4.33 0.96 6.25 0.87 3.2 1.46 3.65 6.99 5.25 5.09 1.48 6.04 2.11 6.03 4-0.01 1.24 0.44 3.72 1 5.5 0.8 2.59 1.78 3.46 4.76 4.25 2.06 0.54 4.88 0.99 6.25 0.98 2.31 0 2.56 0.46 3.25 6.01l0.75 6.01c7.36 2.46 10.18 3.53 11 3.96 0.83 0.43 2.07 2.98 2.76 5.66 0.68 2.69 1.51 5.11 1.84 5.38 0.33 0.28 3.03 0.73 6.01 1 5.29 0.49 5.43 0.59 6 4 0.32 1.93 0.91 4.85 1.3 6.5 0.68 2.86 0.98 3.02 6.4 3.25l5.69 0.25v-11l-12.5-2.63c-1.11-8.42-1.78-11.2-2.21-11.61-0.43-0.41-3.61-1.31-7.05-2l-6.26-1.26 0.02-14.5-13.5 0.04c-1.27-6.62-2.06-9.32-2.57-10.29-0.59-1.11-3.02-2.13-6.68-2.81l-5.75-1.07c-1.49-11.84-1.51-11.87-5.25-12.48-2.3-0.37-4.96-1.82-6.89-3.75-1.92-1.92-3.37-4.59-3.75-6.89-0.56-3.47-0.85-3.74-3.86-3.63-1.79 0.06-4.03 0.31-4.98 0.55zm170.78 2.95c-0.49 0.4-0.81 2.33-0.73 4.3l0.16 3.58c7.38-1.11 9.59-1.56 9.68-1.71 0.08-0.16 0.3-1.64 0.5-3.29 0.33-2.91 0.2-3.01-4.2-3.29-2.49-0.17-4.93 0.02-5.41 0.41zm14.45 17.88v4.5c10.29 0 10.93-0.22 10.43-1.75-0.31-0.96-0.87-2.99-1.25-4.52-0.61-2.49-1.1-2.77-4.93-2.75l-4.25 0.02zm15.56 10.75c-0.21 0.69-0.65 2.72-0.97 4.5-0.53 2.96-0.36 3.25 1.91 3.25 1.38 0 3.63-0.45 5-1 1.78-0.71 2.57-1.86 2.75-3.97 0.14-1.65-0.3-3.21-1-3.5-0.69-0.29-2.61-0.53-4.27-0.53-1.67 0-3.2 0.57-3.42 1.25zm15.44 17.75c0 2.67 0.34 3 3 3 1.65 0 3.01-0.33 3.01-0.75 0-0.41-0.67-1.76-1.5-3-0.83-1.23-2.18-2.25-3.01-2.25q-1.5 0-1.5 3zm-131 39.5c0 1.38 0.64 3.74 1.43 5.25 1.03 2 2.06 2.67 3.75 2.46 1.69-0.21 2.53-1.17 3.08-3.5 0.42-1.76 0.76-3.99 0.75-4.96-0.01-1.4-0.89-1.75-4.51-1.75-4.13 0-4.5 0.21-4.5 2.5zm-55.81 0.72c-1.22 1.26-1.98 2.96-1.69 3.78 0.36 1.02 1.66 1.42 4.02 1.25 3.27-0.23 3.47-0.45 3.23-3.49-0.15-1.99-0.84-3.35-1.8-3.53-0.85-0.16-2.55 0.73-3.76 1.99zm27.82 1.53c0 3.67 0.08 3.75 3.5 3.5 2.88-0.2 3.5-0.64 3.51-2.5 0.01-1.23-0.55-2.82-1.25-3.51-0.7-0.7-2.28-1.26-3.52-1.25-1.93 0.01-2.25 0.54-2.24 3.76zm146.13-2c-0.89 0.5-1.15 1.69-0.75 3.5 0.53 2.37 0.92 2.63 2.86 1.89 1.46-0.56 2.25-1.7 2.25-3.24 0-1.32-0.66-2.49-1.5-2.63-0.82-0.15-2.11 0.07-2.86 0.48zm-100.47 13.5c-1.47 1.04-1.6 1.73-0.72 4 0.58 1.52 1.28 2.75 1.55 2.75 0.28 0 1.4-0.45 2.5-1 1.1-0.55 2.01-1.78 2.02-2.75 0.01-0.96-0.55-2.32-1.25-3.01-0.7-0.7-1.5-1.26-1.79-1.25-0.29 0.01-1.33 0.58-2.31 1.26zm26.35 1.5c0 1.52 0.23 3.77 0.5 5 0.26 1.24 1.16 2.25 1.98 2.25 0.83 0 2.63-1.35 4-3 1.38-1.65 2.5-3.9 2.5-5 0-1.7-0.66-2-4.5-2-4.24 0-4.5 0.16-4.48 2.75zm28.98 0.75c0 1.93 0.23 4.18 0.5 5 0.28 0.83 1.06 1.51 1.75 1.53 0.69 0.01 2.38-1.15 3.75-2.58l2.5-2.61c-4.26-3.75-6.17-4.84-7-4.84-1.05 0-1.5 1.06-1.5 3.5zm-142.5-1.83c-0.46 0.37-0.78 1.38-0.71 2.25 0.07 0.87 0.71 2.14 1.42 2.81 1.03 0.98 1.54 0.73 2.54-1.25 0.69-1.36 1.25-2.93 1.25-3.48 0-0.55-0.82-1-1.83-1-1.01 0-2.21 0.3-2.67 0.67zm58.97 1.16c-1.01 1.01-1.75 2.13-1.65 2.5 0.1 0.37 1.31 0.67 2.68 0.67 2 0 2.5-0.5 2.5-2.5 0-1.37-0.38-2.5-0.85-2.5-0.47 0-1.67 0.83-2.68 1.83zm114.65-0.28c-1.31 0.86-2.33 1.99-2.25 2.51 0.07 0.52 1.48 0.94 3.13 0.94 2.54 0 3-0.39 3-2.5 0-1.37-0.34-2.5-0.75-2.5-0.41-0.01-1.82 0.69-3.13 1.55zm-187.89 15.22c-0.71 0.4-1.04 1.52-0.75 2.48 0.29 0.97 1.42 1.75 2.52 1.75 1.47 0 1.94-0.58 1.75-2.17-0.14-1.19-0.7-2.31-1.25-2.48-0.55-0.17-1.57 0.02-2.27 0.42zm-14.16 12.77c-1.48 1-2.29 2.48-2.2 4.02 0.11 2.02 0.65 2.44 3.13 2.44 2.23 0 2.98-0.45 2.9-1.75-0.05-0.96-0.41-2.77-0.79-4.02-0.66-2.15-0.83-2.19-3.04-0.69zm-215.5 14.04c-1.61 0.82-2.84 2.15-2.75 2.96 0.1 0.8 0.59 2.48 1.09 3.71 0.64 1.59 1.6 2.17 3.25 1.96 1.71-0.21 2.55-1.16 3.1-3.5 0.42-1.76 0.76-3.99 0.75-4.96 0-0.96-0.57-1.73-1.26-1.71-0.69 0.03-2.57 0.71-4.18 1.54zm215.02 16.17c-0.81 1.52-1.27 3.77-1.02 5 0.24 1.24 0.77 2.25 1.18 2.25 0.41 0 2.05-1.02 3.64-2.25 2.82-2.19 2.85-2.31 1.25-5-0.9-1.51-2.08-2.75-2.62-2.75-0.54 0-1.63 1.24-2.43 2.75zm-215.29 14.02c-0.67 0.4-1.01 1.75-0.75 2.98 0.35 1.74 1.14 2.25 3.45 2.25 2.67 0 3-0.33 3-3 0-2.45-0.41-2.99-2.25-2.98-1.24 0.01-2.79 0.34-3.45 0.75zm300.7 7.91c-1.97 1.24-2.44 2.28-2.25 4.95q0.25 3.38 2 3.79c0.96 0.22 3.44 0.67 5.5 1l3.75 0.58v13c-6.59-0.02-9.4-0.26-10.5-0.54-1.19-0.3-2.91-2.53-4.25-5.48-2.15-4.76-2.42-4.98-6.25-4.98-3.69 0-4 0.21-4.01 2.75-0.01 1.52 0.24 4.1 0.54 5.75 0.42 2.28 1.33 3.25 3.76 4.04 2.96 0.95 3.23 1.4 3.46 5.75 0.17 3.07-0.18 4.86-1 5.13-0.69 0.23-2.37 0.66-3.75 0.96-2.29 0.5-2.62 0.11-4-4.66l-1.5-5.22-13-2.07c-0.47 7.81-0.19 11.2 0.32 12.57 0.69 1.84 2.16 2.83 5.56 3.75 4.19 1.14 4.62 1.53 4.62 4.25 0 2.4-0.5 3.1-2.5 3.5-1.37 0.28-3.62 0.73-5 1-2.13 0.43-2.86-0.16-5-4-2.38-4.29-2.7-4.5-7-4.5h-4.5c0.5 10.25 0.58 10.37 4.5 11.67 3.8 1.25 4.06 1.6 5.22 7.07 0.68 3.17 1.13 5.83 1 5.91-0.12 0.08-3.12 0.3-6.66 0.5l-6.44 0.35c-2.07-8.45-2.56-9.03-5.16-9.29-1.63-0.16-3.86 0.35-4.96 1.14-1.95 1.41-1.91 1.52 1.5 4.62 1.93 1.75 4.51 3.38 5.75 3.61 1.24 0.23 2.44 1.21 2.67 2.17 0.22 0.97 0.67 3.44 1 5.5 0.34 2.22 1.51 4.47 2.86 5.5 1.26 0.97 3.73 2.32 5.5 3 3.09 1.2 3.2 1.42 2.6 5.5-0.35 2.34-0.91 4.54-1.25 4.9-0.35 0.35-2.77 1.14-5.38 1.75-4.72 1.1-4.75 1.09-5.34-1.65-0.32-1.51-0.92-3.87-1.34-5.25-0.49-1.61-1.79-2.76-3.66-3.24-1.6-0.41-3.47-0.52-4.16-0.25-0.78 0.31-1.15 2.07-1 4.74 0.25 4.15 0.37 4.29 5.25 5.92 4.31 1.43 5.12 2.12 5.84 5 0.46 1.83 1.92 4.8 3.25 6.58 1.33 1.79 3.76 3.93 5.41 4.75 2.42 1.21 3.18 2.43 3.93 6.25 0.51 2.62 0.69 4.98 0.41 5.25-0.29 0.28-3.49 0.5-7.12 0.5h-6.59c-2.11-8.58-2.51-9.02-5.42-9.25-3.05-0.23-3.21-0.07-3.21 3.25 0 3.05 0.45 3.7 3.5 5 1.93 0.83 3.92 2.52 4.43 3.75 0.52 1.24 1.53 4.25 2.25 6.68 1.15 3.86 1.83 4.6 5.32 5.74 3.86 1.26 4.06 1.54 5.5 7.8 1.34 5.78 1.34 6.55 0 6.94-0.82 0.25-3.41 0.71-5.75 1.02-3.77 0.51-4.19 0.83-3.76 2.82 0.27 1.24 0.49 3.27 0.5 4.5 0.01 1.7 1.18 2.8 4.76 4.48 2.61 1.23 4.87 2.24 5.01 2.25 0.15 0.01 0.6 3.14 1 6.94l0.74 6.92c7.73 2.53 8.06 2.94 8.79 7.39 0.43 2.63 0.66 4.82 0.5 4.89-0.16 0.06-2.2 0.39-4.54 0.75-4.04 0.6-4.27 0.5-4.78-2.12-0.3-1.51-1.08-4-1.75-5.54-1.03-2.35-1.8-2.78-4.97-2.75-3.42 0.04-3.8 0.33-4.38 3.29-0.34 1.79-0.34 4.04 0 5 0.43 1.19 2.24 2 5.61 2.5l4.97 0.75c1.02 8.53 1.71 12.02 2.19 13.25 0.64 1.67 1.9 2.38 4.86 2.75l4 0.5c0 9.35-0.29 10.08-2.25 10.57-1.24 0.31-3.59 0.43-5.24 0.25-2.6-0.27-3.26-1.02-5-5.6-1.86-4.9-2.24-5.29-5.26-5.25-2.93 0.03-3.25 0.32-3.25 3.03 0 1.65 0.45 3.9 1 5 0.55 1.1 2.69 2.48 4.75 3.05 3.08 0.87 3.97 1.72 4.95 4.75 0.66 2.04 3.53 7.3 6.38 11.7 2.85 4.4 5.57 9.02 6.05 10.25 0.86 2.21 0.75 2.25-5.74 2l-6.62-0.25c-3.59-9.99-4.05-10.5-6.77-10.5-1.65 0-3.18 0.34-3.41 0.75-0.23 0.42-0.12 2.21 0.25 3.99 0.52 2.54 1.62 3.71 5.15 5.5 4.07 2.05 4.65 2.82 6.29 8.26 1.13 3.73 2.98 7.14 4.88 9 1.69 1.65 3.64 4.13 4.33 5.5 0.69 1.38 1.54 3.52 1.89 4.75 0.6 2.19 0.44 2.25-5.99 2l-6.62-0.25c-3.59-9.99-4.05-10.5-6.77-10.5-1.95 0-3.22 0.61-3.62 1.75-0.35 0.97-0.19 2.65 0.35 3.75 0.54 1.1 2.8 2.9 5.01 4 3.4 1.69 4.21 2.71 5.16 6.5 0.62 2.48 2.25 5.74 3.62 7.25 1.36 1.52 3.64 3.54 5.06 4.5 2.25 1.52 2.54 2.34 2.25 6.25l-0.33 4.5-11 0.59c-3.4-9.81-3.69-10.09-7-10.09-3.15 0-3.56 0.33-4.13 3.25-0.34 1.79-0.34 4.04 0 5 0.45 1.25 2.08 1.9 5.63 2.25l5 0.5c0.86 6.59 1.31 9.63 1.56 11 0.33 1.86 1.75 3.09 5.45 4.75 4.38 1.98 4.99 2.62 4.99 5.25 0 2.7-0.43 3.11-4.25 4.05-2.34 0.58-4.81 1.25-5.5 1.5-0.8 0.29-1.45-0.89-1.83-3.3-0.31-2.06-0.7-4.2-0.85-4.75-0.15-0.55-1.8-1.34-3.67-1.76-1.87-0.42-4.41-0.76-5.65-0.75-2.06 0.01-2.25 0.48-2.25 5.51v5.5c6.59 1.63 9.06 2.3 9.75 2.55 0.69 0.25 1.25 1.92 1.24 3.7-0.01 1.79 0.26 4.6 0.59 6.25 0.61 3 0.6 3-5.24 3.81-3.21 0.44-6.51 1.2-7.34 1.68-1.33 0.78-1.33 1.47 0 6.16 1.39 4.9 1.77 5.34 5.25 6.07 2.22 0.46 4.32 1.7 5.14 3.03 0.77 1.24 1.67 4.39 2 7l0.61 4.75h-14c-1.62-6.58-2.3-9.06-2.55-9.75-0.24-0.68-1.8-1.25-3.45-1.25-2.76 0-3 0.28-3 3.5 0 2.86 0.56 3.82 3.07 5.25 1.69 0.97 3.9 3.1 4.92 4.75 1.01 1.65 2.12 4.58 2.46 6.5 0.42 2.42 1.3 3.73 2.83 4.24 1.22 0.4 3.23 0.74 4.47 0.75 1.24 0.01 2.93 0.69 3.75 1.51 0.83 0.83 1.5 2.52 1.51 3.75 0 1.24 0.45 3.94 1 6 0.82 3.09 1.53 3.84 3.99 4.25 1.65 0.28 4.02 1.74 5.26 3.25 1.24 1.52 2.92 4.21 3.75 5.99 1.15 2.5 2.29 3.36 4.99 3.8 1.93 0.31 4.18 0.75 5 0.98 0.83 0.22 2.53 2.56 3.78 5.2 1.97 4.11 3.16 5.2 8.5 7.78 5.16 2.49 6.56 3.73 8.22 7.26 1.85 3.91 2.28 4.23 5.5 4 3.32-0.24 3.52-0.46 3.79-4.26 0.18-2.49-0.2-4.26-1-4.69-0.71-0.38-3.2-0.94-5.54-1.25l-4.25-0.56c-0.04-9.68 0.18-12.72 0.46-13 0.28-0.27 3.22 0.07 6.53 0.75 3.31 0.69 6.01 1.7 6.01 2.25 0 0.55 1.46 2.41 3.25 4.14 1.79 1.72 5.28 4.13 7.75 5.36 3.91 1.93 4.67 2.84 5.75 6.86l1.25 4.64c8.4-0.49 8.51-0.59 8.75-4.25 0.16-2.29-0.23-3.92-1-4.2-0.69-0.25-3.16-0.92-5.5-1.5l-4.25-1.05-0.03-14.5c7.39 1.21 10.43 2.15 11.53 2.87 1.1 0.73 2.56 3.19 3.25 5.48 0.69 2.28 1.81 4.34 2.5 4.57 0.69 0.23 3.16 0.68 5.5 1l4.25 0.58c0.02-5.81-0.32-8.95-0.74-10.72-0.65-2.75-1.37-3.37-5.01-4.25-3.68-0.89-4.18-1.33-3.76-3.28 0.27-1.23 0.49-3.48 0.5-5 0.01-2.55 0.28-2.73 3.73-2.5 3.54 0.24 3.79 0.49 5 5l1.28 4.75 14.5 2.16 2.02 10.34c6.19-0.43 8.58-1.11 9.3-1.78 0.73-0.67 1.18-2.07 1-3.11-0.17-1.05-0.99-2.29-1.82-2.77-0.82-0.47-3.19-1.53-5.25-2.35l-3.75-1.49v-13h13l2.58 11.5 9.42 0.5c0-6.44-0.68-8.71-1.75-9.83-0.96-1-3.66-2.13-6-2.5l-4.25-0.67c0-13.77 0.08-13.98 2.25-13.39 1.24 0.34 3.8 1.35 5.69 2.25 1.89 0.91 4.59 3.12 6 4.93 1.42 1.83 5.17 4.49 8.44 6 3.84 1.77 6.36 3.67 7.25 5.46 0.76 1.52 1.37 3.43 1.37 4.25 0 0.83 0.45 1.73 1 2 0.55 0.28 2.58 0.28 4.5 0 3.34-0.47 3.5-0.69 3.5-4.5 0-3.86-0.14-4.03-4.25-5.11-2.34-0.61-4.81-1.29-5.5-1.5-0.84-0.26-1.25-2.66-1.25-7.39v-7c5.04 1.29 7.79 2.52 9.36 3.58 1.58 1.06 3.68 3.27 4.67 4.92q1.81 3 6.64 4.73c2.66 0.95 5.79 2.75 6.97 4 1.17 1.25 2.46 3.4 2.87 4.77 0.41 1.38 1.24 3.09 1.86 3.8 0.62 0.71 2.82 1.27 4.88 1.25l3.75-0.05c-0.92-5.81-1.59-8.28-2.09-9.25-0.52-1-2.72-2.08-5.16-2.53l-4.25-0.77-0.55-13.95 11.55 1.64 3.64 11.36c9.19 1.17 12.2 1.68 12.61 1.89 0.41 0.21 1.09 2.91 1.5 6l0.75 5.61c12.36 2.03 12.54 2.15 14.19 6.28 0.94 2.32 2.42 4.9 3.3 5.72 1.34 1.25 2.03 1.29 4.06 0.25 1.69-0.86 2.46-2.11 2.49-4 0.03-2.35-0.7-3.07-5-5l-5.04-2.25v-12c7.36 0.92 9.68 1.7 9.9 2.34 0.22 0.64 2.25 3.04 4.5 5.34 2.95 3.01 5.31 4.41 8.4 5 4.11 0.79 4.37 1.06 6 6.13 1.66 5.19 1.78 5.31 5.2 5 3.07-0.27 3.54-0.68 3.82-3.31 0.18-1.65 0.06-4.01-0.25-5.25-0.4-1.58-1.31-2.25-3.07-2.25-1.37 0-3.17-0.22-4-0.5-0.93-0.31-1.49-1.74-1.48-3.75 0-1.78 0.34-4.29 0.75-5.57 0.63-1.99 1.29-2.28 4.63-2 3.72 0.31 3.97 0.55 5.25 5.07l1.35 4.75 15.01 2.5c2.48 10.48 2.54 10.54 6.24 10.52 3.27-0.01 3.84-0.37 4.39-2.77 0.35-1.51 0.24-3.86-0.25-5.21-0.68-1.88-1.9-2.65-5.14-3.25-4.24-0.79-4.25-0.79-3.69-4.54 0.3-2.06 0.75-4.53 1-5.5 0.35-1.37 1.35-1.69 4.59-1.5 4.04 0.25 4.19 0.39 5.5 5l1.35 4.75c12.99 2.16 15.03 2.91 15.03 4-0.01 0.83 0.43 3.19 0.98 5.25 0.94 3.55 1.21 3.75 4.99 3.75q4 0 4.5-1.5c0.28-0.82 0.52-2.51 0.55-3.75 0.02-1.23-0.54-2.77-1.25-3.41-0.72-0.63-2.87-1.56-4.8-2.06-3.44-0.88-3.5-0.99-3.75-6.59l-0.25-5.69c9.2-0.08 9.68 0.18 12.25 3.96 1.51 2.22 4.55 4.94 6.75 6.04 2.2 1.1 4.9 2 6 2 1.1 0 2.19 0.79 2.43 1.75 0.23 0.97 0.69 3.1 1.01 4.75 0.5 2.62 1.12 3.09 4.82 3.68 2.33 0.38 4.29 0.6 4.35 0.5 0.06-0.1 0.37-1.75 0.69-3.68 0.58-3.44 0.5-3.53-4.6-5.6l-5.2-2.11c-0.5-12.26-0.49-12.29 2.25-12.19 1.51 0.06 3.75 0.4 4.97 0.75 1.22 0.36 3.37 2.23 4.79 4.15 1.42 1.93 4.24 4.51 6.28 5.75 2.04 1.23 4.95 2.25 6.46 2.25 2.5 0 2.84 0.46 3.75 5 0.55 2.75 1.34 5.21 1.75 5.45 0.41 0.25 2.96 0.81 5.66 1.25 4.91 0.8 4.91 0.8 4.17-1.7-0.41-1.37-1.52-3.62-2.47-5-0.96-1.37-3.4-3.28-5.42-4.25-3.67-1.74-3.69-1.78-3.71-8l-0.01-6.25c5.84 1.15 8.09 1.49 8.78 1.49 0.69 0.01 1.78 1.93 2.42 4.26 0.64 2.34 1.43 4.58 1.75 4.97 0.32 0.4 3.47 1.3 6.99 2l6.41 1.28c2.89 10.78 3.64 11.99 5.68 12.53 1.38 0.37 3.85 1.36 5.5 2.2 1.65 0.84 4.69 3.39 6.75 5.65 2.49 2.73 4.6 4.12 6.25 4.12 2.25 0 2.5-0.4 2.5-4 0-2.29-0.53-4.19-1.25-4.45-0.69-0.25-3.16-0.92-5.5-1.5l-4.25-1.05v-14c5.04 1.6 7.96 2.95 9.75 4.04 1.79 1.08 3.25 2.3 3.26 2.71 0 0.42 1.24 2.12 2.75 3.8 1.95 2.16 4.05 3.25 7.24 3.75 4.47 0.7 4.51 0.75 6.16 6.45 1.51 5.21 1.98 5.83 5 6.52 1.84 0.41 4.58 0.75 6.09 0.75 2.66-0.02 2.76-0.21 3-5.93 0.14-3.24 0.48-6.1 0.75-6.34 0.28-0.23 2.93-0.16 5.9 0.16l5.39 0.59c3.55 9.48 4.14 10.08 7.48 10.74 2.05 0.41 4.97 0.75 6.48 0.75 2.7 0.01 2.75-0.11 2.75-5.99 0-3.3 0.45-6.22 1-6.5 0.55-0.27 3.65-0.83 6.88-1.25l5.88-0.75c0.91 4.65 1.41 7.69 1.71 9.75 0.42 2.95 0.91 3.66 2.28 3.3 0.96-0.25 2.99-0.7 4.5-1 2.02-0.4 2.75-1.14 2.76-2.8 0-1.23-0.67-3.26-1.5-4.5-0.83-1.23-2.63-2.7-4.01-3.25-2.28-0.91-2.5-1.53-2.5-7 0-4.89 0.28-5.9 1.5-5.5 0.83 0.28 2.74 0.49 4.25 0.48 2.18-0.02 3.22 0.81 5 4 1.94 3.47 3.01 4.23 7.75 5.52 3.03 0.83 5.84 1.51 6.25 1.52 0.41 0 0.43-2.36 0.04-5.25-0.39-2.9-1.06-6.06-1.5-7.03-0.45-1-2.72-2.21-5.29-2.81l-4.5-1.04c1.99-9.95 2.05-10.01 5.46-9.7 3.14 0.28 3.59 0.74 5 5.02 1.31 4 2 4.79 4.54 5.2 1.65 0.27 5.14 0.74 7.75 1.04l4.75 0.55c-2.44-5.81-4.02-8.73-5.08-10.25-1.05-1.51-2.82-3.2-3.92-3.75-1.66-0.83-2-2-2-7v-6c5.81-0.94 8.06-1.39 8.75-1.61 0.86-0.26 1.49 1.57 2 5.86l0.75 6.25 11.5 0.5c-0.91-6.58-1.93-9.08-2.84-9.78-0.91-0.71-3.36-1.84-5.43-2.5l-3.77-1.22 0.04-13.5c8.14-0.02 11.18-0.46 12-0.99 1.3-0.83 1.16-1.61-1-5.73-1.62-3.1-3.79-5.48-6.19-6.78-3.37-1.83-3.75-2.47-4.38-7.5-0.38-3.02-0.4-6.06-0.06-6.75 0.4-0.79 2.84-1.25 6.63-1.25 3.34 0 6-0.44 6-1 0-0.55-0.46-2.91-1.03-5.25-0.96-3.92-1.44-4.39-6.25-6.16-2.87-1.06-5.55-2.41-5.95-3-0.41-0.6-0.74-2.77-0.75-4.84-0.01-2.06-0.41-4.53-0.88-5.5-0.48-0.96-2.73-2.53-5-3.5-3.98-1.68-4.14-1.92-4.14-6.25 0-4.2 0.22-4.56 3.25-5.51 1.79-0.56 4.04-1.01 5-1 1.26 0.01 1.91 1.08 2.31 3.76 0.3 2.07 0.75 4.54 1 5.5 0.35 1.4 1.54 1.75 5.94 1.75 4.79 0 5.43-0.22 4.93-1.75-0.31-0.96-0.79-2.87-1.06-4.25-0.38-1.91-1.71-2.97-5.63-4.5l-5.14-2c-2.07-10.07-3.22-13.32-3.88-13.71-0.67-0.38-2.91-0.95-4.97-1.25l-3.75-0.54v-12c11.57 0 12-0.16 11.97-2.25-0.02-1.23-0.94-3.82-2.04-5.75-1.1-1.92-3.45-4.48-5.22-5.68-2.42-1.66-3.51-3.43-4.46-7.25-0.69-2.79-1.25-5.74-1.25-6.57 0-1.18 1.39-1.5 6.5-1.5 5.53 0 6.5-0.26 6.48-1.75-0.01-0.96-1.07-3.55-2.36-5.75-1.28-2.2-3.56-4.9-5.05-6-2.34-1.71-2.82-2.95-3.4-8.74l-0.67-6.75c10.19-0.01 11.5-0.35 11.5-1.51 0-0.82-0.79-3.15-1.75-5.17-0.96-2.02-3.55-5.18-5.75-7.03-3.93-3.3-3.98-3.44-3.22-8.08 0.43-2.59 1.1-5 1.5-5.34 0.4-0.34 2.63-0.9 4.97-1.25l4.25-0.63c0.97 8.92 1.39 11.73 1.55 12 0.16 0.28 1.75 0.28 3.53 0 1.99-0.3 3.65-1.34 4.33-2.67 0.96-1.91 0.49-2.85-3.72-7.5-3.1-3.43-5.42-7.21-6.5-10.63-1.5-4.72-2.1-5.43-5.46-6.5-3.67-1.16-3.77-1.32-3.75-5.95 0.02-4.56 0.15-4.77 3.27-5.32 1.79-0.32 4.04-0.77 5-1 1.46-0.35 1.88 0.55 2.5 5.32l0.75 5.75c6.06 0.41 7.66 0.02 7.92-0.75 0.22-0.68 0.65-2.6 0.95-4.25 0.51-2.8 0.2-3.16-4.66-5.5l-5.21-2.5c-0.77-8.75-1.22-11.5-1.5-11.77-0.27-0.26-2.41-1.44-4.75-2.6-3.98-1.99-4.21-2.33-3.62-5.38 0.35-1.78 1.03-3.7 1.5-4.25q0.86-1 4.07 0c2.36 0.74 3.49 1.88 4.26 4.28 0.86 2.7 1.66 3.37 4.54 3.81 1.93 0.29 4.63 0.77 6 1.07 2.38 0.52 2.47 0.39 1.74-2.8-0.42-1.85-0.75-4.03-0.72-4.86 0.02-0.82-2.21-2.62-4.96-4-3.95-1.98-5.1-3.12-5.53-5.5-0.31-1.65-0.55-4.46-0.54-6.25 0.01-2.79 0.36-3.25 2.51-3.25 1.38 0 3.63-0.45 5-1 2.09-0.83 2.54-1.74 2.75-5.57 0.22-4.05-0.09-4.82-2.75-6.81-1.65-1.24-4-4.24-5.23-6.68-1.23-2.44-2.25-5.22-2.25-6.19-0.02-1.49 0.95-1.75 6.48-1.75h6.5c-0.78-4.26-1.26-6.85-1.56-8.5-0.34-1.81-1.62-3.63-3.25-4.61-1.48-0.88-3.93-4.03-5.45-7-1.52-2.96-2.76-6.06-2.77-6.89 0-0.94 1.4-1.77 3.76-2.24 2.08-0.4 5.12-0.73 6.77-0.72 2.78 0.01 2.95-0.2 2.33-2.76-0.38-1.53-1.16-4.01-1.75-5.53-0.83-2.1-2.25-3.1-6.08-4.25-4.63-1.39-5.18-1.9-7.5-7-1.9-4.18-3.64-6.24-7.25-8.58-2.9-1.88-5.41-4.5-6.45-6.75-1-2.17-3.04-4.34-5-5.32-1.81-0.92-4.36-2.04-5.65-2.5-1.53-0.55-2.93-2.4-4-5.29-1.07-2.88-2.7-5.04-4.65-6.15-1.65-0.94-4.46-1.98-6.25-2.31l-3.25-0.6v13l-10.5-0.03c-5.76-9.94-6.54-10.57-10.73-11.47-2.57-0.55-4.9-0.77-5.19-0.5-0.29 0.28-0.88 3.2-1.3 6.5l-0.78 6-12.5 0.5c-4.52-9.07-6.12-11.02-7.25-11.01-0.96 0.01-2.39 1.03-3.18 2.26-0.79 1.24-1.72 3.38-2.07 4.75-0.6 2.38-0.35 2.55 5.19 3.5 4.49 0.78 5.81 1.4 5.81 2.75 0 0.97-0.11 3.78-0.25 6.25l-0.25 4.5h-13c-2.47-8.42-2.59-8.5-7.25-8.75-4.19-0.22-4.82 0.02-5.32 2-0.32 1.24-0.43 3.36-0.25 4.71 0.25 1.94 1.31 2.77 5.09 4 4.58 1.48 4.77 1.7 4.75 5.29-0.01 2.1-0.57 3.94-1.27 4.17-0.69 0.23-2.94 0.68-5 1-3.58 0.56-3.84 0.41-5.75-3.42-1.83-3.66-2.33-4-6-4h-4c0 9.77 0.17 10.07 3.5 11.5 2.89 1.24 3.5 2.03 3.5 4.5 0 1.65 0.23 3.68 0.5 4.5 0.41 1.22-0.59 1.51-5.25 1.53-5.63 0.02-5.77-0.04-6.78-3.25-0.96-3.05-1.37-3.3-6-3.6-4.46-0.29-5.04-0.08-5.7 2-0.41 1.28-0.75 3.11-0.75 4.07-0.01 1.04 1.69 2.67 4.19 4 3.34 1.78 4.36 2.98 4.92 5.75 0.4 1.93 0.64 3.61 0.54 3.74-0.09 0.13-2.53 0.92-5.42 1.75l-5.25 1.51c-3.32-9.52-3.8-10.03-6.5-10.04-2.65-0.01-3.16 0.48-4.37 4.26-0.76 2.36-1.16 4.73-0.88 5.28 0.28 0.55 2.02 1.33 3.88 1.73 2.91 0.63 3.47 1.25 4.11 4.5 0.41 2.08 0.75 4.79 0.75 6.02 0.01 1.94-0.66 2.34-4.74 2.87-2.61 0.33-5.31 0.78-6 1-0.8 0.25-1.6-1.4-2.25-4.62-0.55-2.75-1.34-5.2-1.75-5.45-0.41-0.25-2.44-0.02-4.5 0.5-2.06 0.52-3.74 1.52-3.73 2.2 0 0.69 0.34 2.29 0.75 3.55 0.52 1.63 2.03 2.65 5.23 3.53l4.5 1.23 0.5 13.44c-10.27-1.01-12.95-1.81-13.76-2.86-0.7-0.9-1.26-2.65-1.25-3.89 0.01-1.59-0.58-2.25-1.99-2.25-1.1 0-3.12 0.45-4.5 1-1.72 0.69-2.34 1.55-1.98 2.75 0.28 0.97 2.3 2.54 4.5 3.5l3.98 1.75v15c-9.16 0.39-12.09 0.73-12.43 1-0.34 0.28-0.27 3.2 0.16 6.5 0.72 5.48 1.12 6.22 4.56 8.5 2.07 1.38 3.76 3.29 3.74 4.25-0.01 0.97-1.15 2.43-2.53 3.25-2.02 1.21-2.8 1.26-4.04 0.25-0.86-0.68-1.76-2.71-2-4.5l-0.46-3.25c-12.03 0-13 0.26-12.99 1.75 0.01 0.97 0.25 3.33 0.55 5.25 0.43 2.84 1.28 3.88 4.46 5.5 2.91 1.49 4.06 2.78 4.46 5 0.3 1.65 0.54 3.57 0.53 4.25q-0.01 1.25-5.01 1.25c-4.78 0-5.08-0.16-6.87-3.75-1.41-2.83-2.69-3.93-5.25-4.51-1.86-0.42-4.17-0.76-5.13-0.75-1.44 0.01-1.75 0.95-1.78 5.26-0.03 5.19 0.02 5.28 4 7 3.61 1.57 4.03 2.12 4.03 5.25 0 1.93 0.23 4.18 0.5 5 0.4 1.2-0.5 1.5-4.5 1.5-4.8 0-5.06-0.14-6.72-3.75-0.94-2.06-1.73-3.82-1.75-3.9-0.01-0.09-2.17-0.43-4.78-0.75l-4.75-0.6c0 8.9 0.39 10.12 1.75 10.52 0.96 0.28 2.73 1.3 3.93 2.25 1.25 0.99 2.43 3.34 2.75 5.48 0.56 3.65 0.47 3.78-3.18 4.75-2.06 0.54-4.09 0.99-4.5 1-0.41 0-1.54-1.63-2.5-3.63-0.96-2.01-2.87-4.21-4.25-4.91-1.37-0.69-4.07-1.58-6-1.98-1.92-0.39-3.8-0.32-4.17 0.15-0.37 0.48-0.2 3.12 0.37 5.87 0.57 2.75 1.54 5.59 2.17 6.3 0.62 0.71 2.66 1.61 4.53 2 1.87 0.39 3.6 1.15 3.84 1.7 0.24 0.55 0 1.9-0.54 3-0.53 1.1-2.56 2.45-4.52 3-3.54 1-3.55 0.99-5.54-3.5-1.97-4.43-2.09-4.51-8.31-5.5l-6.32-1c-3.86-10.18-4.24-10.57-7.26-10.53-1.79 0.02-3.44 0.37-3.68 0.78-0.23 0.42-0.8 2.64-1.25 4.95l-0.82 4.19c10.7 1.37 12.4 1.98 12.03 2.86-0.29 0.69-0.53 3.5-0.53 6.25v5c-6.59-0.02-8.99-0.36-9.6-0.76-0.6-0.41-1.76-2.76-2.58-5.24-1.47-4.47-1.51-4.5-8.17-6l-6.69-1.5c-2.52-7.75-3.75-10.33-4.36-10.73-0.6-0.41-2.79-0.74-4.85-0.75-3.37-0.02-3.7 0.21-3.26 2.23 0.27 1.24 0.49 3.72 0.5 5.5 0.01 3.19 0.12 3.27 5.58 4 4.93 0.67 5.5 0.98 5.01 2.75-0.3 1.1-0.56 3.92-0.56 6.25l-0.02 4.25c-6.59-0.02-8.99-0.36-9.6-0.76-0.61-0.41-1.84-3.1-2.75-5.99-1.64-5.22-1.67-5.25-7.18-6.5-3.25-0.73-5.7-1.86-5.95-2.75-0.22-0.82-2.24-3.41-4.46-5.75-2.23-2.33-5.37-4.81-6.98-5.5-1.91-0.82-3.89-3.1-5.75-6.65-2-3.82-3.97-6.02-6.73-7.5-2.15-1.15-4.84-3.45-5.99-5.1-1.14-1.65-4.45-5.58-7.34-8.75-2.9-3.16-6.1-7.66-7.11-10-1.72-3.97-2.21-4.33-7.5-5.5l-5.66-1.25c0-7.75-0.01-10.33-0.03-10.75-0.02-0.41 2.57-1.1 5.75-1.52 3.18-0.43 5.9-0.88 6.05-1 0.15-0.13-0.53-2.33-1.5-4.89-1.24-3.27-3.12-5.68-6.27-8.03-2.47-1.85-5.62-5.48-7-8.07-2.26-4.26-2.97-4.81-7.5-5.81-4.71-1.04-5.06-1.34-6.17-5.26-0.64-2.29-2.11-5.4-3.25-6.92-1.14-1.51-3.64-3.31-5.55-4-1.92-0.68-3.91-2.15-4.43-3.25-0.52-1.1-3.69-5.15-7.05-9-3.36-3.85-6.71-8.35-7.46-10-0.75-1.65-2.87-3.92-4.72-5.06-1.85-1.13-7.19-4.99-11.87-8.57-4.67-3.59-9.4-6.81-10.5-7.16-1.13-0.36-2.32-1.94-2.75-3.67-0.41-1.67-2.1-4.39-3.75-6.04-1.65-1.65-4.36-3.33-6.04-3.75-2.45-0.6-3.34-1.61-4.61-5.25-0.86-2.47-1.68-4.95-1.81-5.5-0.14-0.55-2.45-1.38-5.14-1.86-2.69-0.47-5.46-1.04-6.15-1.25-0.91-0.28-1.25 1.37-1.25 6.11 0 5.84-0.2 6.5-2 6.5-1.1 0-3.24-0.48-4.75-1.06-1.51-0.59-3.81-2.05-5.1-3.25-1.3-1.2-2.7-3.09-3.11-4.19-0.56-1.47-2.37-2.33-6.9-3.25-5.64-1.15-6.22-1.51-7.13-4.5-0.55-1.78-2.12-4.48-3.5-6-1.38-1.51-2.62-2.72-2.76-2.69-0.14 0.02-1.37 0.75-2.75 1.62zm39.19 25.32h6.91c6.07 0 6.85 0.21 6.48 1.75-0.24 0.97-0.69 3.22-1 5-0.53 2.99-0.88 3.25-4.33 3.26-2.81 0-4.1-0.56-5.15-2.25-0.77-1.24-1.74-3.49-2.16-5.01zm401.97 1.38c0.12-1.27 0.83-1.49 3.25-0.99 1.7 0.35 4.11 0.63 5.35 0.63 1.83-0.01 2.25 0.54 2.25 2.98 0 2.27-0.61 3.25-2.5 4-1.38 0.55-3.18 1-4 1-0.83 0-2.18-1.35-3-3-0.83-1.65-1.43-3.73-1.35-4.62zm28.87 0.37c-0.02-1.43 0.87-1.75 4.98-1.75 4.84 0 5.02 0.1 5.63 3.25 0.34 1.79 0.42 3.93 0.16 4.75-0.26 0.83-1.89 2.07-3.63 2.75-3.14 1.24-3.18 1.22-5.14-3-1.09-2.33-1.99-5.03-2-6zm-456.4 1.25c-0.21-1.1 0.02-2 0.5-2 0.48 0 2.02 0.57 3.41 1.25 1.39 0.69 2.51 1.59 2.5 2-0.02 0.42-1.38 0.75-3.03 0.75-2.21 0-3.1-0.53-3.38-2zm46.38 14.5c0-0.93 0.94-1.5 2.5-1.5 1.55 0 2.5 0.57 2.5 1.5 0 0.94-0.95 1.5-2.5 1.5-1.56 0-2.5-0.56-2.5-1.5zm428.34 0c-0.52-1.18 0.13-1.5 3-1.5 3.46 0 3.67 0.19 3.91 3.5 0.24 3.32 0.09 3.49-3 3.5-2.59 0-3.25-0.41-3.25-2 0-1.1-0.3-2.67-0.66-3.5zm19.16 11.16c1.1-0.23 2.56-0.48 3.25-0.54 0.89-0.08 1.25 1.89 1.25 6.88 0 6.34-0.19 7-2 7-1.1 0-3.58-0.9-5.5-2-3.08-1.75-3.5-2.48-3.52-5.98-0.01-3.33 0.36-4.06 2.25-4.46 1.25-0.26 3.17-0.67 4.27-0.9zm-403 31.01c0.46-0.37 1.43-0.67 2.16-0.67 0.74 0 1.34 0.9 1.34 2q0 2-2 2c-1.1 0-2.08-0.6-2.17-1.33-0.09-0.73 0.21-1.63 0.67-2zm402.13 0.04c0.9-0.17 2.07-0.14 2.6 0.06 0.54 0.19 0.92 2.35 0.87 4.79-0.06 2.44-0.55 4.44-1.1 4.44-0.55 0-1.39-1.01-1.87-2.25-0.48-1.23-1.15-3.26-1.5-4.5-0.46-1.62-0.18-2.33 1-2.54zm-387.58 12.96c0.79-0.28 2.23-0.54 3.2-0.59 1.2-0.05 1.71 0.63 1.63 2.17-0.07 1.24-0.4 3.43-0.75 4.88-0.54 2.24-0.96 2.5-2.88 1.75-1.66-0.64-2.31-1.78-2.45-4.29-0.13-2.23 0.3-3.6 1.25-3.92zm8.95 13.83c0-1.15 1.27-1.5 11-1.5v7.5c0 5.33-0.37 7.51-1.25 7.52-0.69 0.01-2.69-1.45-4.44-3.25-1.76-1.8-3.67-4.5-4.25-6.02-0.59-1.51-1.06-3.42-1.06-4.25zm377.58 3c0.32-0.82 1.45-1.5 2.5-1.5 1.66 0 1.92 0.75 1.92 5.5 0 3.03-0.34 5.49-0.75 5.48-0.42-0.02-1.56-0.8-2.54-1.75-0.98-0.95-1.76-2.74-1.75-3.98 0.02-1.23 0.3-2.92 0.62-3.75zm-164.58 14c0-1.37 0.33-2.5 0.75-2.51 0.41-0.01 1.29 0.55 1.96 1.25 0.82 0.86 0.9 1.82 0.25 3.01-0.53 0.97-1.41 1.53-1.96 1.25-0.55-0.27-1-1.62-1-3zm-372.67 28.75c-0.44-1.56-0.21-2.26 0.76-2.28 0.78-0.02 2.14 0.77 3.05 1.75 0.9 0.98 1.91 3.25 2.25 5.03 0.58 3.08 0.45 3.25-2.39 3.25-2.61 0-3-0.36-3.02-2.75 0-1.51-0.3-3.76-0.65-5zm206.84 30c-0.27-1.83 0.14-2.25 2.25-2.25 2.08 0 2.58 0.48 2.58 2.5 0 2-0.45 2.45-2.25 2.25-1.47-0.16-2.37-1.03-2.58-2.5zm327.91 158.32c0.75-2.18 1.48-2.57 8.92-2.57v5c0 3.04-0.49 5.22-1.25 5.56-0.69 0.31-2.94-0.37-5-1.5-2.07-1.13-3.71-2.48-3.65-2.99 0.05-0.52 0.49-2.09 0.98-3.5zm-534.66 11.57c-0.51-2.21-0.34-2.31 2.77-1.63 1.82 0.4 3.64 0.9 4.06 1.11 0.41 0.21 0.75 2.07 0.75 4.13 0 3.43-0.3 3.84-6.95 5.75l-0.04-3.5c-0.02-1.92-0.29-4.56-0.59-5.86zm536.83 14.95c1.78-0.5 3.61-0.95 4.05-1 0.45-0.05 1.04 2.5 1.32 5.66 0.28 3.17 0.25 5.98-0.08 6.25-0.33 0.28-2.27-0.48-4.32-1.68-2.85-1.68-3.78-2.91-3.97-5.25-0.22-2.69 0.15-3.18 3-3.98zm-536.92 14.16c-0.5-1.77-0.23-2.25 1.26-2.24 1.05 0 3.37 0.9 5.16 2 1.94 1.19 3.48 3.1 3.83 4.74 0.32 1.52 0.43 2.85 0.25 2.97-0.18 0.11-2.48 0.56-9.86 1.78v-3.5c0-1.92-0.29-4.51-0.64-5.75zm148.67 2.63c1.92-0.34 3.9-0.67 4.39-0.75 0.49-0.07 1.16 1.63 1.5 3.77 0.58 3.73 0.48 3.91-2.39 4.34-1.65 0.24-4.05 0.18-5.32-0.15-1.88-0.48-2.26-1.15-2-3.59 0.27-2.55 0.83-3.09 3.82-3.62zm28.37 0.09c1.58-0.3 3.27-0.42 3.75-0.26 0.48 0.16 1.31 1.98 1.84 4.04 0.53 2.07 0.87 3.79 0.75 3.83-0.12 0.04-2.35-0.07-4.96-0.25-4.69-0.32-4.75-0.37-4.5-3.57 0.21-2.7 0.73-3.34 3.12-3.79zm39.93 14.28c-0.53-2.02-0.22-2.25 3.06-2.25 3.24 0 3.85 0.44 5.64 4 1.1 2.2 1.88 4.22 1.75 4.49-0.14 0.27-1.92 0.83-3.96 1.25-3.48 0.72-3.76 0.58-4.8-2.24-0.61-1.65-1.37-4.01-1.69-5.25zm-201.3 2.25c0-2.66 0.42-3.5 1.75-3.51 0.96-0.01 2.65 0.63 3.75 1.44 1.77 1.29 1.83 1.62 0.5 2.9-0.83 0.8-2.52 1.73-3.75 2.07-2.02 0.54-2.25 0.25-2.25-2.9zm88.82-2.25c0.9-0.68 2.65-1.25 3.9-1.25 1.77 0 2.52 0.84 3.36 3.75 0.78 2.7 0.78 4.03 0 4.75q-1.08 1.01-2.33-0.26c-0.69-0.7-2.72-1.26-4.5-1.25-2.89 0.01-3.19-0.24-2.65-2.24 0.33-1.23 1.33-2.81 2.22-3.5zm231.66 2.45c1.11-0.23 2.35-0.49 2.77-0.56 0.41-0.08 0.75 0.54 0.75 1.36 0 0.83-0.57 1.51-1.25 1.52-0.69 0-2.31 0.34-3.6 0.75-1.97 0.62-2.21 0.47-1.52-0.96 0.46-0.93 1.74-1.88 2.85-2.11zm24.02-0.03c0.46-0.37 2.33-0.67 4.16-0.67 2.77 0 3.61 0.56 4.95 3.25 1.15 2.31 1.22 2.89 0.25 1.99-0.75-0.7-3.28-1.26-5.61-1.25-2.8 0.01-4.31-0.44-4.42-1.32-0.09-0.73 0.21-1.63 0.67-2zm44.01 9.02c1.09-0.25 2.32-0.51 2.74-0.57 0.41-0.06 1.65 0.78 2.75 1.88 1.1 1.1 2.45 3.13 3 4.5 0.55 1.38 1 2.95 1 3.5 0 0.55-2.48 1.12-11.01 1.5l-0.24-5.17c-0.2-4.46 0.04-5.24 1.76-5.64zm-374.51 5.31c0-2.52 0.46-4 1.25-4.01 0.68-0.01 2.6 0.24 4.25 0.55 2.33 0.44 3.3 1.39 4.34 4.27 1.13 3.09 1.13 3.81 0 4.42-0.74 0.4-2.02 0.53-2.84 0.3-0.83-0.24-2.74-0.68-4.25-0.98-2.45-0.49-2.75-0.98-2.75-4.55zm31.24-1.75c0.54-0.68 1.83-1.25 2.87-1.25 1.2 0 2.61 1.46 3.89 4 1.87 3.74 1.88 4.02 0.25 4.34-0.97 0.18-3.36-0.38-5.33-1.25-2.35-1.04-3.42-2.1-3.12-3.09 0.26-0.82 0.91-2.06 1.44-2.75zm384.85 15.25c1.01-4.14 1.36-4.5 4.25-4.53 2.47-0.02 3.45 0.58 4.53 2.75 0.75 1.53 1.76 4.02 3.13 8.28h-6.5c-3.67 0-6.5-0.43-6.5-1 0-0.55 0.49-3.02 1.09-5.5zm32.16-2.45c1.23-0.52 2.86-0.85 3.61-0.75 0.75 0.11 2.1 1.9 3 3.97 0.9 2.06 1.41 3.94 1.14 4.16-0.28 0.22-2.19 0.66-4.25 0.98-3.19 0.5-3.83 0.29-4.25-1.41-0.28-1.1-0.73-2.9-1-4-0.35-1.4 0.16-2.28 1.75-2.95zm12.64-431.28c-1.87 1.15-2.34 2.22-2.14 4.86 0.25 3.35 0.28 3.37 5.25 3.37h5c-0.47-7.76-0.88-8.46-3.11-9.03-1.63-0.42-3.51-0.12-5 0.8zm-430.38 1.4c-0.94 1.25-1.66 3.3-1.61 4.56 0.09 2.05 0.59 2.27 5.1 2.27h5c-0.49-8.22-0.71-8.52-3.64-8.8-2.33-0.23-3.58 0.28-4.85 1.97zm403.04-0.17c-0.31 0.55-0.33 2.35-0.05 4 0.27 1.65 1.06 2.99 1.75 2.97 0.68-0.02 2.02-0.58 2.96-1.25 0.94-0.67 1.74-1.67 1.78-2.22 0.04-0.55-0.73-1.77-1.71-2.72-0.98-0.95-2.32-1.74-2.98-1.75-0.66-0.02-1.45 0.42-1.75 0.97zm56.81 2.75c0.36 2.07 0.88 3.98 1.14 4.25 0.26 0.28 1.16 0.17 1.99-0.25 0.91-0.45 1.51-2.12 1.51-4.25 0-3.12-0.29-3.5-2.66-3.5-2.52 0-2.62 0.19-1.98 3.75zm-515.96 0.42c0.31 1.28 0.58 2.67 0.58 3.08 0.01 0.42 1.17 0.19 2.57-0.5 1.4-0.68 2.41-1.92 2.24-2.75-0.17-0.82-1.58-1.65-3.13-1.83-2.52-0.29-2.77-0.07-2.26 2zm-60.82 2.33c-0.32 0.83-0.58 2.85-0.58 4.5 0 2.96 0.05 3 4.25 2.38 2.33-0.35 4.54-0.91 4.89-1.25 0.35-0.35 0.47-2.09 0.25-3.88-0.37-3.04-0.64-3.25-4.31-3.25-2.55 0-4.12 0.52-4.5 1.5zm588.42 12v4.5c6.43-1.93 8.5-2.95 8.73-3.5 0.24-0.55-0.05-2.01-0.65-3.25-0.82-1.69-1.94-2.25-4.58-2.25-3.48 0-3.5 0.03-3.5 4.5zm-542.54-2.31c-0.35 0.72-0.15 2.33 0.45 3.56 0.6 1.24 1.65 2.25 2.34 2.24 0.68-0.01 1.84-0.35 2.56-0.75 0.72-0.41 1.17-1.86 1-3.24-0.24-1.87-0.99-2.58-3.02-2.81-1.52-0.18-2.97 0.25-3.33 1zm113.54 2.31c0 2.66 0.42 3.51 1.75 3.52 0.96 0.01 2.65-0.6 3.75-1.35 1.98-1.35 1.98-1.37-0.25-3.51-1.24-1.19-2.93-2.16-3.75-2.16-1.05 0-1.5 1.06-1.5 3.5zm-372 4.5c0 2.67 0.33 3 3 3 2.66 0 3-0.33 3-3 0-2.66-0.34-3-3-3-2.67 0-3 0.34-3 3zm229 0.5c0 1.78 0.43 2.36 1.5 2 0.82-0.27 1.95-0.5 2.5-0.5 0.55 0 1-0.9 1-2 0-1.46-0.67-2-2.5-2-2 0-2.5 0.5-2.5 2.5zm587.89 4.8c-1.9 0.83-2.27 1.69-2.1 4.86 0.17 3.17 0.52 3.74 1.96 3.27 0.96-0.31 3-0.87 4.52-1.25 1.91-0.47 2.76-1.3 2.72-2.68-0.03-1.1-1.12-2.72-2.42-3.6-1.79-1.21-2.94-1.36-4.68-0.6zm-571.21 3.45c-0.28 1.52-0.43 2.9-0.34 3.07 0.08 0.17 1.17 0.06 2.41-0.25 1.23-0.31 2.35-1.42 2.48-2.46 0.13-1.05-0.54-2.16-1.5-2.5-0.95-0.33-1.91-0.61-2.13-0.61-0.22 0-0.63 1.24-0.92 2.75zm140.9-1.67c-1.31 0.7-1.87 1.97-1.75 3.97 0.13 2.33 0.54 2.83 1.92 2.38 0.96-0.31 3.02-0.87 4.57-1.25 2.22-0.53 2.71-1.1 2.26-2.68-0.3-1.1-0.56-2.33-0.57-2.75-0.01-0.41-1.03-0.73-2.26-0.72-1.24 0.02-3.12 0.49-4.17 1.05zm14 15.42c-0.32 0.83-0.58 2.4-0.58 3.5q0 2 2 2c1.1 0 2.67-0.22 3.5-0.5 0.89-0.29 1.5-1.72 1.5-3.5 0-2.64-0.35-3-2.92-3-1.66 0-3.16 0.65-3.5 1.5zm429.76 0c0.36 0.83 0.67 1.84 0.68 2.25 0.01 0.42 1.13 0.64 2.5 0.5 1.73-0.17 2.48-0.85 2.48-2.25 0-1.57-0.67-2-3.16-2-2.43 0-3 0.35-2.5 1.5zm-830.34 6.5c0 2.67 0.33 3 3 3 2.18 0 3-0.47 3.01-1.75 0.01-0.96-0.55-2.32-1.25-3.01-0.69-0.7-2.05-1.26-3.01-1.25-1.28 0.01-1.75 0.83-1.75 3.01zm417.91 5.79c-0.78 0.28-1.74 1.01-2.15 1.61-0.4 0.61-0.74 2.12-0.75 3.35-0.01 1.24 0.32 2.25 0.74 2.24 0.41-0.01 1.76-0.23 3-0.5 1.68-0.36 2.27-1.23 2.35-3.43 0.05-1.62-0.32-3.13-0.84-3.36-0.51-0.23-1.57-0.18-2.35 0.09zm-204.86 4.88c-0.8 0.27-1.37 1.25-1.26 2.17 0.11 0.91 0.87 2.68 1.7 3.91 0.83 1.24 1.96 2.25 2.51 2.25 0.55 0 2.23-1.08 3.75-2.4l2.75-2.41c-3.1-3.29-4.9-4.2-6-4.14-1.1 0.06-2.66 0.34-3.45 0.62zm217.96 11.02c-0.65 1.2-1.15 2.44-1.1 2.75 0.05 0.31 0.99 0.56 2.09 0.56 1.1 0 1.99-0.56 1.98-1.25-0.01-0.68-0.41-1.92-0.89-2.75-0.74-1.25-1.08-1.14-2.08 0.69zm399.56 2.06c0.38 2.07 0.75 3.87 0.81 4.02 0.06 0.14 1.35-0.19 2.87-0.75 1.51-0.56 2.75-1.47 2.75-2.02 0-0.55-0.45-1.9-1-3-0.61-1.21-2-2-3.56-2-2.41 0-2.51 0.22-1.87 3.75zm-831.04 2.78c-0.45 0.28-0.52 1.63-0.17 3 0.5 1.94 1.28 2.47 3.64 2.47 2.66 0 3-0.33 3-3 0-2.62-0.35-3-2.84-3-1.55 0-3.19 0.24-3.63 0.53zm830.47 24.97c0 2.25 0.4 2.5 4 2.5 2.2 0 4-0.22 4-0.5 0-0.27-0.45-1.4-1-2.5q-1-2-4-2c-2.54 0-3 0.39-3 2.5zm-830.54 2.33c-1 1.01-1.74 2.36-1.64 3 0.1 0.65 0.59 2.19 1.08 3.42 0.7 1.74 1.49 2.14 3.45 1.75 2.11-0.41 2.59-1.14 2.84-4.29 0.17-2.09-0.14-4.23-0.69-4.77-0.55-0.53-1.5-0.96-2.11-0.95-0.6 0.01-1.92 0.84-2.93 1.84zm619.22 11.92c-0.28 1.52-0.43 2.9-0.34 3.07 0.08 0.17 1.17 0.06 2.41-0.25 1.23-0.31 2.35-1.42 2.48-2.46 0.13-1.05-0.54-2.16-1.5-2.5-0.95-0.33-1.91-0.61-2.13-0.61-0.22 0-0.63 1.24-0.92 2.75zm-431.43 3c-1.24 1.24-2.12 3.04-1.97 4 0.19 1.13 0.99 1.63 2.25 1.41 1.08-0.19 2.09-0.42 2.24-0.5 0.16-0.09 0.16-1.73 0-3.66l-0.27-3.5zm269.75 11.25v5c5.03-0.95 7.08-1.74 7.79-2.36 0.71-0.63 1.29-1.81 1.28-2.64 0-0.82-0.81-2.27-1.79-3.22-0.98-0.95-3.02-1.74-4.53-1.75-2.64-0.03-2.75 0.18-2.75 4.97zm374.28-1.75c-0.61 0.69-0.92 2.04-0.7 3 0.26 1.09 1.36 1.75 2.92 1.75 2.11 0 2.5-0.46 2.5-3 0-2.22-0.47-3-1.8-3-0.99 0-2.3 0.57-2.92 1.25zm-357.45 12.56c-0.73 0.27-1.66 0.99-2.07 1.59-0.4 0.61-0.74 2.57-0.75 4.35l-0.01 3.25c7-2.23 8.61-3.37 8.82-4.6 0.2-1.17-0.63-2.51-2.16-3.49-1.37-0.87-3.09-1.37-3.83-1.1zm-226.72 1.74c-1.31 0.86-2.32 2.22-2.25 3.01q0.15 1.44 3.64 1.44c3.22 0 3.5-0.23 3.5-3 0-1.73-0.53-3-1.25-3-0.69-0.01-2.33 0.69-3.64 1.55zm239.83 15.39c-0.62 1.06-1.08 2.86-1.03 4 0.06 1.45 0.61 1.93 1.84 1.61 0.96-0.25 2.98-0.7 4.5-1 1.51-0.3 2.75-0.88 2.75-1.3 0.01-0.41-0.67-1.76-1.5-3-0.82-1.23-2.39-2.25-3.47-2.25-1.09 0-2.48 0.87-3.09 1.94zm-241.35 14.06c-0.41 1.38-0.12 2 0.91 2 0.82 0 2.28-0.27 3.25-0.59 1.61-0.56 1.59-0.71-0.25-1.97-1.1-0.76-2.3-1.39-2.66-1.4-0.36-0.02-0.92 0.86-1.25 1.96zm254.91-1.33c-0.46 0.37-0.76 2.17-0.67 4 0.17 3.31 0.2 3.33 5.17 3.33 4.33 0 5-0.26 5-2 0-1.1-0.45-2.9-1-4-0.7-1.4-2-2-4.34-2-1.83 0-3.7 0.3-4.16 0.67zm59.85 1.08c-0.33 0.97-0.32 2.77 0.03 4 0.55 2.01 0.94 2.15 3.62 1.25 1.65-0.55 3-1.45 3-2 0-0.55-1.02-1.91-2.25-3.02-1.24-1.11-2.6-2.01-3.03-2-0.42 0.01-1.04 0.81-1.37 1.77zm-29.02 2.5c0.35 1.24 0.65 2.59 0.65 3 0.01 0.42 0.69 0.53 1.52 0.25 0.82-0.27 1.5-1.62 1.5-3 0-1.89-0.53-2.5-2.16-2.5-1.75 0-2.03 0.42-1.51 2.25zm-375.75 1.83c-1.06 0.56-1.85 1.34-1.75 1.72 0.1 0.39 1.07 2.17 2.17 3.95 1.25 2.03 2.56 3.07 3.5 2.75 1.03-0.34 1.5-1.89 1.5-5 0-3.63-0.34-4.49-1.75-4.47-0.97 0.02-2.62 0.49-3.67 1.05zm-156.33 42.42c-1.4 0.93-2.16 2.34-2 3.72 0.14 1.25 1.77 3.22 3.75 4.53 1.92 1.27 4.4 2.26 5.5 2.2 1.1-0.06 1.43-0.29 0.75-0.53-0.8-0.26-1.25-2.41-1.25-5.92 0-5.03-0.19-5.5-2.25-5.5-1.24-0.01-3.27 0.67-4.5 1.5zm143.81 2.25c-1.36 1.09-1.97 2.41-1.62 3.5 0.39 1.23 1.6 1.75 4.06 1.75 3.1 0 3.44-0.25 3.01-2.25-0.27-1.23-0.49-2.81-0.5-3.5-0.01-0.68-0.63-1.25-1.39-1.25-0.76 0-2.36 0.79-3.56 1.75zm670.75 6.98c0.17 1.53 0.51 3.79 0.75 5.02 0.28 1.44 1.16 2.25 2.44 2.25 1.1 0 2.67-0.22 3.5-0.5 0.82-0.27 1.52-1.28 1.54-2.25 0.02-0.96-0.76-2.74-1.75-3.95-0.99-1.22-2.92-2.47-4.29-2.78-2.25-0.51-2.47-0.28-2.19 2.21zm-803.47 6.52c0.35 2.34 1.21 4.84 1.9 5.55 0.69 0.71 2.72 1.5 4.51 1.75 2.87 0.4 3.71 1.32 7.25 7.95 3.81 7.15 4.16 7.5 7.5 7.5h3.5v-12c-10.55-0.98-11.62-1.43-12.24-3.28-0.4-1.22-0.74-3.68-0.75-5.47-0.01-2.75-0.54-3.47-3.51-4.75-1.93-0.82-4.7-1.5-6.15-1.5-2.56 0-2.63 0.16-2.01 4.25zm803.66 24.09c0.27 2.45 0.72 4.76 1 5.13 0.27 0.38 1.85 0.27 3.5-0.24 1.65-0.52 3.45-1.67 4-2.57 0.74-1.21 0.49-2.13-1-3.62-1.1-1.09-3.35-2.25-5-2.57l-3-0.59zm-772.68 7.42c0.33 2.61 0.74 4.88 0.89 5.03 0.16 0.16 1.86-0.09 3.79-0.56 3.28-0.79 3.5-1.09 3.59-5.03l0.1-4.19h-8.99zm57.69-0.75c0 2.2 0.33 4.01 0.75 4.02 0.41 0.01 2.21-0.44 4-1 1.78-0.56 3.25-1.25 3.25-1.52 0-0.28-0.57-1.64-1.25-3.03-0.9-1.8-2.04-2.52-4-2.5-2.54 0.03-2.75 0.34-2.75 4.03zm716 22.5v5.5c7.47 0 8-0.29 8.01-2.25 0.01-1.24 0.23-3.26 0.5-4.5 0.41-1.91-0.09-2.4-3.26-3.24-2.07-0.55-4.09-1-4.5-1-0.42-0.01-0.75 2.46-0.75 5.49zm-569.15 29.04c-0.2 1.4-0.13 2.71 0.15 2.92 0.27 0.22 1.28 0.2 2.25-0.04 1.08-0.26 1.75-1.37 1.75-2.92 0-1.79-0.54-2.5-1.9-2.5q-1.91-0.01-2.25 2.54zm584.58 12.02c-0.49 0.3-0.57 1.43-0.17 2.5 0.46 1.21 1.68 1.94 3.24 1.94 2 0 2.5-0.5 2.5-2.5 0-1.95-0.52-2.5-2.34-2.5-1.28 0-2.74 0.25-3.23 0.56zm-585.43 16.94c0 2.47 0.47 4.5 1.04 4.5 0.58 0 2.15-1.13 3.5-2.5 1.35-1.38 2.46-3.18 2.46-4 0-0.83-1.02-1.72-2.25-1.99-1.24-0.26-2.82-0.49-3.5-0.5-0.82-0.01-1.25 1.55-1.25 4.49zm587 11.7c-0.77 0.66-1.31 2.01-1.2 3 0.15 1.35 1.07 1.8 3.7 1.8 1.92 0 3.5-0.23 3.5-0.5 0-0.28-0.45-1.63-1-3-0.55-1.38-1.59-2.5-2.3-2.5-0.72 0-1.93 0.54-2.7 1.2zm0 29c-0.77 0.66-1.31 2.01-1.2 3 0.15 1.35 1.07 1.8 3.7 1.8 1.92 0 3.5-0.23 3.5-0.5 0-0.28-0.45-1.63-1-3-0.55-1.38-1.59-2.5-2.3-2.5-0.72 0-1.93 0.54-2.7 1.2zm-586.91 16.23c-0.05 2.51 0.36 4.57 0.91 4.57 0.55 0 2.13-0.56 3.52-1.25 1.88-0.93 2.36-1.76 1.88-3.25-0.34-1.1-0.92-2.29-1.27-2.64-0.35-0.35-1.6-0.94-2.79-1.32-1.99-0.62-2.17-0.31-2.25 3.89zm14.91 9.46c-2.18 0.61-2.5 1.26-2.5 5.07 0 4.37 0 4.38 5 5.96 4.69 1.48 5.1 1.88 6.65 6.58 1.52 4.6 2.04 5.14 6.5 6.73 2.67 0.95 5.16 1.4 5.55 1 0.38-0.4 0.38-2.84 0-5.42-0.67-4.43-1-4.83-6.2-7.55-4.83-2.53-5.75-3.51-7.51-8.07-1.23-3.18-2.59-5.15-3.5-5.09-0.82 0.05-2.62 0.41-3.99 0.79zm213.32 15.86c0.29 0.96 0.78 2.76 1.1 4 0.32 1.24 1.14 2.26 1.83 2.27 0.68 0.01 2.15-0.67 3.25-1.5 1.97-1.5 1.96-1.55-0.75-4.02-1.52-1.37-3.47-2.5-4.35-2.5q-1.57 0.01-1.08 1.75zm-56.23 2.68c-0.08 3.16 0.19 3.57 2.41 3.57 1.37 0 2.69-0.34 2.93-0.75 0.24-0.41-0.11-1.88-0.78-3.25-0.67-1.38-1.95-2.65-2.85-2.82-1.25-0.25-1.65 0.5-1.71 3.25zm28.91 0.07c0 1.92 0.22 3.5 0.5 3.5 0.27 0 1.28-1.16 2.25-2.59 1.53-2.26 1.56-2.69 0.25-3.48-0.83-0.5-1.84-0.91-2.25-0.92-0.42 0-0.75 1.56-0.75 3.49zm371.11-2c-0.61 0.82-0.89 2.4-0.61 3.5 0.36 1.44 1.33 2 3.5 2 1.73 0 3-0.53 3-1.25 0.01-0.69-0.67-2.26-1.5-3.5-0.83-1.24-1.9-2.25-2.39-2.25-0.49 0-1.39 0.67-2 1.5zm-529.09 13.25c-2.14 1.69-2.16 1.88-0.62 5.5 1.39 3.26 1.86 3.62 3.6 2.75 1.55-0.78 2-2 2-5.5 0-3.15-0.42-4.5-1.38-4.5-0.76 0-2.38 0.79-3.6 1.75zm372.91 0.18c-0.61 1.07-1.07 2.87-1.02 4 0.07 1.61 0.75 2.07 3.09 2.07 2.39 0 3.1-0.51 3.53-2.51 0.3-1.39-0.04-3.21-0.75-4.05-0.71-0.84-1.83-1.51-2.51-1.49-0.67 0.03-1.72 0.92-2.34 1.98zm-287.78 2.96c-0.08 1.71 0.18 3.1 0.6 3.08 0.41-0.02 1.52-0.58 2.46-1.25 0.94-0.67 1.73-1.78 1.75-2.47 0.02-0.69-0.41-1.25-0.96-1.25-0.55 0-1.61-0.27-2.35-0.61-0.95-0.43-1.39 0.3-1.5 2.5zm171.43-1.39c-0.32 0.82-0.39 1.84-0.15 2.25 0.24 0.41 1.65 0.52 3.13 0.25 1.47-0.28 2.85-0.84 3.06-1.25 0.21-0.41-0.75-1.2-2.12-1.75-1.38-0.55-2.69-1-2.92-1-0.23 0-0.68 0.67-1 1.5zm59.53 0.92c-0.07 1.61 0.35 2.45 1.14 2.25 0.68-0.19 1.25-1.16 1.25-2.17 0-1.01-0.51-2.02-1.14-2.25-0.64-0.24-1.18 0.7-1.25 2.17zm198.39-1.75c-0.46 0.36-0.76 1.71-0.67 3 0.11 1.58 0.79 2.33 2.09 2.33 1.07 0 2.64-0.68 3.5-1.5 1.28-1.22 1.34-1.79 0.33-3.05-0.69-0.84-1.97-1.52-2.84-1.5-0.87 0.03-1.96 0.35-2.41 0.72zm-500.5 15.33c0 1.47 0.66 2 2.5 2 1.37 0 2.5-0.34 2.51-0.75 0.01-0.41-0.55-1.32-1.25-2.02-0.69-0.69-1.83-1.26-2.51-1.25-0.69 0.01-1.25 0.92-1.25 2.02zm28.5-1.33c-0.46 0.36-0.76 1.26-0.67 2 0.1 0.77 1.42 1.33 3.17 1.33 1.65 0 3-0.34 3.01-0.75 0.01-0.41-0.55-1.32-1.25-2.02-0.69-0.69-1.75-1.26-2.35-1.25-0.59 0.01-1.46 0.32-1.91 0.69zm372.58 1.26c-0.06 1.56 0.53 2.07 2.42 2.07 1.81 0 2.42-0.48 2.24-1.75-0.15-0.96-1.24-1.89-2.42-2.07-1.61-0.24-2.19 0.21-2.24 1.75z"/>
</svg>