<svg version="1.2" xmlns="http://www.w3.org/2000/svg" viewBox="0 0 906 743" width="906" height="743"><style>.a{fill:#f00}</style><path fill-rule="evenodd" class="a" d="m157.7 28.9c0.2 1.5 1 2.1 2.8 2.1 1.8 0 2.4-0.5 2.2-1.7-0.1-1.1-1.3-1.9-2.8-2.1-2-0.3-2.4 0.1-2.2 1.7zm-128.7 100.1c0 1.7 0.4 3 1 3 0.6 0 1.7-0.2 2.5-0.5 0.8-0.3 1.5-1.6 1.5-3 0-2-0.5-2.5-2.5-2.5-2.1 0-2.5 0.5-2.5 3zm0 288.5c0 1.5 0.6 2.5 1.4 2.5 0.8 0 2.2-0.8 3.1-1.7 1.3-1.5 1.4-1.9 0.3-2.5-0.7-0.4-2.1-0.8-3-0.8-1.3 0-1.8 0.8-1.8 2.5zm0.1 27.2c0 1 0.3 2.5 0.9 3.3 0.7 1.3 1.2 1.2 3-0.5 1.1-1.1 1.7-2.3 1.3-2.6-0.5-0.4-1.8-1-3-1.4-1.6-0.5-2.1-0.2-2.2 1.2zm743.9 250.3q-1 2 0 4c0.6 1.1 1.7 2 2.5 2 0.8 0 2.6-0.5 4-1 1.9-0.8 2.5-1.7 2.5-4 0-2.8-0.2-3-4-3-2.9 0-4.2 0.5-5 2zm28.7 0.5c-1 2-0.9 2.7 0.3 4 0.8 0.9 2.2 1.6 3 1.5 0.8 0 2.6-0.7 4-1.4l2.5-1.3c-4.3-4.1-6.2-5.3-7-5.3-0.9 0-2.1 1.1-2.8 2.5zm-684.2-656.8c-1.1 0.2-3 0.6-4.3 0.9-1.9 0.4-2.2 1.1-2.2 4.4 0 3.9 0.1 4 4.3 5 2.3 0.6 4.8 1.3 5.5 1.5 0.8 0.3 1.2 2.6 1.2 6.3v5.7c-9.2-1-9.6-1.3-12-5.7-2.3-4.5-2.8-4.8-8-5.9-3-0.5-6.3-1.2-7.2-1.5-1.6-0.4-1.8 0.4-1.6 6.9l0.1 7.2c-12.3 0.5-12.3 0.5-13.3-2.7-0.6-1.8-2-4.6-3.3-6.2l-2.2-2.9c-6.4 5.7-6.8 6.5-5.9 8 0.6 1 3.4 2.5 6.3 3.3l5.1 1.5v13.5c-13.4 0-14-0.2-14.5-2.2-0.3-1.3-0.5-3.8-0.5-5.5 0-3.3 0-3.3-5-3.3-4.8 0-5 0.1-5.5 3-0.3 1.7-0.1 3.6 0.4 4.3 0.5 0.6 3 2.2 5.5 3.5l4.6 2.2v12h-13l-6.5-12.1c-4.9 5-5 5.1-3.2 7.6 0.9 1.4 3.1 3.2 4.7 4 2.1 1.1 3.3 2.6 3.9 5.3 0.6 2 1.3 5.2 1.8 7.1 0.7 2.8 1.6 3.6 5.3 5 4.3 1.6 4.5 1.8 4.8 6.1 0.3 4.5 0.3 4.5-3.5 5.2-2.1 0.4-4.6 0.8-5.5 0.8-1.4 0-1.8-0.8-1.8-3.2 0-1.8-0.7-4.3-1.5-5.5-1.1-1.8-2.5-2.3-5.5-2.3q-4 0-4.5 1.5c-0.3 0.8-0.5 2.6-0.5 4 0 1.8 0.9 2.9 3 4 1.7 0.8 3.9 1.5 5 1.5 1.2 0 2.4 1 3 2.5 0.6 1.4 1 4.3 1 6.5 0 3.8 0.3 4.1 5 6.5 3.5 1.8 5 3.1 5 4.5 0 1.1-1.2 3.3-2.7 4.9-1.6 1.6-3.8 3.2-5 3.5-2 0.5-2.3 0.2-2.3-2.4 0-1.6-0.4-4.1-1-5.5-0.9-2.2-1.5-2.5-5.7-2.2-4.8 0.2-4.8 0.2-5 4-0.3 3.2 0.1 3.9 2.7 5.2 1.7 0.8 4.1 1.5 5.5 1.5 1.8 0 2.6 0.6 2.9 2.3 0.3 1.2 0.9 4.6 1.3 7.5 0.8 5.1 0.9 5.3 5.5 7 4.1 1.5 4.8 2.1 5.3 5.2 0.3 1.9 0.8 4.3 1.1 5.3 0.3 1.5-0.4 1.7-6.1 1.7h-6.5l-2.5-12h-8.5c0 8.9 0.4 10.1 1.8 10.4 0.9 0.3 3.2 0.7 5 1 2.5 0.5 3.3 1.2 3.8 3.4 0.4 1.5 1.5 4.3 2.4 6.2 1 1.9 3.3 4.7 5.1 6.1 2.4 1.8 3.8 3.9 4.7 7.2 0.6 2.6 1.2 5 1.2 5.5 0 0.4-3.2 0.6-7 0.5-5.1-0.2-7 0-7 1 0 0.6 0.5 3.8 1.2 6.9 1.3 5.6 1.4 5.8 5.7 7 2.4 0.7 4.7 1.8 5.1 2.3 0.4 0.6 0.9 3.6 1.1 6.7l0.4 5.8c-5.4 0-7.5 0.4-8.1 0.8-0.6 0.4-1.6 1.7-2.3 3-0.6 1.2-1.1 3.8-1.1 5.7 0 3.4 0.1 3.5 5.8 4.8l5.7 1.2 1 12.8c9.7 3.1 10 3.4 10.3 7 0.2 3.5 0 3.7-2.8 3.7-1.9 0-3.9-0.9-5.5-2.5-1.4-1.4-2.5-3.2-2.5-4 0-1.1-1.1-1.5-3.7-1.5-2.1 0-4.8 0.4-6.1 0.8-2.1 0.6-2.3 1.2-2 5.1 0.3 4.5 0.3 4.5 5.3 5.8 2.8 0.7 5.3 1.6 5.8 2 0.4 0.5 0.6 3.5 0.5 6.8l-0.3 5.9-11 3.2c-0.4 7.8-0.1 9.5 0.8 9.8 0.6 0.2 3.4 1 6 1.8l4.8 1.3-0.1 12.5c-5.8 0-8.5 0.4-9.8 0.8-2.2 0.6-2.3 1.2-2 6.6l0.3 5.9c7.4 2.1 9.7 3.3 9.9 4 0.3 0.6 0.6 3.6 0.8 6.4l0.3 5.3h-14c1.2 5 2.4 8 3.3 9.9 0.9 1.9 3.1 4.1 4.9 5 2.8 1.4 3.4 2.4 4.5 7.4 0.7 3.1 1.1 5.9 0.9 6.2-0.2 0.3-3.1 0.5-6.3 0.5h-5.8c-1.7-8.9-2.4-11.8-2.6-12.2-0.2-0.5-2.2 0.2-4.5 1.5-2.2 1.2-4.3 3.1-4.6 4.2-0.3 1.1-0.3 2.6 0.1 3.3 0.3 0.6 2.3 1.5 4.4 1.8 2 0.3 4.3 0.8 5 1.2 0.7 0.4 1.9 3.8 2.5 7.7l1.2 7c8.8 3.2 9 3.5 9.3 7.6 0.3 3.9 0.1 4.5-2 5.1-1.3 0.4-3.8 0.8-5.5 0.8-3.1 0-3.3-0.2-3.3-3.2 0-1.8-0.7-4.3-1.5-5.5-1.1-1.8-2.5-2.3-5.5-2.3q-4 0-4.5 1.5c-0.3 0.8-0.5 2.9-0.5 4.5 0 2.8 0.4 3.1 5.5 4.8 4.9 1.5 5.6 2.1 6 4.7 0.3 1.6 0.6 4.3 0.7 6 0.3 2.5 1.1 3.4 5.1 5.2 3.9 1.9 4.9 2.9 5.7 6.1 0.5 2 1 4.5 1 5.5 0 1.4-1 1.7-6 1.7h-6c-0.8-5.4-1.9-7.9-3-9-1.1-1.1-3.1-2-4.5-2-1.5 0-2.9 0.8-3.5 2q-1 2 0 4c0.6 1.1 2.4 2.7 4 3.5 1.7 0.8 3.7 1.5 4.5 1.5 1 0 1.7 1.4 2.1 3.8 0.4 2 1.3 5.3 2 7.2 1.1 2.9 2.1 3.7 5.6 4.5 4 0.9 4.3 1.3 5.2 5.7 1 4.1 2.2 5.7 8.9 11.8 4.2 3.8 7.9 7.9 8.2 9 0.4 1.5 1.7 2.2 5.7 2.8l5.2 0.7 4.1 11.4c9.3 1.7 12 2.3 12.1 2.4 0 0.1 1.2 2.8 2.7 6 2.6 5.5 2.8 5.7 6 5.1 1.7-0.3 3.6-0.9 4-1.3 0.4-0.3 0.6-2.4 0.5-4.6-0.3-3.9-0.3-3.9-6-5.2l-5.8-1.3v-12.5l12.5 0.6c2.4 10.1 2.7 10.4 6.2 11.1 2.1 0.4 5 0.8 6.6 0.8 2.6 0 2.7-0.2 2.7-5 0-2.7 0.2-5.7 0.5-6.5 0.4-1.1 2.1-1.5 6.5-1.5 5.9 0 6 0.1 9.3 4.4 1.7 2.4 3.7 5.2 4.3 6.2 1.1 1.7 1.3 1.6 3-1.8 1.7-3.3 1.7-3.9 0.4-5.4-0.8-0.9-3.4-2.5-5.7-3.5l-4.3-1.9 0.5-13.5h13.7c2.9 8.8 4 10.2 6 11 2.2 0.8 3.2 0.7 4.4-0.5 1-0.9 1.3-2.4 1-3.7-0.4-1.3-2.5-3.4-5.1-4.8l-4.5-2.5v-13c12.6 0 13-0.1 12.9-2.2 0-1.3-0.6-3.8-1.2-5.6-0.7-1.8-2.8-4.8-4.7-6.8-1.9-1.9-4.1-3.5-4.7-3.4-0.9 0-1.2-1.4-1-4.2 0.2-4.3 0.3-4.3 4.9-5.3 2.6-0.6 4.9-0.8 5.2-0.5 0.3 0.3 1.2 2.8 1.9 5.5l1.4 5c6.8-0.4 8.9-0.6 9.1-0.8 0.1-0.1 0.6-2.3 1-4.9l0.7-4.6-12.5-2.7v-13.5h14.5c-1.2-5-2-8.1-2.5-10-0.6-2.2-1.8-4-3.4-4.7-1.5-0.7-3.3-2.9-4.1-4.8-0.8-1.9-1.5-4.2-1.5-5 0-0.8 1.2-1.8 2.8-2.1 1.5-0.3 3.6-0.9 4.7-1.4 1.8-0.7 2.2-0.2 3.8 5.6l1.7 6.4c7.4-1 9.6-1.3 9.7-1.4 0.1-0.1 0.5-2.1 0.9-4.6l0.6-4.5-11.7-3-0.5-12.5c9.7 0 13 0.4 13.5 0.8 0.6 0.4 2.1 2.9 3.5 5.5 1.4 2.6 3 4.8 3.5 4.8 0.6 0 1.6-0.6 2.3-1.3 0.7-0.7 1.3-2.9 1.5-4.8 0.2-3.4 0-3.5-4.8-5.1l-5-1.6c-0.5-14.1-0.6-14.3-3.2-14.9-1.6-0.3-3.6-0.8-4.5-1-1.4-0.3-1.8-1.4-1.8-4.4q0-4 1.5-4.5c0.8-0.3 2.2-0.5 3-0.5 0.9 0 2 1.7 2.8 4.1 0.7 2.5 2 4.5 3.2 4.9 1.1 0.4 4.4 1 7.3 1.4 2.8 0.3 5.2 0.3 5.2-0.1 0-0.5-0.7-3.3-1.5-6.3-1.1-4-2.5-6.3-5.1-8.5-2.3-2-3.7-4.2-4.2-6.8l-0.7-3.7c10.4 0 11.6 0.3 11.9 1.8 0.3 0.9 0.7 3.2 1 5 0.6 3.2 0.7 3.2 6.1 3.2h5.5l-0.5-10.4c-6.5-1.6-8.9-2.5-9.4-3.1-0.5-0.5-1.1-3.5-1.2-6.5l-0.3-5.5 12.4-0.5c1.5 5 2 7.6 2.2 9 0.2 1.4 0.9 2.5 1.6 2.5 0.6 0 2.7-0.1 4.5-0.2 3-0.3 3.2-0.5 3.9-5 0.6-3.4 0.4-5-0.5-5.5-0.6-0.4-3.3-0.9-5.9-1.3l-4.8-0.5v-15c-4.6-0.8-7.3-1.2-9-1.5-1.6-0.3-3-0.9-3-1.5 0-0.5 0.7-2.6 1.5-4.5 1.2-2.9 2-3.5 4.5-3.5 2.7 0 3.1 0.5 4.2 4.3 0.6 2.3 1.4 4.5 1.7 4.9 0.3 0.3 3.7 1 7.5 1.5l6.8 0.8c-1.1-7.7-1.8-10.7-2.2-11.5-0.4-0.8-2.5-1.8-4.6-2.2-2.2-0.4-4.5-1.3-5.1-2-0.7-0.7-1.6-3.9-2-7.1l-0.8-5.7c13.8 0 14.5 0.2 14.5 2 0 1.1 0.5 4 1 6.5 0.9 4.2 1.2 4.5 3.8 3.9 1.5-0.3 3.7-0.7 5-1 1.7-0.3 2.1-0.9 1.6-2.6-0.4-1.3-1.6-3.3-2.8-4.5-1.1-1.3-3.1-2.5-4.3-2.8-1.9-0.4-2.7-1.9-4.3-7.5-1.8-6.4-2.2-7-5-7.5-1.6-0.3-4.3-0.7-6-1-2.1-0.4-3.1-1.2-3.4-2.7-0.2-1.3-0.8-4.1-1.3-6.3-0.7-3.4-1.5-4.4-5.8-6.7-4.7-2.5-5-3-5.5-7.2l-0.5-4.6h12l2.5 10.5c9.7 1.1 12.6 1.4 12.6 1.2 0.1-0.1-0.2-2.8-0.7-5.9l-0.9-5.8c-8.1-1.1-11.1-2-11.7-2.7-0.7-0.7-1.3-2.4-1.3-3.8 0-1.4-0.6-4-1.3-5.7-1.1-2.8-2-3.4-5.8-4.1l-4.4-0.7c-1.3-10.5-2-12.2-3.5-13-1.1-0.5-3-1-4.2-1-1.3 0-3.2-0.6-4.3-1.4-1.5-1.1-2-2.6-2-6.3 0-4.8 0-4.8 3.5-5.1 1.9-0.2 4.3 0.3 5.3 1 1 0.7 2.4 3.6 3.1 6.3l1.3 5c9.4 2.3 12.5 3.4 13 3.8 0.4 0.5 1 3 1.3 5.5 0.3 2.6 0.8 4.6 1.3 4.5 0.4-0.2 2.5-0.3 4.7-0.3 3.9 0 4-0.1 4-3.5 0-2.2-0.8-4.3-2-5.5-1.1-1.1-3.5-2.2-5.2-2.5-2.2-0.4-3.5-1.3-4-2.8-0.4-1.2-0.8-3.5-0.7-5.2 0-1.6-0.6-3.5-1.3-4.1-0.7-0.6-3.7-1.6-6.5-2.3l-5.3-1.1v-13c13 0 13 0 13.9 3.3 0.6 1.7 1.1 4.3 1.3 5.7 0.3 2.3 0.6 2.5 4.8 2.1 2.5-0.1 4.6-0.4 4.7-0.5 0.1 0 0.3-2.3 0.5-5.1l0.3-5-11.4-2c-2.4-10.1-3.5-13.1-3.9-13.3-0.4-0.1-2.2-1.1-3.9-2.2-1.8-1.1-4-3.6-4.8-5.5-0.8-1.9-1.5-4.2-1.5-5 0-1.2 1.4-1.5 6.5-1.5h6.5l2.6 11.5c11.9 2.9 12.5 3.3 13.4 6.3 0.6 1.7 2.4 4.1 4 5.2 1.7 1.1 3.9 2 5 2 1.1 0 2-0.2 2-0.5 0-0.3-0.7-2.1-1.5-4-1.1-2.5-2.5-3.9-5-4.7-3.1-1.2-3.6-2-5.5-8-1.1-3.8-2.6-7-3.2-7.2-0.7-0.2-3.4-0.7-6-1l-4.8-0.6v-14c12.6 0 14 0.3 14 1.5 0 0.8 0.5 3.6 1 6.3 1 4.7 1.1 4.7 5.8 5.4 2.6 0.4 5.5 1.5 6.5 2.5 1 1 2.6 3.7 3.5 6.1 1.6 3.9 2 4.3 5.2 4.2 3.4 0 3.5-0.1 4.2-4.7 0.3-2.7 0.4-5 0.1-5.3-0.3-0.3-3.1-1-6.2-1.5l-5.6-1.1c-1.1-8.4-1.6-11-1.7-11.2-0.2-0.1-2.8-0.8-5.8-1.5l-5.5-1.2-0.5-12.5h13c1.8 8.1 2.8 10.8 3.4 11.2 0.6 0.4 3.4 0.9 6.1 1.3 4.5 0.5 5.1 0.9 6.2 3.8 0.7 1.7 2.2 4.2 3.5 5.4 1.3 1.3 3.8 2.7 5.6 3.3l3.2 1v-11c-8.7-1.9-11.5-2.9-11.9-3.5-0.4-0.5-1.3-3-2-5.5-0.7-2.5-1.8-5.1-2.5-5.8-0.6-0.6-3.2-1.4-5.8-1.7l-4.8-0.5-0.5-14.5-12.5-0.5c-1.3-10.4-2-12.5-3.2-13.1-1-0.5-3.9-0.9-6.5-0.9-4 0.1-5-0.3-6-2.2-0.7-1.3-1.9-4-2.8-6-0.9-2.2-2.5-4.2-4-4.8-1.4-0.5-3.6-1-5-1-2.3 0-2.6-0.6-3.8-6.2l-1.3-6.3c-9.2-1.9-12.1-2.7-12.4-3.1-0.3-0.3-1.2-2.5-2-4.7-1.2-3.2-2.2-4.3-4-4.5-1.4-0.2-3.5-0.1-4.7 0.2-1.9 0.5-2.3 1.3-2.3 4.4 0 3.6 0.1 3.7 4.2 4.5 2.4 0.5 5.1 1.3 6.1 1.8 1.3 0.7 1.7 2.2 1.7 6.9v6c-7.1 0.1-9.1-0.5-10.2-1.7-0.9-1-2.3-3.5-3.2-5.5-1.1-2.7-2.4-4-4.3-4.4-1.6-0.3-4.5-1-6.5-1.5-3.4-0.8-3.9-1.4-5.3-5.9-0.8-2.7-2.1-5.3-2.7-5.6-0.7-0.3-2.6-0.2-4.3 0.3-2.2 0.7-3.2 1.8-3.6 3.9-0.4 1.6-0.3 3.6 0.2 4.4 0.4 0.8 3 2 5.6 2.5l4.8 1 0.6 13c-5.9-1.1-8.2-1.5-8.8-1.5-0.7 0-2.2-2-3.3-4.5-1.4-3.1-3-4.9-5.2-5.9-1.8-0.8-5-1.7-7-2-3.8-0.6-3.8-0.6-4.3-6.1l-0.5-5.5c-6.6 0-9.1 0.4-9.8 0.8-0.8 0.4-1.2 2.3-1 5.2l0.3 4.4 10 2.1c0.6 11.2 0.5 11.9-0.9 11.3-0.9-0.5-3.3-0.8-5.3-0.8-3.7 0-3.9-0.2-5.8-5.2-1.6-4.2-2.6-5.4-4.5-5.6-1.4-0.1-4.3-0.4-6.5-0.7-3.9-0.5-4.1-0.7-5.6-6-0.9-3-1.8-5.4-2-5.4-0.2 0.1-1.3 0.3-2.4 0.6zm-22.1 27.8c-0.6-2.4-0.5-2.6 2.2-1.9 1.6 0.4 4 1 5.3 1.3 1.3 0.3 2.6 1.1 2.8 1.6 0.2 0.6-0.5 2.2-1.7 3.8-1.1 1.5-2.7 2.7-3.5 2.7-0.8 0-2.2-1.1-3-2.5-0.8-1.4-1.8-3.6-2.1-5zm115-0.7c-0.5-1.6 0.2-1.8 13.6-1.8v4.3c0 2.3 0.3 5.7 0.7 7.5 0.6 2.5 1.3 3.2 3.1 3.2 1.2 0 3.8 0.7 5.7 1.5 2.9 1.2 3.6 2.1 4.1 5.3 0.3 2 0.6 4.4 0.7 5.2q0.2 1.5 4.2 1.8c2.2 0.1 5 0.5 6.3 0.7 1.7 0.4 2.3 1.4 2.7 4.3 0.3 2 0.8 4.9 1 6.5 0.5 2.6 0.4 2.7-9.5 2.7l-1.9-5.2c-1.1-2.9-2.2-6.3-2.5-7.5-0.5-1.9-1.5-2.4-5.3-2.9-2.7-0.3-5.4-0.8-6-1-0.7-0.2-1.5-2.6-1.8-5.4-0.5-4.6-0.8-5.1-4-6.5-1.9-0.8-4.8-1.5-6.5-1.5-2.8 0-3-0.3-3.6-4.7-0.3-2.7-0.8-5.6-1-6.5zm-28.4-0.3c0-0.3 0.2-0.5 0.5-0.5 0.3 0 2.8 0.5 5.6 1.1 5 1 5.1 1.2 5 4.5-0.1 3.2-0.3 3.4-3.6 3.4-3.1 0-3.7-0.5-5.5-4-1.1-2.2-2-4.2-2-4.5zm-115.5 29.1c-0.3-1.5 0.1-1.7 1.3-1.1 1 0.4 2.5 0.9 3.5 1.1 1.3 0.3 1.7 1.4 1.7 4.4 0 3.6-0.2 4-2.5 4-2 0-2.6-0.6-3.1-3.2-0.3-1.8-0.7-4.2-0.9-5.2zm150.6 4.8c0.1-2.7 0.5-3.5 1.7-3.2 0.9 0.2 1.8 1.7 2.2 3.5 0.4 2.9 0.2 3.3-1.7 3.3-2 0-2.3-0.5-2.2-3.6zm9.9 10.6h4.5c3.4 0 4.6 0.4 4.9 1.8 0.3 0.9 0.7 3.4 1 5.5 0.6 3.6 0.5 3.7-2.4 3.7-1.6 0-4.1-0.6-5.5-1.2-2.1-1.1-2.6-2-2.5-5.5zm-11.1 15.9c0.6-1.1 2.2-1.9 3.7-1.9 2.3 0 2.5 0.3 2.7 5.5 0.1 3-0.1 5.5-0.3 5.4-0.3 0-2-0.9-3.8-2-1.8-1.1-3.3-2.7-3.3-3.5-0.1-0.9 0.4-2.5 1-3.5zm-3.9 32.1c0-4.7 0.1-5 2.2-4.6 1.3 0.2 3.3 0.4 4.5 0.5 1.3 0 2.7 0.8 3.1 1.8 0.5 1 1.2 3.4 1.5 5.5 0.6 3.5 0.5 3.8-1.8 3.8-1.4 0-2.8-0.5-3-1-0.3-0.6-1.9-1-3.5-1-3 0-3-0.2-3-5zm-8 14.5c0-1.9 0.5-2.5 2-2.5 1.4 0 2 0.6 2 2.5 0 1.8-0.6 2.5-2 2.5-1.5 0-2-0.7-2-2.5zm-137.7 38.2c-0.6-2.6-0.5-2.7 1.7-1.8 1.4 0.6 3 2.2 3.7 3.6 0.7 1.3 1.3 3.8 1.3 5.5 0 2.5-0.4 3-2.5 3-2.2 0-2.6-0.6-3.1-3.8-0.3-2.1-0.8-5-1.1-6.5zm147.7 2.2c0.8-0.5 3.2-0.9 5.2-0.9 3.8 0 3.8 0 4.3 4.7 0.3 2.6 0.4 4.9 0.3 5-0.2 0.2-2.3 0-4.8-0.5-3.9-0.7-4.6-1.2-5.5-4.1-0.8-2.6-0.7-3.5 0.5-4.2zm-147.7 29.3c-0.4-3-0.2-5.2 0.3-5.2 0.5 0 2.7 1 4.9 2.2 3.2 1.9 4 2.9 4.2 5.5 0.3 3 0 3.3-3.5 3.8-2 0.4-4.1 0.2-4.5-0.2-0.4-0.5-1-3.2-1.4-6.1zm164.7 10.9c2.5-0.5 5-1 5.7-1 0.9-0.1 1.3 1.8 1.3 12.9h-3c-1.7 0-4.2-0.7-5.5-1.5-1.9-1.2-2.6-2.5-2.8-5.5-0.2-3.9-0.1-3.9 4.3-4.9zm-164.7 47.1c-0.5-4.2-0.4-5.3 0.8-5.3 0.7 0 2.9 1 4.9 2.3 2.4 1.6 3.6 3.2 3.8 5.3 0.3 2.7 0 3-3.5 3.7-2.1 0.4-4.2 0.4-4.6 0-0.4-0.4-1-3.1-1.4-6zm0.2 26.6c-0.3-2.7-0.1-3 1.3-2.4 0.9 0.4 2.5 1 3.4 1.2 1.4 0.3 1.8 1.4 1.8 5.3 0 4.7-0.2 5-2.5 5-2 0-2.6-0.6-3-3-0.3-1.6-0.7-4.4-1-6.1zm1.5 33.6c0-1.3 0.4-2.5 1-2.5 0.5 0 1.4 0.9 2 2 0.5 1.2 1 2.3 1 2.5 0 0.3-0.9 0.5-2 0.5-1.5 0-2-0.6-2-2.5zm122.6-0.7c0.5-0.9 1.1-0.7 2 0.7 0.8 1.2 1.4 2.9 1.4 4 0 1.8-0.2 1.7-2-0.7-1.1-1.5-1.7-3.3-1.4-4zm-15.2 40.5c1.6-0.5 3.3-0.8 3.8-0.5 0.6 0.2 0.9 2.6 0.9 5.3-0.1 3.2-0.6 5-1.4 5-0.7 0-2.2-0.7-3.5-1.5-1.3-0.9-2.3-2.7-2.4-4.5-0.2-2.4 0.3-3 2.6-3.8zm-16.7 42.5c0.4-1.3 1.1-1.7 2.6-1.2 1.2 0.4 2.5 1 2.8 1.3 0.4 0.4 1 2.8 1.3 5.4 0.5 4.3 0.4 4.7-1.4 4.7-1.1 0-3.2-0.4-4.5-1-2.2-0.8-2.4-1.4-2-4.2 0.4-1.8 0.9-4.1 1.2-5zm-90.6 5.2c0-2.6 0.4-3 2.2-2.8 1.5 0.3 2.2 1.1 2.4 3.1 0.2 2.3-0.1 2.7-2.2 2.7-2.2 0-2.5-0.4-2.4-3zm79.4 10.8c1.1-0.3 2.3-0.6 2.7-0.6 0.4-0.1 0.8 1.9 0.8 4.3 0 3.7-0.4 4.5-1.8 4.5-0.9 0-2.7-0.2-4-0.5q-2.2-0.4-2.3-2.7c0-1.2 0.6-2.8 1.3-3.4 0.7-0.6 2.2-1.4 3.3-1.6zm-17.8 12.9c1.5-0.2 3.1-0.4 3.5-0.5 0.4-0.1 1.5 1.5 2.3 3.6 0.8 2.1 1.5 4.5 1.5 5.5 0 1.3-0.9 1.7-3.5 1.7-3.1 0-3.7-0.4-5-3.5-0.9-1.9-1.5-4.1-1.5-5 0-0.8 1.1-1.6 2.7-1.8zm-32.2 1c0.4-0.3 2.6-0.7 4.9-0.7 4 0 4.1 0.1 5.1 4.6 0.5 2.5 0.8 4.7 0.6 5-0.3 0.2-1.5 0.4-2.8 0.4-1.3 0-2.3-0.4-2.3-1 0-0.5-1.4-1-3-1-2.7 0-3-0.3-3.2-3.3-0.1-1.8 0.2-3.6 0.7-4zm131.3-431.9c-2.2 2.3-2.4 3.1-1.5 5 1 1.9 2 2.3 5.4 2.3l4.3-0.1c-0.9-5.8-1.7-8-2.4-8.7-0.6-0.8-1.6-1.3-2.2-1.3-0.6 0-2.2 1.3-3.6 2.8zm116.6-0.9c-1.1 1.1-1.7 3-1.6 5 0.2 3 0.3 3.1 4.7 3.1h4.5c-1.7-6.5-2.7-8.8-3.3-9.2-0.7-0.4-1.5-0.7-1.8-0.7-0.4 0-1.5 0.8-2.5 1.8zm27.7 0.6c-2.6 2.1-2.9 2.8-1.9 4.1 0.7 0.9 3.1 2 5.3 2.6 3.8 0.9 4.1 1.3 6.5 7.6 1.3 3.7 3 7.3 3.7 8 0.7 0.7 3.3 1.2 5.8 1.2h4.5v14.5c-5.1-1.1-7.8-1.5-9.3-1.5-2.4 0-2.8-0.4-3.3-3.7-0.3-2.1-0.7-5-1-6.5-0.4-2.7-0.6-2.7-7.2-2.7h-6.7l-3.1-12.6c-6.9 0.4-9 0.7-9.1 0.8-0.1 0.1-0.3 2.5-0.5 5.2l-0.3 5c5.4 0.5 8 0.8 9.2 1.1 2.1 0.4 2.3 1 2.3 7.4v7c-4.3-0.8-6.8-1.6-8.4-2.2-1.6-0.7-3.5-2.5-4.3-4-0.7-1.5-1.3-3.4-1.3-4.3 0-1-1.8-1.8-5.8-2.5-3.1-0.6-6.2-1.2-6.7-1.3-0.6-0.2-1.7-3-2.6-6.2l-1.5-6c-6.1 0.3-8.2 0.8-8.6 1.2-0.4 0.5-0.8 2.9-1 5.3l-0.3 4.5c7.7 0.5 10.6 1.2 11.3 1.9 0.7 0.6 1.2 3.2 1.2 5.6 0 2.5 0.3 5.1 0.7 5.7 0.4 0.7 3 1.7 5.8 2.3 3.8 0.8 5.1 1.6 5.7 3.3 0.4 1.2 0.8 4.2 0.8 6.5v4.2c-8.1 0-9.3-0.4-10.5-2.2-0.7-1.2-1.7-4.1-2.1-6.3-0.4-2.2-1.2-4.3-1.8-4.7-0.6-0.4-3.9-0.7-7.4-0.7l-6.2-0.1c-0.1-5-0.5-7.4-1-8.5-0.4-1.1-3.6-3.3-7.1-5-6.4-2.9-6.4-3-7.4-8.3l-1-5.4c-6.2 1-8.3 1.5-8.5 1.8-0.3 0.4-0.8 2.7-1 5.1-0.3 2.5-0.3 4.7 0 4.9 0.2 0.3 2.5 0.5 5 0.5 2.4 0 5 0.3 5.6 0.7 0.5 0.4 1.7 3.6 2.5 7l1.4 6.2c7.3 1.6 9.8 2.6 10.2 3.3 0.4 0.7 1.2 3.5 1.8 6.2 0.9 4.8 1.1 5 5.5 6.1 2.4 0.6 5 1.4 5.7 1.8 0.7 0.3 1.8 3 2.5 5.8 0.7 2.8 1.7 5.3 2.3 5.4 0.5 0.2 3.4 0.8 6.5 1.4l5.5 1.1c1.1 7.3 2 10 2.7 10.7 0.7 0.8 3.5 1.8 6.3 2.3 2.7 0.6 5.1 1.1 5.2 1.2 0.2 0.2 0.9 2.9 1.5 6.2l1.3 6c10.7 2.5 11.1 2.8 13.2 7.6l2.3 4.9h10c-1-6.5-1.8-8.8-2.4-9.2-0.6-0.3-3.3-0.9-5.9-1.2l-4.7-0.6c0-12.5 0.3-14 1.5-14 0.8 0 3.2 0.9 5.2 1.9 2.1 1 5 3.4 6.6 5.3 1.5 1.8 3.3 4.1 4 4.9 0.6 0.9 3.2 1.9 5.7 2.3 4.5 0.7 4.5 0.7 5.7 6.2 1 4.3 1.8 5.7 3.8 6.4 1.3 0.6 4.3 1 6.5 1 2.2 0 4-0.1 4-0.2 0-0.1-0.7-2.7-1.6-5.8-0.9-3-2.2-5.8-2.8-6.1-0.6-0.4-3-1-5.4-1.3l-4.2-0.6c0-11 0.4-14 1-14 0.5 0 2.2 0.5 3.7 1.1 1.5 0.6 4 2.3 5.5 3.8 1.6 1.4 3.2 3.8 3.8 5.1 0.8 2.1 2.2 2.8 7.2 4l6.3 1.5 3 11.5c6.2-0.9 8.3-1.5 8.6-1.8 0.3-0.4 0.9-2.6 1.2-4.9 0.5-3 0.3-4.4-0.6-4.6-0.7-0.3-3.4-0.7-6-1l-4.7-0.7v-14c13.9 0 14 0.1 14 2.8 0 1.5 0.4 4.4 1 6.5l1 3.7h11v-11c-8.9-1.8-11.8-2.5-12-2.7-0.3-0.2-0.8-3.4-1-7.1l-0.5-6.6c-8.1-1.6-10.9-2.5-11.4-3.1-0.5-0.5-1.2-3.3-1.5-6.2l-0.6-5.3h14c0 5.1 0.2 7.9 0.5 9.5 0.5 2.8 1.1 3.2 6.7 4.5l6.2 1.5c3 11.6 3.1 11.7 6.1 11.1 1.6-0.3 3.5-0.6 4.2-0.6 0.9 0 1.2-1.3 1-4.1-0.2-4-0.4-4.2-5.5-6.2l-5.2-2.2-1-11.5c-9.6-1.9-12.4-2.9-12.6-3.5-0.1-0.5-0.7-2.9-1.3-5.2-0.8-3.1-1.9-4.6-4.1-5.8-1.7-0.8-4-1.4-5.3-1.4-1.2 0-2.8-0.6-3.5-1.3-0.7-0.7-1.2-2.8-1.2-4.8 0-2.1-0.7-4.1-1.7-5.1-1-1-4-2.3-6.7-3-4.3-1.1-4.9-1.6-5.6-4.8-0.5-2-1.1-4.8-1.4-6.3-0.6-2.6-0.9-2.8-6.1-2.8-3.8 0-5.5 0.4-5.5 1.3 0 0.7 0.5 3.3 1.1 5.7 0.5 2.5 1.5 4.9 2.2 5.3 0.6 0.4 3.1 0.7 5.4 0.7h4.3v14c-8.9-0.9-11.6-1.3-11.8-1.3-0.1-0.1-0.6-3-1.2-6.4l-1-6.3c-13.9 0-14 0-14.6-2.7-0.3-1.5-1-4.4-1.5-6.5-0.7-2.9-1.4-3.8-3.2-3.8-1.2 0-3.9-0.4-6-1-3.1-0.8-4.1-1.7-5.6-5.2-1-2.3-2.5-4.8-3.3-5.5-1.3-1.1-2.1-0.9-4.7 1.2zm-3.6 39.5l5 0.6c2.7 0.4 5.2 0.9 5.5 1.2 0.2 0.2 0.7 2.7 1 5.4 0.4 3.9 0.2 4.9-1 4.8-0.9 0-3.1-0.5-5-1-3.2-1-3.6-1.6-4.5-6.1zm28.9 1.8c-0.4-1.7 0.1-1.8 4.8-1.2 2.9 0.4 5.3 0.8 5.4 0.9 0 0.1 0.4 2.3 1.4 9.6h-10l-0.6-3.7c-0.3-2.1-0.7-4.6-1-5.6zm28.9 0.1c-0.5-1.6 0.2-1.8 11.7-1.8v6c0 5.8-0.1 6-2.5 6-1.4 0-3.7-0.5-5-1.2-1.6-0.8-2.8-2.4-3.1-4.3-0.3-1.6-0.8-3.8-1.1-4.7zm-72.7 14c-0.4-1.5-0.3-2.8 0.1-2.8 0.4 0.1 3 0.6 5.7 1.3 2.6 0.7 5.2 1.9 5.6 2.7 0.5 0.8 1.4 3.5 2.2 5.9 1.2 4.1 1.7 4.6 5.8 5.7 2.4 0.7 5 1.9 5.7 2.6 0.6 0.7 1.5 3.2 2.8 9.9h-6c-6 0-6-0.1-6.8-3.3-0.4-1.8-0.7-4.5-0.7-6 0-1.9-0.7-3.1-2.3-3.7-1.2-0.5-3.8-1.5-5.7-2.2-2.2-0.9-3.8-2.4-4.6-4.4-0.6-1.6-1.5-4.2-1.8-5.7zm30.4 0.2h10l0.5 5.3c0.3 2.9 0.4 5.3 0.3 5.5-0.2 0.1-1.6-0.2-3.1-0.8-1.5-0.5-3.9-1-5.2-1-2.3 0-2.5-0.3-2.5-4.5zm31.5 1.6c0.9-0.9 2.9-1.6 4.5-1.6 2.8 0 3 0.2 3 4.5 0 4.4 0.1 4.6 4.5 6.5 2.4 1.1 5.5 2.3 6.7 2.5 1.3 0.3 2.6 1.6 3 2.8 0.4 1.2 0.8 3.7 0.8 5.5 0 3.2-0.1 3.2-4.3 3-4-0.3-4.4-0.6-7.8-6.3-2.5-4.2-4.9-6.7-7.8-8.2-3-1.7-4.1-2.9-4.2-4.7 0-1.3 0.7-3.1 1.6-4zm-16.5 12.4h4.2c4.1 0 4.3 0.1 5 3.8 0.4 2 0.8 4.5 0.8 5.5 0 1.2-0.8 1.7-2.5 1.7-1.4 0-3.7-0.5-5.1-1.2-2.1-1.1-2.5-2-2.5-5.5zm1.8-69.3c-2.2 2.4-2.4 3.1-1.4 5.1 0.9 1.8 2 2.2 5.4 2.2h4.2c-0.8-5.8-1.8-8.1-2.8-8.8-0.9-0.7-1.9-1.3-2.2-1.2-0.3 0-1.7 1.2-3.2 2.7zm29.7-1.1c-0.4 0.4-0.7 2.2-0.6 4 0.1 1.9 0.5 3.6 0.9 3.8 0.4 0.2 1.3 0.1 1.9-0.2 0.6-0.4 1.3-2.4 1.5-4.5 0.4-2.9 0.1-3.7-1.2-3.7-0.9 0-2 0.3-2.5 0.6zm-346.5 3.9c0 1.9 0.5 3.7 1 4 0.6 0.2 2.2 0.2 3.5 0 1.4-0.3 2.5-1.2 2.5-2 0-0.9-0.9-2.4-2-3.5-1.1-1.1-2.6-2-3.5-2-1 0-1.5 1-1.5 3.5zm173.2-1.1c-0.6 1.4-1.2 3.2-1.2 4.1 0 1.1 0.9 1.3 3.8 0.9 2.1-0.3 3.9-0.7 4.1-0.8 0.1-0.1-0.1-1.5-0.6-3.1-0.6-1.9-1.7-3.1-2.9-3.3q-2-0.3-3.2 2.2zm28.8 1.6c0 2.2 0.5 4 1 4 0.6 0 2.2-0.5 3.5-1 1.8-0.7 2.4-1.5 1.9-2.8-0.3-0.9-1.4-2.3-2.2-3-0.9-0.7-2.2-1.3-2.9-1.2-0.8 0-1.3 1.4-1.3 4zm29-2.1c-0.6 1.1-1.1 2.9-1 4 0 1.6 0.5 2 2.3 1.6 1.2-0.3 2.8-0.5 3.5-0.5 0.7 0 1.2-1 1.3-2.3 0-1.2-0.6-2.8-1.3-3.5-0.7-0.7-1.8-1.3-2.5-1.2-0.7 0-1.7 0.8-2.3 1.9zm-73.4 9.8c-1.8 0.4-2 1.1-1.8 5.8l0.2 5.5c7.4 0 10.1 0.3 10.7 0.7 0.7 0.4 1.7 3.7 2.3 7.3 0.6 3.5 1.3 6.8 1.6 7.2 0.2 0.4 2.4 0.8 4.7 0.8 2.3 0 4.7 0.3 5.4 0.7 0.6 0.4 1.4 2.7 1.7 5 0.5 3.1 1.4 4.9 3.4 6.3 1.8 1.3 4.2 2 7 2h4.2c0.9 9.8 1.5 11.3 3.3 12.4 1.2 0.8 4 1.9 6.2 2.4 3.9 1 4.1 1.3 5.3 6.6 1 4.5 1.7 5.7 3.5 6 1.2 0.3 4 0.8 6.1 1.3 3.6 0.7 4 1.2 6 6.8l2.1 6 9.5 0.5v-11c-7.3-1-10.1-1.6-11-2-0.8-0.4-2-3.5-2.7-6.9-1.1-5.5-1.5-6.2-4-6.6-1.5-0.2-4.3-0.7-6.3-1-3.2-0.6-3.5-0.9-4.3-5.3-0.4-2.6-1.5-5.7-2.2-7-0.9-1.3-2.5-2.2-4-2.2-1.3 0-3.6-0.5-5-1-1.5-0.6-2.5-1.8-2.5-3 0-1.1-0.6-3.6-1.5-5.5-1.3-3.2-2-3.6-7-4.5-3-0.6-5.6-1.6-5.9-2.3-0.2-0.7-0.7-3.3-1-5.7l-0.6-4.5c-11.1-2.8-12.2-3.4-12.6-5.5-0.3-1.4-1-4.2-1.5-6.3-0.8-3.4-1.1-3.7-4.1-3.6-1.8 0.1-4.2 0.3-5.2 0.6zm29.2-0.1c-1.2 0.4-1.8 1.8-2.1 5.2-0.3 2.6-0.3 5-0.1 5.4 0.3 0.4 2.5 0.8 4.9 0.8 2.5 0 5.2 0.2 6 0.5 0.9 0.3 1.5 1.7 1.5 3.2 0.1 1.5 0.5 4.3 1 6.3 0.9 3.2 1.5 3.6 7 5.2 5.1 1.5 6 2.1 6 4 0 1.3 0.5 3.7 1 5.5 0.8 2.6 1.8 3.5 4.8 4.3 2.1 0.5 4.9 1 6.2 1 2.3-0.1 2.6 0.4 3.3 6l0.7 6c7.4 2.4 10.2 3.5 11 3.9 0.9 0.5 2.1 3 2.8 5.7 0.7 2.7 1.5 5.1 1.8 5.4 0.4 0.2 3.1 0.7 6.1 1 5.2 0.5 5.4 0.6 6 4 0.3 1.9 0.9 4.8 1.2 6.5 0.7 2.8 1 3 6.5 3.2l5.6 0.3v-11l-12.5-2.7c-1.1-8.4-1.7-11.2-2.2-11.6-0.4-0.4-3.6-1.3-7-2l-6.3-1.2v-14.5h-13.5c-1.2-6.6-2-9.3-2.5-10.3-0.6-1.1-3.1-2.1-6.7-2.8l-5.8-1.1c-1.5-11.8-1.5-11.8-5.2-12.4-2.3-0.4-5-1.9-6.9-3.8-1.9-1.9-3.4-4.6-3.7-6.9-0.6-3.4-0.9-3.7-3.9-3.6-1.8 0.1-4 0.3-5 0.5zm170.8 3c-0.5 0.4-0.8 2.3-0.7 4.3l0.1 3.6c7.4-1.1 9.6-1.6 9.7-1.7 0.1-0.2 0.3-1.7 0.5-3.3 0.3-2.9 0.2-3-4.2-3.3-2.5-0.2-4.9 0-5.4 0.4zm14.4 17.9v4.5c10.3 0 11-0.3 10.5-1.8-0.3-0.9-0.9-3-1.3-4.5-0.6-2.5-1.1-2.8-4.9-2.7h-4.3zm15.6 10.7c-0.2 0.7-0.6 2.7-1 4.5-0.5 3-0.3 3.3 1.9 3.3 1.4 0 3.7-0.5 5-1 1.8-0.7 2.6-1.9 2.8-4 0.1-1.7-0.3-3.2-1-3.5-0.7-0.3-2.6-0.5-4.3-0.5-1.6 0-3.2 0.5-3.4 1.2zm15.4 17.8c0 2.6 0.4 3 3 3 1.7 0 3-0.4 3.1-0.8 0-0.4-0.7-1.7-1.5-3-0.9-1.2-2.2-2.2-3.1-2.2q-1.5 0-1.5 3zm-131 39.5c0 1.3 0.7 3.7 1.5 5.2 1 2 2 2.7 3.7 2.5 1.7-0.2 2.6-1.2 3.1-3.5 0.4-1.8 0.8-4 0.8-5-0.1-1.4-0.9-1.7-4.6-1.7-4.1 0-4.5 0.2-4.5 2.5zm-55.8 0.7c-1.2 1.2-2 2.9-1.7 3.8 0.4 1 1.7 1.4 4.1 1.2 3.2-0.2 3.4-0.4 3.2-3.5-0.2-2-0.9-3.3-1.8-3.5-0.9-0.2-2.6 0.7-3.8 2zm27.8 1.5c0.1 3.7 0.1 3.8 3.5 3.5 2.9-0.2 3.5-0.6 3.6-2.5 0-1.2-0.6-2.8-1.3-3.5-0.7-0.7-2.3-1.3-3.5-1.2-1.9 0-2.3 0.5-2.3 3.7zm146.2-2c-0.9 0.5-1.2 1.7-0.8 3.5 0.6 2.4 1 2.7 2.9 1.9 1.5-0.6 2.2-1.7 2.2-3.2 0-1.4-0.6-2.5-1.5-2.7-0.8-0.1-2.1 0.1-2.8 0.5zm-100.5 13.5c-1.5 1.1-1.6 1.8-0.7 4 0.6 1.5 1.3 2.8 1.5 2.8 0.3 0 1.4-0.5 2.5-1 1.1-0.6 2-1.8 2.1-2.8 0-0.9-0.6-2.3-1.3-3-0.7-0.7-1.5-1.3-1.8-1.2-0.3 0-1.3 0.5-2.3 1.2zm26.4 1.5c0 1.5 0.2 3.8 0.5 5 0.2 1.3 1.1 2.3 1.9 2.3 0.9 0 2.7-1.4 4-3 1.4-1.7 2.5-3.9 2.5-5 0-1.7-0.6-2-4.5-2-4.2 0-4.5 0.1-4.4 2.7zm28.9 0.8c0 1.9 0.3 4.1 0.5 5 0.3 0.8 1.1 1.5 1.8 1.5 0.7 0 2.4-1.1 3.7-2.6l2.5-2.6c-4.2-3.7-6.1-4.8-7-4.8-1 0-1.5 1-1.5 3.5zm-142.5-1.9c-0.4 0.4-0.7 1.4-0.7 2.3 0.1 0.9 0.7 2.1 1.4 2.8 1.1 1 1.6 0.7 2.6-1.2 0.7-1.4 1.2-3 1.2-3.5 0-0.6-0.8-1-1.8-1-1 0-2.2 0.3-2.7 0.6zm59 1.2c-1 1-1.7 2.1-1.6 2.5 0.1 0.4 1.3 0.7 2.6 0.7 2 0 2.5-0.5 2.5-2.5 0-1.4-0.3-2.5-0.8-2.5-0.5 0-1.7 0.8-2.7 1.8zm114.7-0.3c-1.4 0.9-2.4 2-2.3 2.5 0.1 0.5 1.5 1 3.1 1 2.6 0 3-0.4 3-2.5 0-1.4-0.3-2.5-0.7-2.5-0.4 0-1.8 0.7-3.1 1.5zm-187.9 15.2c-0.7 0.4-1.1 1.6-0.8 2.5 0.3 1 1.4 1.8 2.5 1.8 1.5 0 2-0.6 1.8-2.2-0.1-1.2-0.7-2.3-1.3-2.5-0.5-0.2-1.5 0-2.2 0.4zm-14.2 12.8c-1.5 1-2.3 2.5-2.2 4 0.1 2 0.7 2.5 3.1 2.5 2.3 0 3-0.5 2.9-1.8 0-0.9-0.4-2.8-0.8-4-0.6-2.2-0.8-2.2-3-0.7zm-215.5 14c-1.6 0.9-2.8 2.2-2.7 3 0.1 0.8 0.6 2.5 1 3.7 0.7 1.6 1.6 2.2 3.3 2 1.7-0.2 2.5-1.2 3.1-3.5 0.4-1.8 0.8-4 0.8-5-0.1-0.9-0.6-1.7-1.3-1.7-0.7 0-2.6 0.7-4.2 1.5zm215 16.2c-0.8 1.5-1.2 3.8-1 5 0.2 1.3 0.8 2.3 1.2 2.3 0.4 0 2-1 3.6-2.3 2.9-2.2 2.9-2.3 1.3-5-0.9-1.5-2.1-2.7-2.6-2.7-0.6 0-1.7 1.2-2.5 2.7zm-215.3 14c-0.6 0.4-1 1.8-0.7 3 0.3 1.8 1.1 2.3 3.4 2.3 2.7 0 3-0.4 3-3 0-2.5-0.4-3-2.2-3-1.2 0-2.8 0.3-3.5 0.7zm300.7 7.9c-1.9 1.3-2.4 2.3-2.2 5q0.2 3.4 2 3.8c1 0.2 3.4 0.7 5.5 1l3.7 0.6v13c-6.5 0-9.4-0.3-10.5-0.6-1.1-0.3-2.9-2.5-4.2-5.5-2.2-4.7-2.4-4.9-6.3-4.9-3.7 0-4 0.2-4 2.7 0 1.5 0.3 4.1 0.6 5.8 0.4 2.3 1.3 3.2 3.7 4 3 1 3.3 1.4 3.5 5.8 0.2 3-0.2 4.8-1 5.1-0.7 0.2-2.4 0.7-3.8 1-2.2 0.5-2.6 0.1-4-4.7l-1.5-5.2-13-2.1c-0.4 7.8-0.1 11.2 0.4 12.6 0.7 1.8 2.1 2.8 5.5 3.7 4.2 1.2 4.6 1.6 4.6 4.3 0 2.4-0.5 3.1-2.5 3.5-1.3 0.2-3.6 0.7-5 1-2.1 0.4-2.8-0.2-5-4-2.3-4.3-2.7-4.5-7-4.5h-4.5c0.5 10.2 0.6 10.3 4.5 11.6 3.8 1.3 4.1 1.6 5.3 7.1 0.6 3.2 1.1 5.8 1 5.9-0.2 0.1-3.2 0.3-6.7 0.5l-6.4 0.4c-2.1-8.5-2.6-9.1-5.2-9.3-1.6-0.2-3.9 0.3-5 1.1-1.9 1.4-1.9 1.5 1.5 4.6 2 1.8 4.6 3.4 5.8 3.6 1.2 0.3 2.4 1.3 2.7 2.2 0.2 1 0.6 3.5 1 5.5 0.3 2.2 1.5 4.5 2.8 5.5 1.3 1 3.8 2.3 5.5 3 3.1 1.2 3.2 1.4 2.6 5.5-0.3 2.4-0.9 4.6-1.2 4.9-0.4 0.4-2.8 1.2-5.4 1.8-4.7 1.1-4.8 1.1-5.3-1.7-0.4-1.5-1-3.9-1.4-5.2-0.5-1.6-1.8-2.8-3.7-3.3-1.6-0.4-3.4-0.5-4.1-0.2-0.8 0.3-1.2 2.1-1 4.7 0.2 4.2 0.4 4.3 5.2 5.9 4.3 1.5 5.2 2.2 5.9 5 0.4 1.9 1.9 4.8 3.2 6.6 1.4 1.8 3.8 3.9 5.4 4.8 2.5 1.2 3.2 2.4 4 6.2 0.5 2.6 0.7 5 0.4 5.3-0.3 0.2-3.5 0.5-7.1 0.5h-6.6c-2.1-8.6-2.5-9.1-5.4-9.3-3.1-0.2-3.3-0.1-3.3 3.3 0 3 0.5 3.7 3.5 5 2 0.8 4 2.5 4.5 3.7 0.5 1.3 1.5 4.3 2.2 6.7 1.2 3.9 1.9 4.6 5.3 5.7 3.9 1.3 4.1 1.6 5.5 7.8 1.4 5.8 1.4 6.6 0 7-0.8 0.2-3.4 0.7-5.7 1-3.8 0.5-4.2 0.8-3.8 2.8 0.3 1.3 0.5 3.3 0.5 4.5 0 1.7 1.2 2.8 4.8 4.5 2.6 1.2 4.9 2.2 5 2.3 0.1 0 0.6 3.1 1 6.9l0.7 6.9c7.8 2.5 8.1 3 8.8 7.4 0.5 2.6 0.7 4.8 0.5 4.9-0.1 0-2.2 0.4-4.5 0.7-4 0.6-4.3 0.5-4.8-2.1-0.3-1.5-1.1-4-1.7-5.5-1.1-2.4-1.8-2.8-5-2.8-3.4 0.1-3.8 0.4-4.4 3.3-0.3 1.8-0.3 4.1 0 5 0.4 1.2 2.2 2 5.6 2.5l5 0.8c1 8.5 1.7 12 2.2 13.2 0.6 1.7 1.9 2.4 4.8 2.8l4 0.5c0 9.3-0.3 10-2.2 10.5-1.2 0.4-3.6 0.5-5.3 0.3-2.5-0.3-3.2-1-5-5.6-1.8-4.9-2.2-5.3-5.2-5.3-2.9 0.1-3.3 0.4-3.3 3.1 0 1.6 0.5 3.9 1 5 0.6 1.1 2.7 2.4 4.8 3 3.1 0.9 4 1.7 4.9 4.8 0.7 2 3.6 7.3 6.4 11.7 2.9 4.4 5.6 9 6.1 10.2 0.8 2.2 0.7 2.3-5.8 2l-6.6-0.2c-3.6-10-4-10.5-6.8-10.5-1.6 0-3.1 0.3-3.4 0.7-0.2 0.4-0.1 2.2 0.3 4 0.5 2.6 1.6 3.7 5.1 5.5 4.1 2.1 4.7 2.8 6.3 8.3 1.1 3.7 3 7.1 4.9 9 1.7 1.6 3.6 4.1 4.3 5.5 0.7 1.3 1.6 3.5 1.9 4.7 0.6 2.2 0.5 2.3-6 2l-6.6-0.2c-3.6-10-4-10.5-6.8-10.5-1.9 0-3.2 0.6-3.6 1.7-0.3 1-0.2 2.7 0.4 3.8 0.5 1.1 2.8 2.9 5 4 3.4 1.7 4.2 2.7 5.1 6.5 0.7 2.4 2.3 5.7 3.7 7.2 1.3 1.5 3.6 3.6 5 4.5 2.3 1.5 2.6 2.4 2.3 6.3l-0.4 4.5-11 0.6c-3.4-9.8-3.7-10.1-7-10.1-3.1 0-3.5 0.3-4.1 3.2-0.3 1.8-0.3 4.1 0 5 0.5 1.3 2.1 1.9 5.6 2.3l5 0.5c0.9 6.6 1.4 9.6 1.6 11 0.3 1.8 1.7 3.1 5.4 4.7 4.4 2 5 2.6 5 5.3 0 2.7-0.4 3.1-4.2 4-2.3 0.6-4.8 1.3-5.5 1.5-0.8 0.3-1.5-0.9-1.8-3.3-0.4-2-0.7-4.2-0.9-4.7-0.1-0.6-1.8-1.4-3.7-1.8-1.8-0.4-4.4-0.7-5.6-0.7-2.1 0-2.3 0.4-2.3 5.5v5.5c6.6 1.6 9.1 2.3 9.8 2.5 0.7 0.3 1.2 1.9 1.2 3.7 0 1.8 0.3 4.6 0.6 6.3 0.6 3 0.6 3-5.2 3.8-3.2 0.4-6.5 1.2-7.4 1.7-1.3 0.7-1.3 1.4 0 6.1 1.4 4.9 1.8 5.4 5.3 6.1 2.2 0.5 4.3 1.7 5.1 3 0.8 1.3 1.7 4.4 2 7l0.6 4.8h-14c-1.6-6.6-2.3-9.1-2.5-9.8-0.3-0.7-1.8-1.2-3.5-1.2-2.7 0-3 0.3-3 3.5 0 2.8 0.6 3.8 3.1 5.2 1.7 1 3.9 3.1 4.9 4.8 1 1.6 2.2 4.5 2.5 6.5 0.4 2.4 1.3 3.7 2.8 4.2 1.2 0.4 3.3 0.8 4.5 0.8 1.2 0 2.9 0.6 3.7 1.5 0.9 0.8 1.5 2.5 1.5 3.7 0.1 1.3 0.5 4 1 6 0.9 3.1 1.6 3.9 4 4.3 1.7 0.2 4.1 1.7 5.3 3.2 1.2 1.5 2.9 4.2 3.7 6 1.2 2.5 2.3 3.4 5 3.8 2 0.3 4.2 0.8 5 1 0.9 0.2 2.6 2.6 3.8 5.2 2 4.1 3.2 5.2 8.5 7.8 5.2 2.5 6.6 3.7 8.2 7.2 1.9 3.9 2.3 4.3 5.5 4 3.4-0.2 3.6-0.4 3.8-4.2 0.2-2.5-0.2-4.3-1-4.7-0.7-0.4-3.2-1-5.5-1.3l-4.3-0.5c0-9.7 0.2-12.8 0.5-13 0.3-0.3 3.2 0 6.5 0.7 3.3 0.7 6 1.7 6 2.3 0 0.5 1.5 2.4 3.3 4.1 1.8 1.7 5.3 4.1 7.7 5.4 4 1.9 4.7 2.8 5.8 6.8l1.2 4.7c8.4-0.5 8.5-0.6 8.8-4.3 0.1-2.3-0.2-3.9-1-4.2-0.7-0.2-3.2-0.9-5.5-1.5l-4.3-1v-14.5c7.4 1.2 10.4 2.1 11.5 2.8 1.1 0.8 2.6 3.2 3.3 5.5 0.7 2.3 1.8 4.4 2.5 4.6 0.7 0.2 3.2 0.7 5.5 1l4.2 0.6c0.1-5.8-0.3-9-0.7-10.7-0.6-2.8-1.4-3.4-5-4.3-3.7-0.9-4.2-1.3-3.8-3.3 0.3-1.2 0.5-3.5 0.5-5 0-2.5 0.3-2.7 3.8-2.5 3.5 0.3 3.8 0.5 5 5l1.2 4.8 14.5 2.1 2.1 10.4c6.1-0.5 8.5-1.1 9.3-1.8 0.7-0.7 1.1-2.1 1-3.1-0.2-1.1-1-2.3-1.9-2.8-0.8-0.5-3.1-1.5-5.2-2.3l-3.8-1.5v-13h13l2.6 11.5 9.4 0.5c0-6.5-0.6-8.7-1.7-9.9-1-1-3.7-2.1-6-2.5l-4.3-0.6c0-13.8 0.1-14 2.3-13.4 1.2 0.3 3.8 1.3 5.7 2.2 1.9 0.9 4.6 3.2 6 5 1.4 1.8 5.2 4.5 8.4 6 3.9 1.7 6.4 3.6 7.3 5.4 0.7 1.5 1.3 3.4 1.3 4.3 0 0.8 0.5 1.7 1 2 0.6 0.2 2.6 0.2 4.5 0 3.4-0.5 3.5-0.7 3.5-4.5 0-3.9-0.1-4.1-4.2-5.1-2.3-0.7-4.8-1.3-5.5-1.5-0.9-0.3-1.3-2.7-1.3-7.4v-7c5.1 1.3 7.8 2.5 9.4 3.6 1.6 1 3.7 3.2 4.7 4.9q1.8 3 6.6 4.7c2.7 1 5.8 2.8 7 4 1.2 1.3 2.4 3.4 2.8 4.8 0.5 1.3 1.3 3.1 1.9 3.8 0.6 0.7 2.8 1.2 4.9 1.2h3.7c-0.9-5.8-1.6-8.3-2.1-9.3-0.5-1-2.7-2.1-5.1-2.5l-4.3-0.8-0.5-13.9 11.5 1.6 3.7 11.4c9.2 1.1 12.2 1.6 12.6 1.9 0.4 0.2 1.1 2.9 1.5 6l0.7 5.6c12.4 2 12.6 2.1 14.2 6.2 1 2.4 2.5 4.9 3.3 5.8 1.4 1.2 2.1 1.3 4.1 0.2 1.7-0.8 2.5-2.1 2.5-4 0-2.3-0.7-3.1-5-5l-5.1-2.2v-12c7.4 0.9 9.7 1.7 9.9 2.3 0.3 0.7 2.3 3.1 4.5 5.3 3 3.1 5.3 4.5 8.4 5 4.1 0.8 4.4 1.1 6 6.2 1.7 5.2 1.8 5.3 5.2 5 3.1-0.3 3.6-0.7 3.9-3.3 0.1-1.7 0-4-0.3-5.3-0.4-1.6-1.3-2.2-3.1-2.2-1.3 0-3.1-0.3-4-0.5-0.9-0.3-1.5-1.8-1.4-3.8 0-1.8 0.3-4.3 0.7-5.6 0.6-1.9 1.3-2.2 4.6-2 3.8 0.4 4 0.6 5.3 5.1l1.3 4.8 15 2.5c2.5 10.4 2.6 10.5 6.3 10.5 3.3 0 3.8-0.4 4.4-2.8 0.3-1.5 0.2-3.8-0.3-5.2-0.6-1.9-1.9-2.6-5.1-3.2-4.2-0.8-4.3-0.8-3.7-4.6 0.3-2 0.8-4.5 1-5.5 0.3-1.3 1.3-1.7 4.6-1.5 4 0.3 4.2 0.4 5.5 5l1.3 4.8c13 2.1 15.1 2.9 15.1 4 0 0.8 0.4 3.2 0.9 5.2 1 3.6 1.3 3.8 5 3.8q4 0 4.5-1.5c0.3-0.9 0.6-2.5 0.6-3.8 0-1.2-0.6-2.7-1.3-3.4-0.7-0.6-2.8-1.6-4.8-2-3.4-0.9-3.5-1-3.7-6.6l-0.3-5.7c9.2-0.1 9.7 0.1 12.3 3.9 1.5 2.3 4.5 5 6.7 6.1 2.2 1.1 4.9 2 6 2 1.1 0 2.2 0.8 2.5 1.7 0.2 1 0.7 3.1 1 4.8 0.5 2.6 1.1 3.1 4.8 3.7 2.3 0.3 4.3 0.6 4.4 0.5 0-0.1 0.3-1.8 0.6-3.7 0.6-3.5 0.5-3.6-4.6-5.6l-5.2-2.1c-0.5-12.3-0.4-12.3 2.3-12.2 1.5 0 3.7 0.4 5 0.7 1.2 0.4 3.3 2.2 4.8 4.2 1.4 1.9 4.2 4.5 6.2 5.7 2.1 1.3 5 2.3 6.5 2.3 2.5 0 2.8 0.4 3.7 5 0.6 2.7 1.4 5.2 1.8 5.4 0.4 0.3 3 0.8 5.7 1.3 4.9 0.8 4.9 0.8 4.1-1.7-0.4-1.4-1.5-3.7-2.5-5-0.9-1.4-3.3-3.3-5.4-4.3-3.6-1.7-3.7-1.8-3.7-8v-6.2c5.8 1.1 8.1 1.5 8.8 1.5 0.7 0 1.8 1.9 2.4 4.2 0.7 2.4 1.4 4.6 1.8 5 0.3 0.4 3.4 1.3 7 2l6.4 1.3c2.8 10.7 3.6 12 5.6 12.5 1.4 0.4 3.9 1.4 5.5 2.2 1.7 0.8 4.7 3.4 6.8 5.7 2.5 2.7 4.6 4.1 6.2 4.1 2.3 0 2.5-0.4 2.5-4 0-2.3-0.5-4.2-1.2-4.5-0.7-0.2-3.2-0.9-5.5-1.5l-4.3-1v-14c5.1 1.6 8 2.9 9.8 4 1.8 1.1 3.2 2.3 3.2 2.7 0 0.4 1.3 2.1 2.8 3.8 1.9 2.2 4 3.3 7.2 3.8 4.5 0.7 4.6 0.7 6.2 6.4 1.5 5.2 2 5.8 5 6.5 1.8 0.5 4.6 0.8 6.1 0.8 2.7 0 2.8-0.2 3-5.9 0.1-3.3 0.5-6.1 0.7-6.4 0.3-0.2 3-0.1 5.9 0.2l5.4 0.6c3.6 9.5 4.2 10.1 7.5 10.7 2.1 0.4 5 0.8 6.5 0.8 2.7 0 2.7-0.1 2.7-6 0-3.3 0.5-6.3 1-6.5 0.6-0.3 3.7-0.9 6.9-1.3l5.9-0.7c0.9 4.6 1.4 7.7 1.7 9.7 0.4 3 0.9 3.7 2.3 3.3 1-0.2 3-0.7 4.5-1 2-0.4 2.7-1.1 2.8-2.8 0-1.2-0.7-3.2-1.5-4.5-0.9-1.2-2.7-2.7-4.1-3.2-2.2-0.9-2.5-1.6-2.5-7 0-4.9 0.3-5.9 1.5-5.5 0.9 0.2 2.8 0.5 4.3 0.5 2.2-0.1 3.2 0.8 5 4 1.9 3.4 3 4.2 7.7 5.5 3.1 0.8 5.9 1.5 6.3 1.5 0.4 0 0.4-2.4 0-5.3-0.4-2.9-1-6-1.5-7-0.4-1-2.7-2.2-5.3-2.8l-4.5-1c2-10 2.1-10.1 5.5-9.7 3.1 0.2 3.6 0.7 5 5 1.3 4 2 4.8 4.5 5.2 1.7 0.3 5.2 0.7 7.8 1l4.7 0.6c-2.4-5.8-4-8.8-5-10.3-1.1-1.5-2.9-3.2-4-3.7-1.6-0.9-2-2-2-7v-6c5.9-1 8.1-1.4 8.8-1.6 0.9-0.3 1.5 1.5 2 5.8l0.7 6.3 11.5 0.5c-0.9-6.6-1.9-9.1-2.8-9.8-0.9-0.7-3.4-1.8-5.4-2.5l-3.8-1.2v-13.5c8.2-0.1 11.2-0.5 12-1 1.3-0.8 1.2-1.6-1-5.8-1.6-3-3.8-5.4-6.1-6.7-3.4-1.9-3.8-2.5-4.4-7.5-0.4-3.1-0.4-6.1-0.1-6.8 0.4-0.8 2.8-1.2 6.6-1.2 3.4 0 6-0.5 6-1 0-0.6-0.4-2.9-1-5.3-0.9-3.9-1.4-4.4-6.2-6.1-2.9-1.1-5.6-2.4-6-3-0.4-0.6-0.7-2.8-0.7-4.9-0.1-2-0.4-4.5-0.9-5.5-0.5-0.9-2.7-2.5-5-3.5-4-1.7-4.2-1.9-4.2-6.2 0-4.2 0.3-4.6 3.3-5.5 1.8-0.6 4-1.1 5-1 1.2 0 1.9 1 2.3 3.7 0.3 2.1 0.8 4.6 1 5.5 0.4 1.4 1.5 1.8 5.9 1.8 4.8 0 5.5-0.3 5-1.8-0.3-0.9-0.8-2.9-1.1-4.2-0.4-1.9-1.7-3-5.6-4.5l-5.2-2c-2-10.1-3.2-13.3-3.8-13.7-0.7-0.4-2.9-1-5-1.3l-3.8-0.5v-12c11.6 0 12-0.2 12-2.3 0-1.2-0.9-3.8-2-5.7-1.1-2-3.5-4.5-5.2-5.7-2.5-1.7-3.6-3.4-4.5-7.3-0.7-2.7-1.3-5.7-1.3-6.5 0-1.2 1.4-1.5 6.5-1.5 5.6 0 6.5-0.3 6.5-1.8 0-0.9-1.1-3.5-2.3-5.7-1.3-2.2-3.6-4.9-5.1-6-2.3-1.7-2.8-3-3.4-8.8l-0.7-6.7c10.2 0 11.5-0.4 11.5-1.5 0-0.9-0.7-3.2-1.7-5.2-1-2-3.6-5.2-5.8-7-3.9-3.3-3.9-3.5-3.2-8.1 0.4-2.6 1.1-5 1.5-5.3 0.4-0.4 2.7-1 5-1.3l4.2-0.6c1 8.9 1.4 11.7 1.6 12 0.2 0.2 1.7 0.2 3.5 0 2-0.3 3.7-1.4 4.3-2.7 1-1.9 0.5-2.8-3.7-7.5-3.1-3.4-5.4-7.2-6.5-10.6-1.5-4.7-2.1-5.5-5.4-6.5-3.7-1.2-3.8-1.4-3.8-6 0-4.5 0.2-4.7 3.3-5.3 1.8-0.3 4-0.8 5-1 1.4-0.4 1.9 0.5 2.5 5.3l0.7 5.8c6.1 0.4 7.7 0 8-0.8 0.2-0.7 0.6-2.6 0.9-4.2 0.5-2.8 0.2-3.2-4.7-5.5l-5.2-2.5c-0.7-8.8-1.2-11.5-1.5-11.8-0.2-0.3-2.4-1.4-4.7-2.6-4-2-4.2-2.3-3.6-5.4 0.3-1.8 1-3.7 1.5-4.2q0.8-1 4 0c2.4 0.7 3.5 1.8 4.3 4.3 0.9 2.7 1.7 3.3 4.5 3.8 2 0.3 4.7 0.7 6 1 2.4 0.6 2.5 0.4 1.8-2.8-0.4-1.8-0.8-4-0.7-4.8 0-0.9-2.3-2.7-5-4-3.9-2-5.1-3.2-5.5-5.5-0.3-1.7-0.6-4.5-0.6-6.3 0-2.8 0.4-3.2 2.5-3.2 1.4 0 3.7-0.5 5-1 2.1-0.9 2.6-1.8 2.8-5.6 0.2-4-0.1-4.8-2.8-6.8-1.6-1.2-4-4.3-5.2-6.7-1.2-2.4-2.2-5.2-2.2-6.2-0.1-1.5 0.9-1.7 6.4-1.7h6.5c-0.7-4.3-1.2-6.9-1.5-8.5-0.4-1.8-1.6-3.7-3.3-4.6-1.4-0.9-3.9-4.1-5.4-7-1.5-3-2.8-6.1-2.8-6.9 0-1 1.4-1.8 3.8-2.3 2-0.4 5.1-0.7 6.7-0.7 2.8 0 3-0.2 2.4-2.8-0.4-1.5-1.2-4-1.8-5.5-0.8-2.1-2.2-3.1-6.1-4.2-4.6-1.4-5.1-1.9-7.5-7-1.9-4.2-3.6-6.3-7.2-8.6-2.9-1.9-5.4-4.5-6.5-6.8-1-2.1-3-4.3-5-5.3-1.8-0.9-4.3-2-5.6-2.5-1.5-0.5-2.9-2.4-4-5.3-1.1-2.8-2.7-5-4.7-6.1-1.6-1-4.4-2-6.2-2.3l-3.3-0.6v13l-10.5-0.1c-5.7-9.9-6.5-10.5-10.7-11.4-2.6-0.6-4.9-0.8-5.2-0.5-0.3 0.2-0.9 3.2-1.3 6.5l-0.8 6-12.5 0.5c-4.5-9.1-6.1-11-7.2-11-1 0-2.4 1-3.2 2.2-0.8 1.3-1.7 3.4-2.1 4.8-0.6 2.4-0.3 2.5 5.2 3.5 4.5 0.7 5.8 1.4 5.8 2.7 0 1-0.1 3.8-0.2 6.3l-0.3 4.5h-13c-2.4-8.4-2.5-8.5-7.2-8.8-4.2-0.2-4.8 0-5.3 2-0.3 1.3-0.5 3.4-0.3 4.7 0.3 2 1.3 2.8 5.1 4 4.6 1.5 4.8 1.7 4.8 5.3 0 2.1-0.6 4-1.3 4.2-0.7 0.2-2.9 0.7-5 1-3.6 0.5-3.8 0.4-5.8-3.4-1.8-3.7-2.3-4-6-4h-4c0 9.7 0.2 10 3.5 11.5 2.9 1.2 3.5 2 3.5 4.5 0 1.6 0.3 3.6 0.5 4.5 0.4 1.2-0.5 1.5-5.2 1.5-5.6 0-5.8 0-6.8-3.3-1-3-1.4-3.2-6-3.5-4.4-0.3-5-0.1-5.7 2-0.4 1.2-0.7 3.1-0.7 4-0.1 1.1 1.6 2.7 4.2 4 3.3 1.8 4.3 3 4.9 5.8 0.4 1.9 0.6 3.6 0.5 3.7-0.1 0.1-2.5 0.9-5.4 1.8l-5.3 1.5c-3.3-9.6-3.8-10.1-6.5-10.1-2.6 0-3.1 0.5-4.3 4.3-0.8 2.3-1.2 4.7-0.9 5.3 0.3 0.5 2 1.3 3.9 1.7 2.9 0.6 3.4 1.3 4.1 4.5 0.4 2.1 0.7 4.8 0.7 6 0 2-0.6 2.4-4.7 2.9-2.6 0.3-5.3 0.8-6 1-0.8 0.2-1.6-1.4-2.3-4.6-0.5-2.8-1.3-5.2-1.7-5.5-0.4-0.2-2.4 0-4.5 0.5-2.1 0.5-3.8 1.5-3.7 2.2 0 0.7 0.3 2.3 0.7 3.6 0.5 1.6 2 2.6 5.2 3.5l4.5 1.2 0.5 13.5c-10.2-1-12.9-1.8-13.7-2.9-0.7-0.9-1.3-2.6-1.3-3.9 0-1.6-0.5-2.2-2-2.2-1.1 0-3.1 0.4-4.5 1-1.7 0.7-2.3 1.5-1.9 2.7 0.2 1 2.3 2.6 4.5 3.5l3.9 1.8v15c-9.1 0.4-12.1 0.7-12.4 1-0.3 0.2-0.3 3.2 0.2 6.5 0.7 5.4 1.1 6.2 4.5 8.5 2.1 1.3 3.8 3.3 3.8 4.2 0 1-1.2 2.4-2.6 3.3-2 1.2-2.8 1.2-4 0.2-0.9-0.7-1.8-2.7-2-4.5l-0.5-3.2c-12 0-13 0.2-12.9 1.7 0 1 0.2 3.3 0.5 5.3 0.4 2.8 1.3 3.9 4.5 5.5 2.9 1.5 4 2.7 4.4 5 0.3 1.6 0.6 3.5 0.6 4.2q-0.1 1.3-5.1 1.3c-4.7 0-5-0.2-6.8-3.8-1.4-2.8-2.7-3.9-5.3-4.5-1.8-0.4-4.1-0.7-5.1-0.7-1.4 0-1.8 0.9-1.8 5.2 0 5.2 0 5.3 4 7 3.6 1.6 4 2.1 4 5.3 0 1.9 0.3 4.1 0.5 5 0.4 1.2-0.5 1.5-4.5 1.5-4.8 0-5-0.2-6.7-3.8-0.9-2-1.7-3.8-1.7-3.9 0-0.1-2.2-0.4-4.8-0.7l-4.8-0.6c0 8.9 0.4 10.1 1.8 10.5 1 0.3 2.7 1.3 3.9 2.2 1.3 1 2.4 3.4 2.8 5.5 0.5 3.7 0.4 3.8-3.2 4.8-2.1 0.5-4.1 1-4.5 1-0.4 0-1.5-1.7-2.5-3.7-1-2-2.9-4.2-4.3-4.9-1.3-0.7-4-1.6-6-1.9-1.9-0.4-3.8-0.4-4.1 0.1-0.4 0.5-0.2 3.1 0.3 5.9 0.6 2.7 1.6 5.6 2.2 6.3 0.6 0.7 2.7 1.6 4.5 2 1.9 0.4 3.6 1.1 3.9 1.7 0.2 0.5 0 1.9-0.6 3-0.5 1.1-2.5 2.4-4.5 3-3.5 1-3.5 1-5.5-3.5-2-4.5-2.1-4.5-8.3-5.5l-6.3-1c-3.9-10.2-4.3-10.6-7.3-10.6-1.8 0.1-3.5 0.4-3.7 0.8-0.2 0.4-0.8 2.7-1.2 5l-0.9 4.2c10.7 1.3 12.4 1.9 12.1 2.8-0.3 0.7-0.6 3.5-0.6 6.3v5c-6.5-0.1-9-0.4-9.6-0.8-0.6-0.4-1.7-2.8-2.5-5.2-1.5-4.5-1.5-4.5-8.2-6l-6.7-1.5c-2.5-7.8-3.7-10.4-4.4-10.8-0.6-0.4-2.7-0.7-4.8-0.7-3.4 0-3.7 0.2-3.3 2.2 0.3 1.3 0.5 3.7 0.5 5.5 0 3.2 0.2 3.3 5.6 4 4.9 0.7 5.5 1 5 2.8-0.3 1.1-0.5 3.9-0.5 6.2l-0.1 4.3c-6.5-0.1-9-0.4-9.6-0.8-0.6-0.4-1.8-3.1-2.7-6-1.6-5.2-1.7-5.2-7.2-6.5-3.2-0.7-5.7-1.8-5.9-2.7-0.3-0.9-2.3-3.4-4.5-5.8-2.2-2.3-5.4-4.8-7-5.5-1.9-0.8-3.9-3.1-5.7-6.6-2-3.8-4-6-6.8-7.5-2.1-1.2-4.8-3.5-5.9-5.1-1.2-1.7-4.5-5.6-7.4-8.8-2.9-3.1-6.1-7.6-7.1-10-1.7-3.9-2.2-4.3-7.5-5.5l-5.7-1.2c0-7.8 0-10.4 0-10.8 0-0.4 2.6-1.1 5.8-1.5 3.1-0.4 5.9-0.9 6-1 0.2-0.1-0.5-2.3-1.5-4.9-1.2-3.3-3.1-5.7-6.3-8-2.4-1.9-5.6-5.5-7-8.1-2.2-4.3-2.9-4.8-7.5-5.8-4.7-1-5-1.3-6.1-5.3-0.7-2.3-2.1-5.4-3.3-6.9-1.1-1.5-3.6-3.3-5.5-4-1.9-0.7-3.9-2.1-4.5-3.2-0.5-1.1-3.7-5.2-7-9-3.4-3.9-6.7-8.4-7.5-10-0.7-1.7-2.8-4-4.7-5.1-1.8-1.1-7.2-5-11.9-8.6-4.6-3.5-9.4-6.8-10.5-7.1-1.1-0.4-2.3-2-2.7-3.7-0.4-1.7-2.1-4.4-3.8-6-1.6-1.7-4.3-3.4-6-3.8-2.4-0.6-3.3-1.6-4.6-5.2-0.9-2.5-1.7-5-1.8-5.5-0.2-0.6-2.5-1.4-5.2-1.9-2.7-0.5-5.4-1-6.1-1.2-0.9-0.3-1.3 1.3-1.3 6.1 0 5.8-0.2 6.5-2 6.5-1.1 0-3.2-0.5-4.7-1.1-1.5-0.6-3.8-2-5.1-3.2-1.3-1.2-2.7-3.1-3.1-4.2-0.6-1.5-2.4-2.4-6.9-3.3-5.7-1.1-6.2-1.5-7.2-4.5-0.5-1.8-2.1-4.5-3.5-6-1.3-1.5-2.6-2.7-2.7-2.7-0.1 0.1-1.4 0.8-2.8 1.6zm39.2 25.4h6.9c6.1 0 6.9 0.2 6.5 1.7-0.2 1-0.7 3.2-1 5-0.5 3-0.9 3.3-4.3 3.3-2.8 0-4.1-0.6-5.2-2.3-0.7-1.2-1.7-3.5-2.1-5zm402 1.4c0.1-1.3 0.8-1.5 3.2-1 1.7 0.4 4.1 0.6 5.3 0.6 1.9 0 2.3 0.6 2.3 3 0 2.3-0.6 3.3-2.5 4-1.4 0.6-3.2 1-4 1-0.8 0-2.2-1.3-3-3-0.8-1.6-1.4-3.7-1.3-4.6zm28.8 0.4c0-1.5 0.9-1.8 5-1.8 4.8 0 5 0.1 5.6 3.3 0.4 1.8 0.4 3.9 0.2 4.7-0.3 0.8-1.9 2.1-3.6 2.8-3.2 1.2-3.2 1.2-5.2-3-1.1-2.4-2-5.1-2-6zm-456.4 1.2c-0.2-1.1 0-2 0.5-2 0.5 0 2 0.6 3.4 1.3 1.4 0.7 2.5 1.6 2.5 2 0 0.4-1.4 0.7-3 0.7-2.2 0-3.1-0.5-3.4-2zm46.4 14.5c0-0.9 0.9-1.5 2.5-1.5 1.6 0 2.5 0.6 2.5 1.5 0 1-0.9 1.5-2.5 1.5-1.6 0-2.5-0.5-2.5-1.5zm428.3 0c-0.5-1.2 0.2-1.5 3-1.5 3.5 0 3.7 0.2 3.9 3.5 0.3 3.3 0.1 3.5-3 3.5-2.5 0-3.2-0.4-3.2-2 0-1.1-0.3-2.7-0.7-3.5zm19.2 11.2c1.1-0.3 2.6-0.5 3.2-0.6 0.9 0 1.3 1.9 1.3 6.9 0 6.4-0.2 7-2 7-1.1 0-3.6-0.9-5.5-2-3.1-1.7-3.5-2.5-3.5-6 0-3.3 0.3-4 2.2-4.4 1.3-0.3 3.2-0.7 4.3-0.9zm-403 31c0.5-0.4 1.4-0.7 2.2-0.7 0.7 0 1.3 0.9 1.3 2q0 2-2 2c-1.1 0-2.1-0.6-2.2-1.3-0.1-0.7 0.2-1.6 0.7-2zm402.1 0c0.9-0.1 2.1-0.1 2.6 0.1 0.6 0.2 1 2.3 0.9 4.8-0.1 2.4-0.6 4.4-1.1 4.4-0.6 0-1.4-1-1.9-2.2-0.4-1.3-1.1-3.3-1.5-4.5-0.4-1.6-0.1-2.4 1-2.6zm-387.6 13c0.8-0.3 2.3-0.6 3.2-0.6 1.3-0.1 1.8 0.6 1.7 2.2-0.1 1.2-0.4 3.4-0.8 4.8-0.5 2.3-0.9 2.5-2.9 1.8-1.6-0.6-2.3-1.8-2.4-4.3-0.1-2.2 0.3-3.6 1.2-3.9zm9 13.8c0-1.1 1.3-1.5 11-1.5v7.5c0 5.3-0.4 7.5-1.3 7.5-0.6 0.1-2.6-1.4-4.4-3.2-1.7-1.8-3.7-4.5-4.2-6-0.6-1.5-1.1-3.5-1.1-4.3zm377.6 3c0.3-0.8 1.4-1.5 2.5-1.5 1.6 0 1.9 0.8 1.9 5.5 0 3-0.3 5.5-0.8 5.5-0.4 0-1.5-0.8-2.5-1.8-1-0.9-1.8-2.7-1.7-3.9 0-1.3 0.3-3 0.6-3.8zm-164.6 14c0-1.4 0.3-2.5 0.7-2.5 0.5 0 1.3 0.6 2 1.3 0.8 0.8 0.9 1.8 0.3 3-0.6 0.9-1.5 1.5-2 1.2-0.6-0.3-1-1.6-1-3zm-372.7 28.8c-0.4-1.6-0.2-2.3 0.8-2.3 0.8 0 2.1 0.8 3 1.7 0.9 1 1.9 3.3 2.3 5.1 0.6 3.1 0.4 3.2-2.4 3.2-2.6 0-3-0.3-3-2.7 0-1.5-0.3-3.8-0.7-5zm206.9 30c-0.3-1.9 0.1-2.3 2.2-2.3 2.1 0 2.6 0.5 2.6 2.5 0 2-0.5 2.5-2.3 2.3-1.4-0.2-2.3-1.1-2.5-2.5zm327.9 158.3c0.7-2.2 1.5-2.6 8.9-2.6v5c0 3.1-0.5 5.2-1.3 5.6-0.6 0.3-2.9-0.4-5-1.5-2-1.2-3.7-2.5-3.6-3 0.1-0.5 0.5-2.1 1-3.5zm-534.7 11.6c-0.5-2.3-0.3-2.4 2.8-1.7 1.8 0.4 3.6 0.9 4 1.1 0.5 0.3 0.8 2.1 0.8 4.2 0 3.4-0.3 3.8-7 5.7v-3.5c0-1.9-0.3-4.5-0.6-5.8zm536.8 14.9c1.8-0.5 3.7-0.9 4.1-1 0.4 0 1 2.5 1.3 5.7 0.3 3.1 0.3 5.9-0.1 6.2-0.3 0.3-2.2-0.5-4.3-1.7-2.8-1.6-3.8-2.9-4-5.2-0.2-2.7 0.2-3.2 3-4zm-536.9 14.2c-0.5-1.8-0.2-2.3 1.3-2.3 1 0 3.4 0.9 5.1 2 2 1.2 3.5 3.1 3.9 4.8 0.3 1.5 0.4 2.8 0.2 2.9-0.2 0.2-2.4 0.6-9.8 1.8v-3.5c0-1.9-0.3-4.5-0.7-5.7zm148.7 2.6c1.9-0.3 3.9-0.7 4.4-0.7 0.5-0.1 1.2 1.6 1.5 3.7 0.6 3.7 0.5 3.9-2.4 4.4-1.7 0.2-4 0.1-5.3-0.2-1.9-0.5-2.3-1.1-2-3.6 0.3-2.5 0.8-3.1 3.8-3.6zm28.4 0.1c1.6-0.3 3.2-0.4 3.7-0.3 0.5 0.2 1.3 2 1.9 4.1 0.5 2 0.8 3.8 0.7 3.8-0.1 0-2.3-0.1-5-0.3-4.6-0.3-4.7-0.3-4.5-3.5 0.3-2.7 0.8-3.4 3.2-3.8zm39.9 14.3c-0.5-2.1-0.2-2.3 3.1-2.3 3.2 0 3.8 0.5 5.6 4 1.1 2.2 1.9 4.2 1.7 4.5-0.1 0.3-1.9 0.8-3.9 1.3-3.5 0.7-3.8 0.5-4.8-2.3-0.6-1.6-1.4-4-1.7-5.2zm-201.3 2.2c0-2.6 0.4-3.5 1.7-3.5 1 0 2.7 0.6 3.8 1.4 1.8 1.3 1.8 1.7 0.5 3-0.8 0.8-2.5 1.7-3.8 2-2 0.6-2.2 0.3-2.2-2.9zm88.8-2.2c0.9-0.7 2.7-1.3 3.9-1.3 1.8 0 2.5 0.9 3.4 3.8 0.8 2.7 0.8 4 0 4.7q-1.1 1-2.4-0.2c-0.6-0.7-2.7-1.3-4.5-1.3-2.8 0-3.1-0.2-2.6-2.2 0.3-1.3 1.3-2.8 2.2-3.5zm231.7 2.4c1.1-0.2 2.3-0.5 2.7-0.5 0.5-0.1 0.8 0.5 0.8 1.3 0 0.8-0.6 1.5-1.3 1.5-0.6 0-2.3 0.4-3.5 0.8-2 0.6-2.3 0.5-1.6-1 0.5-0.9 1.8-1.8 2.9-2.1zm24 0c0.5-0.4 2.3-0.7 4.2-0.7 2.7 0 3.6 0.6 4.9 3.3 1.2 2.3 1.2 2.9 0.3 2-0.8-0.7-3.3-1.3-5.7-1.3-2.8 0-4.3-0.4-4.4-1.3-0.1-0.7 0.2-1.6 0.7-2zm44 9c1.1-0.2 2.3-0.5 2.7-0.6 0.5 0 1.7 0.8 2.8 1.9 1.1 1.1 2.4 3.1 3 4.5 0.5 1.4 1 3 1 3.5 0 0.6-2.5 1.1-11 1.5l-0.2-5.2c-0.3-4.4 0-5.2 1.7-5.6zm-374.5 5.3c0-2.5 0.5-4 1.2-4 0.7 0 2.6 0.3 4.3 0.6 2.3 0.4 3.3 1.3 4.3 4.2 1.2 3.1 1.2 3.8 0 4.5-0.7 0.4-2 0.5-2.8 0.2-0.8-0.2-2.7-0.6-4.3-0.9-2.4-0.5-2.7-1-2.7-4.6zm31.2-1.7c0.6-0.7 1.9-1.3 2.9-1.3 1.2 0 2.6 1.5 3.9 4 1.9 3.8 1.9 4 0.2 4.4-0.9 0.1-3.3-0.4-5.3-1.3-2.3-1-3.4-2.1-3.1-3.1 0.3-0.8 0.9-2 1.4-2.7zm384.9 15.2c1-4.1 1.3-4.5 4.2-4.5 2.5 0 3.5 0.6 4.6 2.7 0.7 1.6 1.7 4.1 3.1 8.3h-6.5c-3.7 0-6.5-0.4-6.5-1 0-0.5 0.5-3 1.1-5.5zm32.1-2.4c1.3-0.5 2.9-0.9 3.7-0.8 0.7 0.1 2.1 1.9 3 4 0.9 2.1 1.4 3.9 1.1 4.1-0.3 0.3-2.2 0.7-4.3 1-3.1 0.5-3.8 0.3-4.2-1.4-0.3-1.1-0.7-2.9-1-4-0.4-1.4 0.2-2.3 1.7-2.9zm12.7-431.3c-1.9 1.1-2.3 2.2-2.2 4.8 0.3 3.4 0.3 3.4 5.3 3.4h5c-0.5-7.7-0.9-8.4-3.1-9-1.6-0.4-3.5-0.1-5 0.8zm-430.4 1.4c-0.9 1.2-1.7 3.3-1.6 4.5 0.1 2.1 0.6 2.3 5.1 2.3h5c-0.5-8.2-0.7-8.5-3.6-8.8-2.4-0.2-3.6 0.3-4.9 2zm403-0.2c-0.3 0.6-0.3 2.4 0 4 0.3 1.7 1.1 3 1.7 3 0.7 0 2.1-0.6 3-1.3 0.9-0.6 1.8-1.6 1.8-2.2 0-0.5-0.7-1.8-1.7-2.7-1-1-2.3-1.7-3-1.8-0.7 0-1.5 0.5-1.8 1zm56.9 2.8c0.3 2 0.8 3.9 1.1 4.2 0.3 0.3 1.2 0.2 2-0.2 0.9-0.5 1.5-2.2 1.5-4.3 0-3.1-0.3-3.5-2.7-3.5-2.5 0-2.6 0.2-1.9 3.8zm-516 0.4c0.3 1.3 0.6 2.7 0.6 3.1 0 0.4 1.1 0.2 2.5-0.5 1.5-0.7 2.5-2 2.3-2.8-0.2-0.8-1.6-1.6-3.1-1.8-2.6-0.3-2.8-0.1-2.3 2zm-60.8 2.3c-0.3 0.8-0.6 2.9-0.6 4.5 0 3 0.1 3 4.2 2.4 2.4-0.3 4.6-0.9 4.9-1.3 0.4-0.3 0.5-2 0.3-3.8-0.4-3.1-0.6-3.3-4.3-3.3-2.6 0-4.1 0.5-4.5 1.5zm588.4 12v4.5c6.4-1.9 8.5-2.9 8.7-3.5 0.3-0.5 0-2-0.6-3.2-0.8-1.7-2-2.3-4.6-2.3-3.5 0-3.5 0-3.5 4.5zm-542.5-2.3c-0.4 0.7-0.2 2.3 0.4 3.6 0.6 1.2 1.7 2.2 2.3 2.2 0.7 0 1.9-0.3 2.6-0.7 0.7-0.4 1.2-1.9 1-3.3-0.2-1.9-1-2.6-3-2.8-1.5-0.2-3 0.3-3.3 1zm113.5 2.3c0 2.7 0.4 3.5 1.7 3.5 1 0 2.7-0.6 3.8-1.3 2-1.4 2-1.4-0.3-3.5-1.2-1.2-2.9-2.2-3.7-2.2-1.1 0-1.5 1.1-1.5 3.5zm-372 4.5c0 2.7 0.3 3 3 3 2.7 0 3-0.3 3-3 0-2.6-0.3-3-3-3-2.7 0-3 0.4-3 3zm229 0.5c0 1.8 0.4 2.4 1.5 2 0.8-0.3 1.9-0.5 2.5-0.5 0.5 0 1-0.9 1-2 0-1.4-0.7-2-2.5-2-2 0-2.5 0.5-2.5 2.5zm587.9 4.8c-1.9 0.9-2.3 1.7-2.1 4.9 0.2 3.1 0.5 3.7 1.9 3.3 1-0.4 3-0.9 4.6-1.3 1.9-0.5 2.7-1.3 2.7-2.7 0-1.1-1.1-2.7-2.4-3.6-1.8-1.2-3-1.3-4.7-0.6zm-571.2 3.5c-0.3 1.5-0.5 2.9-0.4 3 0.1 0.2 1.2 0.1 2.4-0.2 1.3-0.3 2.4-1.4 2.5-2.5 0.2-1-0.5-2.1-1.5-2.5-0.9-0.3-1.9-0.6-2.1-0.6-0.2 0-0.6 1.3-0.9 2.8zm140.9-1.7c-1.3 0.7-1.9 2-1.8 4 0.2 2.3 0.6 2.8 1.9 2.4 1-0.4 3.1-0.9 4.6-1.3 2.2-0.5 2.7-1.1 2.3-2.7-0.3-1.1-0.6-2.3-0.6-2.7 0-0.4-1-0.8-2.3-0.7-1.2 0-3.1 0.4-4.1 1zm14 15.4c-0.3 0.8-0.6 2.4-0.6 3.5q0 2 2 2c1.1 0 2.7-0.2 3.5-0.5 0.9-0.3 1.5-1.7 1.5-3.5 0-2.6-0.3-3-2.9-3-1.7 0-3.2 0.7-3.5 1.5zm429.7 0c0.4 0.8 0.7 1.9 0.7 2.3 0 0.4 1.2 0.6 2.5 0.5 1.7-0.2 2.5-0.9 2.5-2.3 0-1.6-0.7-2-3.2-2-2.4 0-3 0.4-2.5 1.5zm-830.3 6.5c0 2.7 0.3 3 3 3 2.2 0 3-0.5 3-1.7 0-1-0.5-2.3-1.2-3-0.7-0.7-2.1-1.3-3.1-1.3-1.2 0-1.7 0.8-1.7 3zm417.9 5.8c-0.8 0.3-1.7 1-2.1 1.6-0.4 0.6-0.8 2.1-0.8 3.4 0 1.2 0.3 2.2 0.7 2.2 0.5 0 1.8-0.2 3-0.5 1.7-0.4 2.3-1.2 2.4-3.4 0.1-1.6-0.3-3.1-0.8-3.4-0.6-0.2-1.6-0.2-2.4 0.1zm-204.9 4.9c-0.8 0.3-1.3 1.2-1.2 2.2 0.1 0.9 0.9 2.6 1.7 3.9 0.8 1.2 1.9 2.2 2.5 2.2 0.5 0 2.2-1.1 3.7-2.4l2.8-2.4c-3.1-3.3-4.9-4.2-6-4.1-1.1 0-2.7 0.3-3.5 0.6zm218 11c-0.6 1.2-1.1 2.4-1.1 2.8 0.1 0.3 1 0.5 2.1 0.5 1.1 0 2-0.5 2-1.2 0-0.7-0.4-2-0.9-2.8-0.8-1.2-1.1-1.1-2.1 0.7zm399.6 2.1c0.4 2 0.7 3.8 0.8 4 0 0.1 1.3-0.2 2.8-0.8 1.6-0.5 2.8-1.4 2.8-2 0-0.5-0.5-1.9-1-3-0.6-1.2-2-2-3.6-2-2.4 0-2.5 0.2-1.8 3.8zm-831.1 2.7c-0.4 0.3-0.5 1.7-0.1 3 0.5 2 1.2 2.5 3.6 2.5 2.7 0 3-0.3 3-3 0-2.6-0.4-3-2.8-3-1.6 0-3.2 0.3-3.7 0.5zm830.5 25c0 2.3 0.4 2.5 4 2.5 2.2 0 4-0.2 4-0.5 0-0.3-0.5-1.4-1-2.5q-1-2-4-2c-2.5 0-3 0.4-3 2.5zm-830.5 2.4c-1 1-1.8 2.3-1.7 3 0.1 0.6 0.6 2.1 1.1 3.4 0.7 1.7 1.5 2.1 3.5 1.7 2.1-0.4 2.5-1.1 2.8-4.3 0.2-2.1-0.2-4.2-0.7-4.7-0.6-0.6-1.5-1-2.1-1-0.6 0-1.9 0.8-2.9 1.9zm619.2 11.9c-0.3 1.5-0.5 2.9-0.4 3 0.1 0.2 1.2 0.1 2.4-0.2 1.3-0.3 2.4-1.4 2.5-2.5 0.2-1-0.5-2.1-1.5-2.5-0.9-0.3-1.9-0.6-2.1-0.6-0.2 0-0.6 1.3-0.9 2.8zm-431.5 3c-1.2 1.2-2.1 3-1.9 4 0.2 1.1 1 1.6 2.2 1.4 1.1-0.2 2.1-0.4 2.3-0.5 0.1-0.1 0.1-1.8 0-3.7l-0.3-3.5zm269.7 11.3v5c5.1-1 7.1-1.8 7.8-2.4 0.8-0.6 1.3-1.8 1.3-2.6 0-0.9-0.8-2.3-1.8-3.3-1-0.9-3-1.7-4.5-1.7-2.6 0-2.8 0.2-2.8 5zm374.3-1.8c-0.6 0.7-0.9 2.1-0.7 3 0.3 1.1 1.4 1.8 2.9 1.8 2.2 0 2.5-0.5 2.5-3 0-2.2-0.4-3-1.8-3-0.9 0-2.3 0.5-2.9 1.2zm-357.4 12.6c-0.8 0.3-1.7 1-2.1 1.6-0.4 0.6-0.7 2.5-0.7 4.3l-0.1 3.3c7.1-2.3 8.7-3.4 8.9-4.6 0.2-1.2-0.7-2.5-2.2-3.5-1.4-0.9-3.1-1.4-3.8-1.1zm-226.7 1.7c-1.3 0.9-2.4 2.2-2.3 3q0.2 1.5 3.6 1.5c3.3 0 3.5-0.3 3.5-3 0-1.8-0.5-3-1.2-3-0.7 0-2.3 0.7-3.6 1.5zm239.8 15.4c-0.6 1.1-1.1 2.9-1 4 0 1.5 0.6 1.9 1.8 1.6 1-0.2 3-0.7 4.5-1 1.5-0.3 2.8-0.9 2.8-1.3 0-0.4-0.7-1.7-1.5-3-0.9-1.2-2.4-2.2-3.5-2.2-1.1 0-2.5 0.8-3.1 1.9zm-241.4 14.1c-0.4 1.3-0.1 2 0.9 2 0.9 0 2.3-0.3 3.3-0.6 1.6-0.6 1.6-0.7-0.3-2-1.1-0.7-2.2-1.4-2.6-1.4-0.4 0-0.9 0.9-1.3 2zm254.9-1.4c-0.4 0.4-0.7 2.2-0.6 4 0.1 3.4 0.2 3.4 5.1 3.4 4.4 0 5-0.3 5-2 0-1.1-0.4-2.9-1-4-0.7-1.4-2-2-4.3-2-1.8 0-3.7 0.3-4.2 0.6zm59.9 1.1c-0.3 1-0.3 2.8 0 4 0.6 2 1 2.2 3.6 1.3 1.7-0.6 3-1.5 3-2 0-0.6-1-1.9-2.2-3-1.2-1.2-2.6-2.1-3-2-0.5 0-1.1 0.8-1.4 1.7zm-29 2.5c0.3 1.3 0.6 2.6 0.6 3 0 0.4 0.7 0.5 1.5 0.3 0.9-0.3 1.5-1.7 1.5-3 0-1.9-0.5-2.5-2.1-2.5-1.8 0-2 0.4-1.5 2.2zm-375.8 1.9c-1 0.5-1.8 1.3-1.7 1.7 0.1 0.4 1.1 2.1 2.2 3.9 1.2 2.1 2.5 3.1 3.4 2.8 1.1-0.4 1.5-1.9 1.5-5 0-3.7-0.3-4.5-1.7-4.5-1 0-2.6 0.5-3.7 1.1zm-156.3 42.4c-1.4 0.9-2.2 2.3-2 3.7 0.1 1.2 1.8 3.2 3.7 4.5 2 1.3 4.4 2.3 5.5 2.2 1.1 0 1.5-0.3 0.8-0.5-0.8-0.3-1.3-2.4-1.3-5.9 0-5.1-0.1-5.5-2.2-5.5-1.2 0-3.3 0.6-4.5 1.5zm143.8 2.2c-1.3 1.1-2 2.4-1.6 3.5 0.4 1.2 1.6 1.8 4 1.8 3.2 0 3.5-0.3 3.1-2.3-0.3-1.2-0.5-2.8-0.5-3.5 0-0.7-0.7-1.2-1.4-1.2-0.8 0-2.4 0.8-3.6 1.7zm670.8 7c0.1 1.5 0.5 3.8 0.7 5 0.3 1.5 1.2 2.3 2.4 2.3 1.1 0 2.7-0.3 3.5-0.5 0.9-0.3 1.6-1.3 1.6-2.3 0-0.9-0.8-2.7-1.8-3.9-0.9-1.2-2.9-2.5-4.3-2.8-2.2-0.5-2.4-0.3-2.1 2.2zm-803.5 6.5c0.3 2.4 1.2 4.9 1.9 5.6 0.7 0.7 2.7 1.5 4.5 1.7 2.9 0.4 3.7 1.3 7.2 8 3.9 7.1 4.2 7.5 7.5 7.5h3.5v-12c-10.5-1-11.6-1.5-12.2-3.3-0.4-1.2-0.7-3.7-0.7-5.5-0.1-2.7-0.6-3.5-3.6-4.7-1.9-0.9-4.6-1.5-6.1-1.5-2.6 0-2.6 0.1-2 4.2zm803.6 24.1c0.3 2.5 0.8 4.8 1 5.1 0.3 0.4 1.9 0.3 3.5-0.2 1.7-0.5 3.5-1.7 4-2.6 0.8-1.2 0.5-2.1-1-3.6-1.1-1.1-3.3-2.2-5-2.6l-3-0.5zm-772.6 7.4c0.3 2.6 0.7 4.8 0.9 5 0.1 0.2 1.8-0.1 3.7-0.6 3.3-0.7 3.6-1.1 3.6-5l0.1-4.2h-8.9zm57.6-0.7c0 2.2 0.4 4 0.8 4 0.4 0 2.2-0.5 4-1 1.8-0.6 3.2-1.3 3.2-1.5 0-0.3-0.5-1.7-1.2-3.1-0.9-1.8-2.1-2.5-4-2.5-2.6 0.1-2.8 0.4-2.8 4.1zm716 22.5v5.5c7.5 0 8-0.3 8-2.3 0.1-1.2 0.3-3.2 0.5-4.5 0.5-1.9 0-2.4-3.2-3.2-2.1-0.6-4.1-1-4.5-1-0.4 0-0.8 2.4-0.8 5.5zm-569.1 29c-0.2 1.4-0.1 2.7 0.1 2.9 0.3 0.2 1.3 0.2 2.3 0 1.1-0.3 1.7-1.4 1.7-2.9 0-1.8-0.5-2.5-1.9-2.5q-1.9 0-2.2 2.5zm584.6 12c-0.5 0.3-0.6 1.5-0.2 2.5 0.5 1.2 1.7 2 3.2 2 2 0 2.5-0.5 2.5-2.5 0-2-0.5-2.5-2.3-2.5-1.3 0-2.7 0.2-3.2 0.5zm-585.5 17c0 2.4 0.5 4.5 1.1 4.5 0.6 0 2.1-1.2 3.5-2.5 1.3-1.4 2.4-3.2 2.4-4 0-0.9-1-1.7-2.2-2-1.3-0.3-2.8-0.5-3.5-0.5-0.8 0-1.3 1.5-1.3 4.5zm587 11.7c-0.7 0.6-1.3 2-1.2 3 0.2 1.3 1.1 1.8 3.7 1.8 2 0 3.5-0.3 3.5-0.5 0-0.3-0.4-1.7-1-3-0.5-1.4-1.5-2.5-2.3-2.5-0.7 0-1.9 0.5-2.7 1.2zm0 29c-0.7 0.6-1.3 2-1.2 3 0.2 1.3 1.1 1.8 3.7 1.8 2 0 3.5-0.3 3.5-0.5 0-0.3-0.4-1.7-1-3-0.5-1.4-1.5-2.5-2.3-2.5-0.7 0-1.9 0.5-2.7 1.2zm-586.9 16.2c0 2.5 0.4 4.6 0.9 4.6 0.6 0 2.2-0.6 3.6-1.3 1.8-0.9 2.3-1.7 1.8-3.2-0.3-1.1-0.9-2.3-1.2-2.7-0.4-0.3-1.6-0.9-2.8-1.3-2-0.6-2.2-0.3-2.3 3.9zm14.9 9.5c-2.1 0.6-2.5 1.2-2.5 5 0 4.4 0 4.4 5 6 4.7 1.5 5.1 1.9 6.7 6.6 1.5 4.6 2 5.1 6.5 6.7 2.7 0.9 5.2 1.4 5.5 1 0.4-0.4 0.4-2.8 0-5.4-0.6-4.5-1-4.9-6.2-7.6-4.8-2.5-5.7-3.5-7.5-8-1.2-3.2-2.6-5.2-3.5-5.1-0.8 0-2.6 0.4-4 0.8zm213.4 15.8c0.2 1 0.7 2.8 1.1 4 0.3 1.3 1.1 2.3 1.8 2.3 0.7 0 2.1-0.7 3.2-1.5 2-1.5 2-1.6-0.7-4-1.5-1.4-3.5-2.5-4.4-2.5q-1.5 0-1 1.7zm-56.3 2.7c-0.1 3.2 0.2 3.6 2.4 3.6 1.4 0 2.7-0.4 3-0.8 0.2-0.4-0.1-1.9-0.8-3.2-0.7-1.4-2-2.7-2.9-2.9-1.2-0.2-1.6 0.6-1.7 3.3zm28.9 0.1c0 1.9 0.3 3.5 0.5 3.5 0.3 0 1.3-1.2 2.3-2.6 1.5-2.3 1.6-2.7 0.2-3.5-0.8-0.5-1.8-0.9-2.2-0.9-0.4 0-0.8 1.5-0.8 3.5zm371.1-2c-0.6 0.8-0.8 2.4-0.6 3.5 0.4 1.4 1.4 2 3.5 2 1.8 0 3-0.6 3-1.3 0-0.7-0.6-2.2-1.5-3.5-0.8-1.2-1.9-2.2-2.4-2.2-0.4 0-1.3 0.6-2 1.5zm-529 13.2c-2.2 1.7-2.2 1.9-0.7 5.5 1.4 3.3 1.9 3.6 3.6 2.8 1.6-0.8 2-2 2-5.5 0-3.2-0.4-4.5-1.3-4.5-0.8 0-2.4 0.8-3.6 1.7zm372.9 0.2c-0.6 1.1-1.1 2.9-1.1 4 0.1 1.6 0.8 2.1 3.1 2.1 2.4 0 3.1-0.5 3.6-2.5 0.3-1.4-0.1-3.2-0.8-4.1-0.7-0.8-1.8-1.5-2.5-1.5-0.7 0-1.7 0.9-2.3 2zm-287.8 3c-0.1 1.7 0.2 3.1 0.6 3 0.4 0 1.5-0.5 2.4-1.2 1-0.7 1.8-1.8 1.8-2.5 0-0.7-0.4-1.2-1-1.2-0.5 0-1.6-0.3-2.3-0.6-1-0.5-1.4 0.3-1.5 2.5zm171.4-1.4c-0.3 0.8-0.4 1.8-0.1 2.2 0.2 0.4 1.6 0.5 3.1 0.3 1.5-0.3 2.9-0.9 3.1-1.3 0.2-0.4-0.8-1.2-2.2-1.7-1.3-0.6-2.7-1-2.9-1-0.2 0-0.7 0.6-1 1.5zm59.6 0.9c-0.1 1.6 0.3 2.4 1.1 2.2 0.7-0.1 1.2-1.1 1.2-2.1 0-1-0.5-2.1-1.1-2.3-0.6-0.2-1.2 0.7-1.2 2.2zm198.3-1.8c-0.4 0.4-0.7 1.8-0.6 3 0.1 1.6 0.8 2.4 2.1 2.4 1 0 2.6-0.7 3.5-1.5 1.2-1.2 1.3-1.8 0.3-3.1-0.7-0.8-2-1.5-2.8-1.5-0.9 0-2 0.4-2.5 0.7zm-500.5 15.4c0 1.4 0.7 2 2.5 2 1.4 0 2.5-0.4 2.6-0.8 0-0.4-0.6-1.3-1.3-2-0.7-0.7-1.8-1.3-2.5-1.2-0.7 0-1.3 0.9-1.3 2zm28.5-1.4c-0.4 0.4-0.7 1.3-0.6 2 0.1 0.8 1.4 1.4 3.1 1.4 1.7 0 3-0.4 3.1-0.8 0-0.4-0.6-1.3-1.3-2-0.7-0.7-1.8-1.3-2.3-1.2-0.6 0-1.5 0.3-2 0.6zm372.6 1.3c0 1.6 0.5 2.1 2.4 2.1 1.8 0 2.5-0.5 2.3-1.8-0.2-0.9-1.3-1.9-2.4-2.1-1.6-0.2-2.2 0.3-2.3 1.8z"/></svg>